<svg xmlns="http://www.w3.org/2000/svg" viewBox="0 0 800 1120"><title>LEDGERBREAKER 第1話 コマ5 色指定</title><rect width="800" height="1120" fill="#FFFFFF"/><path d="M746.7,703.3 L1499.9,687.8 L1499.6,729.9 Z" fill="#6B6B70"/><path d="M743.1,755.6 L1493.3,826.5 L1487.6,872 Z" fill="#6B6B70"/><path d="M716,770.6 L1486.7,877.9 L1479,923.6 Z" fill="#6B6B70"/><path d="M740,837.8 L1448.5,1047.9 L1441.8,1069.3 Z" fill="#6B6B70"/><path d="M671.9,853.2 L1416,1141 L1402.7,1173.2 Z" fill="#6B6B70"/><path d="M635.4,881.2 L1361.8,1259.1 L1349.7,1281.5 Z" fill="#6B6B70"/><path d="M687.9,951.8 L1317.6,1336 L1295.1,1370.6 Z" fill="#6B6B70"/><path d="M655,979.4 L1250.1,1433 L1235.7,1451.2 Z" fill="#6B6B70"/><path d="M574.8,978.7 L1149.4,1547.7 L1135.6,1561.2 Z" fill="#6B6B70"/><path d="M546.1,1013.9 L1050.4,1636.5 L1030.4,1652.1 Z" fill="#6B6B70"/><path d="M543.6,1088.5 L949.1,1709.3 L925.8,1723.9 Z" fill="#6B6B70"/><path d="M491.5,1083.4 L853.4,1764.8 L818.8,1782.1 Z" fill="#6B6B70"/><path d="M485.4,1126.1 L796.6,1792.4 L760.8,1808 Z" fill="#6B6B70"/><path d="M421.3,1144.2 L629.5,1853.9 L602.6,1861.2 Z" fill="#6B6B70"/><path d="M380.3,1086.7 L555.3,1872.5 L532.4,1877.3 Z" fill="#6B6B70"/><path d="M350.5,1104 L466.9,1888.3 L430.6,1892.9 Z" fill="#6B6B70"/><path d="M313.1,1140.8 L350.2,1898.9 L321.3,1899.8 Z" fill="#6B6B70"/><path d="M260.7,1152 L212.5,1896.8 L179.6,1893.9 Z" fill="#6B6B70"/><path d="M222,1116.1 L98.4,1882.9 L59.5,1875.7 Z" fill="#6B6B70"/><path d="M176.2,1151.1 L-8.1,1859.8 L-27.3,1854.5 Z" fill="#6B6B70"/><path d="M119.2,1118.7 L-166.7,1805.5 L-184.8,1797.7 Z" fill="#6B6B70"/><path d="M99.1,1060.8 L-268.1,1757 L-299.5,1739.5 Z" fill="#6B6B70"/><path d="M96,1025.6 L-326.6,1723.4 L-347.3,1710.4 Z" fill="#6B6B70"/><path d="M39.4,1000.4 L-470.7,1619.8 L-501.7,1592.9 Z" fill="#6B6B70"/><path d="M-37,1020.1 L-560,1536.9 L-580.1,1515.8 Z" fill="#6B6B70"/><path d="M-27.9,973.9 L-607.5,1485.1 L-634.1,1453.3 Z" fill="#6B6B70"/><path d="M-66,957.2 L-669.5,1407.1 L-693.8,1372.6 Z" fill="#6B6B70"/><path d="M-41.9,873.3 L-759.6,1263.3 L-780.6,1221.9 Z" fill="#6B6B70"/><path d="M-75.4,866.4 L-789.5,1203 L-804.4,1169.4 Z" fill="#6B6B70"/><path d="M-95.8,809.3 L-850.4,1041.5 L-862.6,997.3 Z" fill="#6B6B70"/><path d="M-100.5,778.5 L-874.8,944.8 L-880.2,917 Z" fill="#6B6B70"/><path d="M-84.4,745.4 L-890.3,852.4 L-893,829 Z" fill="#6B6B70"/><path d="M-169.7,694.7 L-900,698.3 L-899.7,674.5 Z" fill="#6B6B70"/><path d="M-167.6,666.7 L-898.1,632 L-895.6,597.5 Z" fill="#6B6B70"/><path d="M-94.1,623.9 L-881.6,490.4 L-874.7,454.7 Z" fill="#6B6B70"/><path d="M-100.4,569.9 L-846,344.2 L-836.3,314.4 Z" fill="#6B6B70"/><path d="M-131.8,534.5 L-824.1,279.9 L-816.9,261.1 Z" fill="#6B6B70"/><path d="M-101.8,485.5 L-763.9,144.9 L-753.1,124.6 Z" fill="#6B6B70"/><path d="M-83.4,436 L-698.9,35 L-677.7,4.2 Z" fill="#6B6B70"/><path d="M3.2,447.7 L-624.5,-65 L-604,-89.2 Z" fill="#6B6B70"/><path d="M-29.2,384.4 L-575.7,-120.4 L-556.6,-140.4 Z" fill="#6B6B70"/><path d="M0.9,337.6 L-480.6,-211.4 L-446.9,-239.2 Z" fill="#6B6B70"/><path d="M76.3,343.6 L-351.9,-307.5 L-323.8,-325.1 Z" fill="#6B6B70"/><path d="M105.7,324.1 L-263.3,-359.6 L-238.8,-372.3 Z" fill="#6B6B70"/><path d="M147.4,337.6 L-179.4,-400.1 L-151.7,-411.7 Z" fill="#6B6B70"/><path d="M177.8,249.9 L-32.5,-453 L3.5,-462.8 Z" fill="#6B6B70"/><path d="M219.9,297.4 L55.2,-474.8 L76.5,-479 Z" fill="#6B6B70"/><path d="M249.7,252.4 L144.1,-489.8 L188.1,-494.8 Z" fill="#6B6B70"/><path d="M296.2,249.3 L269.3,-499.6 L310.8,-500 Z" fill="#6B6B70"/><path d="M348.2,262.9 L411.1,-494.8 L452,-490.3 Z" fill="#6B6B70"/><path d="M382.9,264.4 L511,-481.3 L537.8,-476.2 Z" fill="#6B6B70"/><path d="M430,270 L628.6,-454.1 L666,-442.8 Z" fill="#6B6B70"/><path d="M472.7,268.1 L727.8,-421.1 L763,-407.1 Z" fill="#6B6B70"/><path d="M481.2,364.8 L855.4,-363.8 L886.1,-347.1 Z" fill="#6B6B70"/><path d="M539.2,330.2 L938,-316.4 L965.3,-298.7 Z" fill="#6B6B70"/><path d="M584.4,366.6 L1062.6,-226.5 L1094.7,-199.2 Z" fill="#6B6B70"/><path d="M606.8,387.5 L1126.2,-170.3 L1155.1,-141.9 Z" fill="#6B6B70"/><path d="M623.2,445.3 L1228.8,-59.8 L1255.7,-25.7 Z" fill="#6B6B70"/><path d="M672.8,462.7 L1299.4,35.8 L1324.8,75.7 Z" fill="#6B6B70"/><path d="M681.6,509.3 L1365.6,148.2 L1381,179 Z" fill="#6B6B70"/><path d="M717.1,517.4 L1389.8,197.6 L1408.3,239.9 Z" fill="#6B6B70"/><path d="M723,571.1 L1441.9,331 L1453.5,369.2 Z" fill="#6B6B70"/><path d="M688.9,628.2 L1476.1,461.7 L1483.7,502.7 Z" fill="#6B6B70"/><path d="M738,659 L1493.2,572.6 L1496.1,603.8 Z" fill="#6B6B70"/><path d="M40,1120 C60,1040 150,1000 210,990 L400,990 C470,1000 560,1040 590,1120 Z" fill="#FFFFFF" stroke-linejoin="round" stroke="#1A1718" stroke-width="5"/><path d="M420,994 C480,1006 556,1046 590,1120 L480,1120 C470,1060 450,1020 420,994 Z" fill="none" stroke="#6B6B70" stroke-width="1.5" stroke-dasharray="5 4"/><path d="M200,780 C206,880 196,960 178,1010 L426,1010 C406,960 398,880 404,780 Z" fill="#FFFFFF" stroke-linejoin="round" stroke="#1A1718" stroke-width="5"/><path d="M200,780 L404,780 C402,840 380,880 300,900 C240,890 214,860 200,780 Z" fill="none" stroke="#6B6B70" stroke-width="1.5" stroke-dasharray="5 4"/><path d="M300,930 q8,14 0,26" fill="none" stroke="#1A1718" stroke-width="3"/><path d="M246,930 l10,18 l-4,16" fill="none" stroke-linejoin="round" stroke="#6B6B70" stroke-width="2.5"/><path d="M356,926 l-8,20 l6,14" fill="none" stroke-linejoin="round" stroke="#6B6B70" stroke-width="2.5"/><g transform="translate(300 560)"><path d="M-250,-150 Q-230,-340 0,-330 Q240,-320 250,-120 L240,40 L-240,40 Z" fill="#FFFFFF" stroke-linejoin="round" stroke="#1A1718" stroke-width="5"/><path d="M-226,-70 C-262,-80 -270,-20 -246,20 C-238,34 -224,36 -216,30 Z" fill="#FFFFFF" stroke-linejoin="round" stroke="#1A1718" stroke-width="5"/><path d="M226,-70 C262,-80 270,-20 246,20 C238,34 224,36 216,30 Z" fill="#FFFFFF" stroke-linejoin="round" stroke="#1A1718" stroke-width="5"/><path d="M-240,-40 q-8,20 4,40 M240,-40 q8,20 -4,40" fill="none" stroke="#1A1718" stroke-width="2.5"/><path d="M-230,-120 Q-240,120 -150,250 Q-80,340 0,346 Q80,340 150,250 Q240,120 230,-120 Q200,-262 0,-262 Q-200,-262 -230,-120 Z" fill="#FFFFFF" stroke-linejoin="round" stroke="#1A1718" stroke-width="6"/><path d="M-230,-120 Q-240,120 -150,250 Q-80,340 0,346 Q-60,320 -110,240 Q-180,130 -186,-60 Q-190,-150 -150,-210 Q-210,-180 -230,-120 Z" fill="none" stroke="#6B6B70" stroke-width="1.5" stroke-dasharray="5 4"/><path d="M-112,292 Q-80,340 0,346 Q80,340 112,292 Q96,300 84,290 Q70,306 52,296 Q36,316 16,302 Q0,322 -18,304 Q-38,316 -54,298 Q-74,308 -86,292 Q-100,300 -112,292 Z" fill="#FFFFFF" stroke-linejoin="round" stroke="#6B6B70" stroke-width="2.5"/><path d="M-240,-140 Q-150,-310 0,-272 Q130,-316 250,-140 Q235,-133 236,-150 Q217,-126 214,-126 Q205,-172 180,-206 Q152,-153 140,-124 Q130,-179 104,-222 Q77,-167 66,-136 Q56,-190 30,-232 Q3,-174 -8,-140 Q-18,-194 -44,-236 Q-73,-172 -86,-132 Q-95,-183 -120,-222 Q-148,-159 -160,-120 Q-170,-169 -196,-206 Q-217,-155 -222,-128 Q-236,-150 -240,-140 Z" fill="#FFFFFF" stroke-linejoin="round" stroke="#1A1718" stroke-width="5"/><path d="M-150,-250 Q-120,-200 -126,-160" fill="none" stroke="#1A1718" stroke-width="2.5"/><path d="M60,-262 Q90,-210 70,-170" fill="none" stroke="#1A1718" stroke-width="2.5"/><path d="M-20,-256 Q0,-210 -14,-176" fill="none" stroke="#1A1718" stroke-width="2.5"/><path d="M-170,-72 Q-110,-84 -46,-118" fill="none" stroke-linecap="round" stroke="#1A1718" stroke-width="11"/><path d="M170,-72 Q110,-84 46,-118" fill="none" stroke-linecap="round" stroke="#1A1718" stroke-width="11"/><path d="M-30,-140 l8,18 M-8,-146 l4,20 M30,-140 l-8,18" fill="none" stroke-linecap="round" stroke="#1A1718" stroke-width="3"/><ellipse cx="-92" cy="-30" rx="40" ry="38" fill="#FFFFFF" stroke="#1A1718" stroke-width="5.5"/><path d="M-48,-62 Q-92,-72 -136,-58" fill="none" stroke="#1A1718" stroke-width="4"/><circle cx="-94" cy="-26" r="6" fill="#1A1718"/><path d="M-150,-40 L-160,-46" fill="none" stroke-linecap="round" stroke="#1A1718" stroke-width="2.5"/><path d="M-152,-24 L-164,-24" fill="none" stroke-linecap="round" stroke="#1A1718" stroke-width="2.5"/><path d="M-34,-40 L-24,-46" fill="none" stroke-linecap="round" stroke="#1A1718" stroke-width="2.5"/><path d="M-32,-24 L-20,-24" fill="none" stroke-linecap="round" stroke="#1A1718" stroke-width="2.5"/><path d="M-58,10 Q-92,18 -128,6" fill="none" stroke="#1A1718" stroke-width="2.5"/><path d="M-114,6 C-126,30 -138,46 -142,78 C-146,86 -154,86 -154,78 C-148,50 -136,30 -124,6 Z" fill="#FFFFFF" stroke="#1A1718" stroke-width="2"/><path d="M-150,40 l4,30" fill="none" stroke-linecap="round" stroke="#1A1718" stroke-width="3"/><path d="M-164,46 l4,30" fill="none" stroke-linecap="round" stroke="#1A1718" stroke-width="3"/><path d="M-178,52 l4,30" fill="none" stroke-linecap="round" stroke="#1A1718" stroke-width="3"/><ellipse cx="92" cy="-30" rx="40" ry="38" fill="#FFFFFF" stroke="#1A1718" stroke-width="5.5"/><path d="M48,-62 Q92,-72 136,-58" fill="none" stroke="#1A1718" stroke-width="4"/><circle cx="94" cy="-26" r="6" fill="#1A1718"/><path d="M34,-40 L24,-46" fill="none" stroke-linecap="round" stroke="#1A1718" stroke-width="2.5"/><path d="M32,-24 L20,-24" fill="none" stroke-linecap="round" stroke="#1A1718" stroke-width="2.5"/><path d="M150,-40 L160,-46" fill="none" stroke-linecap="round" stroke="#1A1718" stroke-width="2.5"/><path d="M152,-24 L164,-24" fill="none" stroke-linecap="round" stroke="#1A1718" stroke-width="2.5"/><path d="M58,10 Q92,18 128,6" fill="none" stroke="#1A1718" stroke-width="2.5"/><path d="M114,6 C126,30 138,46 142,78 C146,86 154,86 154,78 C148,50 136,30 124,6 Z" fill="#FFFFFF" stroke="#1A1718" stroke-width="2"/><path d="M150,40 l-4,30" fill="none" stroke-linecap="round" stroke="#1A1718" stroke-width="3"/><path d="M164,46 l-4,30" fill="none" stroke-linecap="round" stroke="#1A1718" stroke-width="3"/><path d="M178,52 l-4,30" fill="none" stroke-linecap="round" stroke="#1A1718" stroke-width="3"/><path d="M-6,30 Q-14,62 4,66 Q14,64 18,58" fill="none" stroke-linecap="round" stroke="#1A1718" stroke-width="4"/><path d="M-74,96 Q0,74 74,96 Q112,190 66,262 Q0,290 -66,262 Q-112,190 -74,96 Z" fill="#1A1718" stroke-linejoin="round" stroke="#1A1718" stroke-width="6"/><path d="M-66,98 Q0,80 66,98 L70,114 Q0,98 -70,114 Z" fill="#FFFFFF" stroke-linejoin="round" stroke="#1A1718" stroke-width="2.5"/><path d="M-56,246 Q0,206 56,246 Q0,280 -56,246 Z" fill="#FFFFFF" stroke="#1A1718" stroke-width="2.5"/><path d="M-92,96 q-14,14 -12,32 M92,96 q14,14 12,32" fill="none" stroke="#1A1718" stroke-width="3"/><path d="M-196,-120 q-10,18 0,24 q10,-6 0,-24 Z" fill="#FFFFFF" stroke="#1A1718" stroke-width="2.5"/><path d="M206,-100 q-10,18 0,24 q10,-6 0,-24 Z" fill="#FFFFFF" stroke="#1A1718" stroke-width="2.5"/><path d="M-212,40 q-10,18 0,24 q10,-6 0,-24 Z" fill="#FFFFFF" stroke="#1A1718" stroke-width="2.5"/></g><path d="M840,780 L600,846 L612,912 L840,880 Z" fill="#FFFFFF" stroke-linejoin="round" stroke="#1A1718" stroke-width="5"/><path d="M610,890 L840,850 L840,880 L612,912 Z" fill="none" stroke="#6B6B70" stroke-width="1.5" stroke-dasharray="5 4"/><path d="M618,842 L630,916" fill="none" stroke="#1A1718" stroke-width="3"/><rect x="588" y="840" width="24" height="72" rx="6" fill="#1A1718" stroke="#1A1718" stroke-width="3" transform="rotate(-12 600 876)"/><path d="M592,846 C560,842 520,856 500,872 C480,888 486,906 506,910 L560,914 C580,914 596,900 600,880 Z" fill="#FFFFFF" stroke-linejoin="round" stroke="#1A1718" stroke-width="4.5"/><path d="M560,914 C580,914 596,900 600,880 L592,872 C584,894 570,904 548,906 Z" fill="none" stroke="#6B6B70" stroke-width="1.5" stroke-dasharray="5 4"/><path d="M540,884 C520,882 504,886 506,894" fill="none" stroke="#1A1718" stroke-width="2.5"/><path d="M540,896 C520,894 504,898 506,906" fill="none" stroke="#1A1718" stroke-width="2.5"/><path d="M512,872 C480,874 446,882 410,892 Q400,898 408,904 C440,902 476,896 506,892 Z" fill="#FFFFFF" stroke-linejoin="round" stroke="#1A1718" stroke-width="4"/><path d="M418,893 l6,7" fill="none" stroke="#1A1718" stroke-width="1.8"/><path d="M384,884 Q398,902 392,924" fill="none" stroke-linecap="round" stroke="#1A1718" stroke-width="6"/><path d="M398,902 C470,860 560,760 620,640 C660,540 700,380 740,100" fill="none" stroke-dasharray="2 10" stroke-linecap="round" stroke="#1A1718" stroke-width="2.5"/><g transform="translate(450 880) rotate(-20) scale(1)"><rect x="-46" y="-34" width="92" height="68" fill="#FFFFFF" stroke="#1A1718" stroke-width="2.5"/><path d="M-46,22 L46,22 L46,34 L-46,34 Z" fill="none" stroke="#6B6B70" stroke-width="1.5" stroke-dasharray="5 4"/><path d="M-36,-20 L36,-20" fill="none" stroke="#6B6B70" stroke-width="1.5"/><path d="M-36,-12 L36,-12" fill="none" stroke="#6B6B70" stroke-width="1.5"/><path d="M-36,-4 L36,-4" fill="none" stroke="#6B6B70" stroke-width="1.5"/><path d="M-36,4 L36,4" fill="none" stroke="#6B6B70" stroke-width="1.5"/><path d="M-36,12 L36,12" fill="none" stroke="#6B6B70" stroke-width="1.5"/><ellipse cx="-24" cy="8" rx="4.5" ry="3.4" fill="#1A1718" transform="rotate(-20 -24 8)"/><path d="M-20,8 L-20,-8" fill="none" stroke="#1A1718" stroke-width="1.6"/><ellipse cx="-6" cy="-4" rx="4.5" ry="3.4" fill="#1A1718" transform="rotate(-20 -6 -4)"/><path d="M-2,-4 L-2,-20" fill="none" stroke="#1A1718" stroke-width="1.6"/><ellipse cx="28" cy="-12" rx="4.5" ry="3.4" fill="#1A1718" transform="rotate(-20 28 -12)"/><path d="M32,-12 L32,-28" fill="none" stroke="#1A1718" stroke-width="1.6"/><path d="M-46,-34 L-46,34" fill="none" stroke="#6B6B70" stroke-width="4"/></g><g transform="translate(540 760) rotate(-11) scale(1)"><rect x="-46" y="-34" width="92" height="68" fill="#FFFFFF" stroke="#1A1718" stroke-width="2.5"/><path d="M-46,22 L46,22 L46,34 L-46,34 Z" fill="none" stroke="#6B6B70" stroke-width="1.5" stroke-dasharray="5 4"/><path d="M-36,-20 L36,-20" fill="none" stroke="#6B6B70" stroke-width="1.5"/><path d="M-36,-12 L36,-12" fill="none" stroke="#6B6B70" stroke-width="1.5"/><path d="M-36,-4 L36,-4" fill="none" stroke="#6B6B70" stroke-width="1.5"/><path d="M-36,4 L36,4" fill="none" stroke="#6B6B70" stroke-width="1.5"/><path d="M-36,12 L36,12" fill="none" stroke="#6B6B70" stroke-width="1.5"/><ellipse cx="-24" cy="8" rx="4.5" ry="3.4" fill="#1A1718" transform="rotate(-20 -24 8)"/><path d="M-20,8 L-20,-8" fill="none" stroke="#1A1718" stroke-width="1.6"/><ellipse cx="12" cy="0" rx="4.5" ry="3.4" fill="#1A1718" transform="rotate(-20 12 0)"/><path d="M16,0 L16,-16" fill="none" stroke="#1A1718" stroke-width="1.6"/><ellipse cx="28" cy="-12" rx="4.5" ry="3.4" fill="#1A1718" transform="rotate(-20 28 -12)"/><path d="M32,-12 L32,-28" fill="none" stroke="#1A1718" stroke-width="1.6"/><path d="M-46,-34 L-46,34" fill="none" stroke="#6B6B70" stroke-width="4"/></g><g transform="translate(620 640) rotate(-2) scale(0.9)"><rect x="-46" y="-34" width="92" height="68" fill="#FFFFFF" stroke="#1A1718" stroke-width="2.5"/><path d="M-46,22 L46,22 L46,34 L-46,34 Z" fill="none" stroke="#6B6B70" stroke-width="1.5" stroke-dasharray="5 4"/><path d="M-36,-20 L36,-20" fill="none" stroke="#6B6B70" stroke-width="1.5"/><path d="M-36,-12 L36,-12" fill="none" stroke="#6B6B70" stroke-width="1.5"/><path d="M-36,-4 L36,-4" fill="none" stroke="#6B6B70" stroke-width="1.5"/><path d="M-36,4 L36,4" fill="none" stroke="#6B6B70" stroke-width="1.5"/><path d="M-36,12 L36,12" fill="none" stroke="#6B6B70" stroke-width="1.5"/><ellipse cx="-6" cy="-4" rx="4.5" ry="3.4" fill="#1A1718" transform="rotate(-20 -6 -4)"/><path d="M-2,-4 L-2,-20" fill="none" stroke="#1A1718" stroke-width="1.6"/><ellipse cx="12" cy="0" rx="4.5" ry="3.4" fill="#1A1718" transform="rotate(-20 12 0)"/><path d="M16,0 L16,-16" fill="none" stroke="#1A1718" stroke-width="1.6"/><path d="M-46,-34 L-46,34" fill="none" stroke="#6B6B70" stroke-width="4"/></g><g transform="translate(660 520) rotate(7) scale(0.9)"><rect x="-46" y="-34" width="92" height="68" fill="#FFFFFF" stroke="#1A1718" stroke-width="2.5"/><path d="M-46,22 L46,22 L46,34 L-46,34 Z" fill="none" stroke="#6B6B70" stroke-width="1.5" stroke-dasharray="5 4"/><path d="M-36,-20 L36,-20" fill="none" stroke="#6B6B70" stroke-width="1.5"/><path d="M-36,-12 L36,-12" fill="none" stroke="#6B6B70" stroke-width="1.5"/><path d="M-36,-4 L36,-4" fill="none" stroke="#6B6B70" stroke-width="1.5"/><path d="M-36,4 L36,4" fill="none" stroke="#6B6B70" stroke-width="1.5"/><path d="M-36,12 L36,12" fill="none" stroke="#6B6B70" stroke-width="1.5"/><ellipse cx="-24" cy="8" rx="4.5" ry="3.4" fill="#1A1718" transform="rotate(-20 -24 8)"/><path d="M-20,8 L-20,-8" fill="none" stroke="#1A1718" stroke-width="1.6"/><ellipse cx="-6" cy="-4" rx="4.5" ry="3.4" fill="#1A1718" transform="rotate(-20 -6 -4)"/><path d="M-2,-4 L-2,-20" fill="none" stroke="#1A1718" stroke-width="1.6"/><ellipse cx="28" cy="-12" rx="4.5" ry="3.4" fill="#1A1718" transform="rotate(-20 28 -12)"/><path d="M32,-12 L32,-28" fill="none" stroke="#1A1718" stroke-width="1.6"/><path d="M-46,-34 L-46,34" fill="none" stroke="#6B6B70" stroke-width="4"/></g><g transform="translate(700 380) rotate(16) scale(0.8)"><rect x="-46" y="-34" width="92" height="68" fill="#FFFFFF" stroke="#1A1718" stroke-width="2.5"/><path d="M-46,22 L46,22 L46,34 L-46,34 Z" fill="none" stroke="#6B6B70" stroke-width="1.5" stroke-dasharray="5 4"/><path d="M-36,-20 L36,-20" fill="none" stroke="#6B6B70" stroke-width="1.5"/><path d="M-36,-12 L36,-12" fill="none" stroke="#6B6B70" stroke-width="1.5"/><path d="M-36,-4 L36,-4" fill="none" stroke="#6B6B70" stroke-width="1.5"/><path d="M-36,4 L36,4" fill="none" stroke="#6B6B70" stroke-width="1.5"/><path d="M-36,12 L36,12" fill="none" stroke="#6B6B70" stroke-width="1.5"/><ellipse cx="-24" cy="8" rx="4.5" ry="3.4" fill="#1A1718" transform="rotate(-20 -24 8)"/><path d="M-20,8 L-20,-8" fill="none" stroke="#1A1718" stroke-width="1.6"/><ellipse cx="12" cy="0" rx="4.5" ry="3.4" fill="#1A1718" transform="rotate(-20 12 0)"/><path d="M16,0 L16,-16" fill="none" stroke="#1A1718" stroke-width="1.6"/><ellipse cx="28" cy="-12" rx="4.5" ry="3.4" fill="#1A1718" transform="rotate(-20 28 -12)"/><path d="M32,-12 L32,-28" fill="none" stroke="#1A1718" stroke-width="1.6"/><path d="M-46,-34 L-46,34" fill="none" stroke="#6B6B70" stroke-width="4"/></g><g transform="translate(720 240) rotate(25) scale(0.8)"><rect x="-46" y="-34" width="92" height="68" fill="#FFFFFF" stroke="#1A1718" stroke-width="2.5"/><path d="M-46,22 L46,22 L46,34 L-46,34 Z" fill="none" stroke="#6B6B70" stroke-width="1.5" stroke-dasharray="5 4"/><path d="M-36,-20 L36,-20" fill="none" stroke="#6B6B70" stroke-width="1.5"/><path d="M-36,-12 L36,-12" fill="none" stroke="#6B6B70" stroke-width="1.5"/><path d="M-36,-4 L36,-4" fill="none" stroke="#6B6B70" stroke-width="1.5"/><path d="M-36,4 L36,4" fill="none" stroke="#6B6B70" stroke-width="1.5"/><path d="M-36,12 L36,12" fill="none" stroke="#6B6B70" stroke-width="1.5"/><ellipse cx="-6" cy="-4" rx="4.5" ry="3.4" fill="#1A1718" transform="rotate(-20 -6 -4)"/><path d="M-2,-4 L-2,-20" fill="none" stroke="#1A1718" stroke-width="1.6"/><ellipse cx="12" cy="0" rx="4.5" ry="3.4" fill="#1A1718" transform="rotate(-20 12 0)"/><path d="M16,0 L16,-16" fill="none" stroke="#1A1718" stroke-width="1.6"/><path d="M-46,-34 L-46,34" fill="none" stroke="#6B6B70" stroke-width="4"/></g><g transform="translate(740 110) rotate(34) scale(0.8)"><rect x="-46" y="-34" width="92" height="68" fill="#FFFFFF" stroke="#1A1718" stroke-width="2.5"/><path d="M-46,22 L46,22 L46,34 L-46,34 Z" fill="none" stroke="#6B6B70" stroke-width="1.5" stroke-dasharray="5 4"/><path d="M-36,-20 L36,-20" fill="none" stroke="#6B6B70" stroke-width="1.5"/><path d="M-36,-12 L36,-12" fill="none" stroke="#6B6B70" stroke-width="1.5"/><path d="M-36,-4 L36,-4" fill="none" stroke="#6B6B70" stroke-width="1.5"/><path d="M-36,4 L36,4" fill="none" stroke="#6B6B70" stroke-width="1.5"/><path d="M-36,12 L36,12" fill="none" stroke="#6B6B70" stroke-width="1.5"/><ellipse cx="-24" cy="8" rx="4.5" ry="3.4" fill="#1A1718" transform="rotate(-20 -24 8)"/><path d="M-20,8 L-20,-8" fill="none" stroke="#1A1718" stroke-width="1.6"/><ellipse cx="-6" cy="-4" rx="4.5" ry="3.4" fill="#1A1718" transform="rotate(-20 -6 -4)"/><path d="M-2,-4 L-2,-20" fill="none" stroke="#1A1718" stroke-width="1.6"/><ellipse cx="28" cy="-12" rx="4.5" ry="3.4" fill="#1A1718" transform="rotate(-20 28 -12)"/><path d="M32,-12 L32,-28" fill="none" stroke="#1A1718" stroke-width="1.6"/><path d="M-46,-34 L-46,34" fill="none" stroke="#6B6B70" stroke-width="4"/></g><defs ><clipPath id="cut"><path d="M0,0 L344,0 L290,230 L0,230 Z"/></clipPath></defs><g clip-path="url(#cut)"><path d="M382,104 L329.6,117.5 L360.7,139.3 L299,141.3 L301.7,166.5 L244.8,156.6 L218.4,179.4 L179.4,159.8 L130,175.1 L117.8,150.3 L56.8,154.4 L74.1,130.1 L15.4,122.2 L58.4,104 L15.4,85.8 L74.1,77.9 L56.8,53.6 L117.8,57.7 L130,32.9 L179.4,48.2 L218.4,28.6 L244.8,51.4 L301.7,41.5 L299,66.7 L360.7,68.7 L329.6,90.5 Z" fill="#FFFFFF" stroke-linejoin="miter" stroke="#1A1718" stroke-width="5"/><g transform="rotate(-5 40 140)"><text x="46" y="132" font-family="Dela Gothic One, IPAGothic, sans-serif" font-size="64" font-weight="400" text-anchor="start" fill="#1A1718">アアアアア</text></g></g><path d="M352,-10 L296,206" fill="none" stroke="#1A1718" stroke-width="14"/><path d="M352,-10 L296,206" fill="none" stroke="#FFFFFF" stroke-width="4"/><g transform="rotate(-8 500 230)"><text x="500" y="236" font-family="Dela Gothic One, IPAGothic, sans-serif" font-size="116" font-weight="400" text-anchor="middle" fill="#FFFFFF" stroke="#1A1718" stroke-width="12" stroke-linejoin="round" paint-order="stroke">ブツッ</text></g><path d="M369.5,989 Q347.7,913.5 318,838 Q355.3,910 400.5,982 Z" fill="#FFFFFF" stroke-linejoin="round" stroke="#1A1718" stroke-width="4"/><ellipse cx="470" cy="1009.9" rx="136" ry="39" fill="#FFFFFF" stroke="#1A1718" stroke-width="4"/><path d="M369.5,989 Q347.7,913.5 318,838 Q355.3,910 400.5,982 Z" fill="#FFFFFF"/><ellipse cx="470" cy="1009.9" rx="134" ry="37" fill="#FFFFFF"/><rect x="40" y="1046" width="284" height="56.1" fill="#FFFFFF" stroke="#1A1718" stroke-width="3"/><text x="56" y="1084.1" font-family="Zen Kaku Gothic New, IPAGothic, sans-serif" font-size="28" font-weight="700" text-anchor="start" fill="#1A1718">——音が、消えた。</text><g font-family="Zen Kaku Gothic New, IPAGothic, sans-serif" font-weight="700"><path d="M70,640 L60,600" stroke="#FFFFFF" stroke-width="5" fill="none"/><path d="M70,640 L60,600" stroke="#1A1718" stroke-width="2" fill="none"/><circle cx="60" cy="600" r="5" fill="#1A1718" stroke="#FFFFFF" stroke-width="2"/><rect x="14" y="623" width="112" height="34" rx="6" fill="#FFFFFF" stroke="#1A1718" stroke-width="2.5"/><text x="22" y="647.5" font-size="21" fill="#1A1718">C01</text><rect x="70" y="630" width="20" height="20" fill="#1B1F2E" stroke="#1A1718" stroke-width="1.5"/><rect x="96" y="630" width="20" height="20" fill="#12141B" stroke="#1A1718" stroke-width="1.5"/><path d="M60,380 L40,300" stroke="#FFFFFF" stroke-width="5" fill="none"/><path d="M60,380 L40,300" stroke="#1A1718" stroke-width="2" fill="none"/><circle cx="40" cy="300" r="5" fill="#1A1718" stroke="#FFFFFF" stroke-width="2"/><rect x="4" y="363" width="112" height="34" rx="6" fill="#FFFFFF" stroke="#1A1718" stroke-width="2.5"/><text x="12" y="387.5" font-size="21" fill="#1A1718">C06</text><rect x="60" y="370" width="20" height="20" fill="#5C5466" stroke="#1A1718" stroke-width="1.5"/><rect x="86" y="370" width="20" height="20" fill="#433C4C" stroke="#1A1718" stroke-width="1.5"/><path d="M70,450 L120,300" stroke="#FFFFFF" stroke-width="5" fill="none"/><path d="M70,450 L120,300" stroke="#1A1718" stroke-width="2" fill="none"/><circle cx="120" cy="300" r="5" fill="#1A1718" stroke="#FFFFFF" stroke-width="2"/><rect x="27" y="433" width="86" height="34" rx="6" fill="#FFFFFF" stroke="#1A1718" stroke-width="2.5"/><text x="35" y="457.5" font-size="21" fill="#1A1718">C31</text><rect x="83" y="440" width="20" height="20" fill="#141012" stroke="#1A1718" stroke-width="1.5"/><path d="M70,760 L160,640" stroke="#FFFFFF" stroke-width="5" fill="none"/><path d="M70,760 L160,640" stroke="#1A1718" stroke-width="2" fill="none"/><circle cx="160" cy="640" r="5" fill="#1A1718" stroke="#FFFFFF" stroke-width="2"/><rect x="14" y="743" width="112" height="34" rx="6" fill="#FFFFFF" stroke="#1A1718" stroke-width="2.5"/><text x="22" y="767.5" font-size="21" fill="#1A1718">C30</text><rect x="70" y="750" width="20" height="20" fill="#E2B48E" stroke="#1A1718" stroke-width="1.5"/><rect x="96" y="750" width="20" height="20" fill="#C08F6A" stroke="#1A1718" stroke-width="1.5"/><path d="M140,880 L300,664" stroke="#FFFFFF" stroke-width="5" fill="none"/><path d="M140,880 L300,664" stroke="#1A1718" stroke-width="2" fill="none"/><circle cx="300" cy="664" r="5" fill="#1A1718" stroke="#FFFFFF" stroke-width="2"/><rect x="84" y="863" width="112" height="34" rx="6" fill="#FFFFFF" stroke="#1A1718" stroke-width="2.5"/><text x="92" y="887.5" font-size="21" fill="#1A1718">C04</text><rect x="140" y="870" width="20" height="20" fill="#E9E1CF" stroke="#1A1718" stroke-width="1.5"/><rect x="166" y="870" width="20" height="20" fill="#BDB4A0" stroke="#1A1718" stroke-width="1.5"/><path d="M100,960 L300,960" stroke="#FFFFFF" stroke-width="5" fill="none"/><path d="M100,960 L300,960" stroke="#1A1718" stroke-width="2" fill="none"/><circle cx="300" cy="960" r="5" fill="#1A1718" stroke="#FFFFFF" stroke-width="2"/><rect x="44" y="943" width="112" height="34" rx="6" fill="#FFFFFF" stroke="#1A1718" stroke-width="2.5"/><text x="52" y="967.5" font-size="21" fill="#1A1718">C09</text><rect x="100" y="950" width="20" height="20" fill="#9A958C" stroke="#1A1718" stroke-width="1.5"/><rect x="126" y="950" width="20" height="20" fill="#76716A" stroke="#1A1718" stroke-width="1.5"/><path d="M700,1080 L520,1080" stroke="#FFFFFF" stroke-width="5" fill="none"/><path d="M700,1080 L520,1080" stroke="#1A1718" stroke-width="2" fill="none"/><circle cx="520" cy="1080" r="5" fill="#1A1718" stroke="#FFFFFF" stroke-width="2"/><rect x="644" y="1063" width="112" height="34" rx="6" fill="#FFFFFF" stroke="#1A1718" stroke-width="2.5"/><text x="652" y="1087.5" font-size="21" fill="#1A1718">C42</text><rect x="700" y="1070" width="20" height="20" fill="#6E5A7E" stroke="#1A1718" stroke-width="1.5"/><rect x="726" y="1070" width="20" height="20" fill="#4E3F5B" stroke="#1A1718" stroke-width="1.5"/><path d="M720,960 L720,850" stroke="#FFFFFF" stroke-width="5" fill="none"/><path d="M720,960 L720,850" stroke="#1A1718" stroke-width="2" fill="none"/><circle cx="720" cy="850" r="5" fill="#1A1718" stroke="#FFFFFF" stroke-width="2"/><rect x="664" y="943" width="112" height="34" rx="6" fill="#FFFFFF" stroke="#1A1718" stroke-width="2.5"/><text x="672" y="967.5" font-size="21" fill="#1A1718">C40</text><rect x="720" y="950" width="20" height="20" fill="#2A2C33" stroke="#1A1718" stroke-width="1.5"/><rect x="746" y="950" width="20" height="20" fill="#1A1B20" stroke="#1A1718" stroke-width="1.5"/><path d="M690,1020 L600,876" stroke="#FFFFFF" stroke-width="5" fill="none"/><path d="M690,1020 L600,876" stroke="#1A1718" stroke-width="2" fill="none"/><circle cx="600" cy="876" r="5" fill="#1A1718" stroke="#FFFFFF" stroke-width="2"/><rect x="634" y="1003" width="112" height="34" rx="6" fill="#FFFFFF" stroke="#1A1718" stroke-width="2.5"/><text x="642" y="1027.5" font-size="21" fill="#1A1718">C24</text><rect x="690" y="1010" width="20" height="20" fill="#0A0A0C" stroke="#1A1718" stroke-width="1.5"/><rect x="716" y="1010" width="20" height="20" fill="#9A958C" stroke="#1A1718" stroke-width="1.5"/><path d="M740,700 L620,640" stroke="#FFFFFF" stroke-width="5" fill="none"/><path d="M740,700 L620,640" stroke="#1A1718" stroke-width="2" fill="none"/><circle cx="620" cy="640" r="5" fill="#1A1718" stroke="#FFFFFF" stroke-width="2"/><rect x="684" y="683" width="112" height="34" rx="6" fill="#FFFFFF" stroke="#1A1718" stroke-width="2.5"/><text x="692" y="707.5" font-size="21" fill="#1A1718">C08</text><rect x="740" y="690" width="20" height="20" fill="#F5EEDD" stroke="#1A1718" stroke-width="1.5"/><rect x="766" y="690" width="20" height="20" fill="#D9D0BC" stroke="#1A1718" stroke-width="1.5"/></g></svg>