<svg xmlns="http://www.w3.org/2000/svg" viewBox="0 0 1600 900">
<title>C8 手首CU 3</title>
<style>g *{vector-effect:non-scaling-stroke}</style>
<rect width="1600" height="900" fill="#FFFFFF"/>
<rect x="0" y="0" width="1600" height="900" fill="#4A4A4A" stroke="none" stroke-width="0" fill-opacity="0.22"/><path d="M600,920 L640,520 Q650,430 700,380 L700,230 Q700,200 730,200 Q760,200 760,230 L770,340 L790,170 Q795,140 825,145 Q855,150 850,180 L840,340 L880,190 Q890,160 918,170 Q944,180 936,210 L900,360 L960,260 Q980,235 1004,250 Q1024,268 1008,295 L940,430 Q920,520 920,600 L960,920 Z" fill="#FFFFFF" stroke="#2A2A2A" stroke-width="5" stroke-linejoin="round" stroke-linecap="round" /><path d="M700,600 Q800,580 900,600" fill="none" stroke="#8A8A8A" stroke-width="2.5" stroke-linejoin="round" stroke-linecap="round" /><path d="M690,650 Q800,630 910,650" fill="none" stroke="#8A8A8A" stroke-width="2.5" stroke-linejoin="round" stroke-linecap="round" /><path d="M700,700 Q800,680 900,700" fill="none" stroke="#8A8A8A" stroke-width="2.5" stroke-linejoin="round" stroke-linecap="round" /><path d="M640,560 Q790,540 925,566 L930,620 Q790,600 636,618 Z" fill="#D6D6D6" stroke="#2A2A2A" stroke-width="4" stroke-linejoin="round" stroke-linecap="round" /><path d="M650,575 L920,585 M650,600 L922,605" fill="none" stroke="#8A8A8A" stroke-width="2" stroke-linejoin="round" stroke-linecap="round" /><circle cx="790" cy="700" r="42" fill="#FFFFFF" stroke="#2A2A2A" stroke-width="5" /><circle cx="790" cy="700" r="24" fill="none" stroke="#2A2A2A" stroke-width="3" /><line x1="756" y1="722" x2="826" y2="680" stroke="#2A2A2A" stroke-width="4" stroke-linecap="round" /><path d="M610,920 Q640,760 660,700 M960,920 Q930,780 922,700" fill="none" stroke="#8A8A8A" stroke-width="3" stroke-linejoin="round" stroke-linecap="round" /><text x="1080" y="480" font-family="Zen Kaku Gothic New, IBM Plex Mono, IPAGothic, sans-serif" font-size="96" fill="#2A2A2A" text-anchor="start" font-weight="700" >残高 −18</text><text x="40" y="870" font-family="Zen Kaku Gothic New, IBM Plex Mono, IPAGothic, sans-serif" font-size="24" fill="#2E6BD6" text-anchor="start" font-weight="700" letter-spacing="1">手首CU③　老人の手・包帯（印：藍）</text>
<rect x="2" y="2" width="1596" height="896" fill="none" stroke="#2A2A2A" stroke-width="4"/>
</svg>
