<svg xmlns="http://www.w3.org/2000/svg" viewBox="0 0 1600 900">
<title>C2b あおり 肋骨と頂の鐘</title>
<style>g *{vector-effect:non-scaling-stroke}</style>
<rect width="1600" height="900" fill="#FFFFFF"/>
<rect x="0" y="0" width="1600" height="900" fill="#4A4A4A" stroke="none" stroke-width="0" fill-opacity="0.45"/><ellipse cx="800" cy="-40" rx="480.0" ry="300" fill="#FFFFFF" fill-opacity="0.25"/><ellipse cx="800" cy="-40" rx="336.0" ry="210" fill="#FFFFFF" fill-opacity="0.50"/><ellipse cx="800" cy="-40" rx="208.0" ry="130" fill="#FFFFFF" fill-opacity="0.75"/><path d="M575.0,5.0 Q800,155.0 1025.0,5.0" fill="none" stroke="#FFFFFF" stroke-width="6" stroke-linejoin="round" stroke-linecap="round" stroke-dasharray="40 18"/><path d="M455.0,29.0 Q800,259.0 1145.0,29.0" fill="none" stroke="#D6D6D6" stroke-width="5" stroke-linejoin="round" stroke-linecap="round" stroke-dasharray="40 18"/><path d="M320.0,56.0 Q800,376.0 1280.0,56.0" fill="none" stroke="#D6D6D6" stroke-width="4" stroke-linejoin="round" stroke-linecap="round" stroke-dasharray="40 18"/><path d="M170.0,86.0 Q800,506.0 1430.0,86.0" fill="none" stroke="#D6D6D6" stroke-width="3" stroke-linejoin="round" stroke-linecap="round" stroke-dasharray="40 18"/><path d="M-80,900 Q120,380 640,-20" fill="none" stroke="#2A2A2A" stroke-width="130" stroke-linecap="round"/><path d="M-80,900 Q120,380 640,-20" fill="none" stroke="#FFFFFF" stroke-width="116" stroke-linecap="round"/><path d="M1680,900 Q1480,380 960,-20" fill="none" stroke="#2A2A2A" stroke-width="130" stroke-linecap="round"/><path d="M1680,900 Q1480,380 960,-20" fill="none" stroke="#FFFFFF" stroke-width="116" stroke-linecap="round"/><path d="M260,920 Q360,420 700,40" fill="none" stroke="#2A2A2A" stroke-width="80" stroke-linecap="round"/><path d="M260,920 Q360,420 700,40" fill="none" stroke="#FFFFFF" stroke-width="66" stroke-linecap="round"/><path d="M1340,920 Q1240,420 900,40" fill="none" stroke="#2A2A2A" stroke-width="80" stroke-linecap="round"/><path d="M1340,920 Q1240,420 900,40" fill="none" stroke="#FFFFFF" stroke-width="66" stroke-linecap="round"/><path d="M-40,560 Q380,240 560,-40" fill="none" stroke="#2A2A2A" stroke-width="60" stroke-linecap="round"/><path d="M-40,560 Q380,240 560,-40" fill="none" stroke="#FFFFFF" stroke-width="46" stroke-linecap="round"/><path d="M1640,560 Q1220,240 1040,-40" fill="none" stroke="#2A2A2A" stroke-width="60" stroke-linecap="round"/><path d="M1640,560 Q1220,240 1040,-40" fill="none" stroke="#FFFFFF" stroke-width="46" stroke-linecap="round"/><path d="M380,420 L500,420 L485.6,330 L394.4,330 Z" fill="#FFFFFF" stroke="#2A2A2A" stroke-width="3" stroke-linejoin="round" stroke-linecap="round" /><rect x="416" y="361.5" width="48" height="31.5" fill="#4A4A4A" stroke="#2A2A2A" stroke-width="2" /><path d="M1100,420 L1220,420 L1205.6,330 L1114.4,330 Z" fill="#FFFFFF" stroke="#2A2A2A" stroke-width="3" stroke-linejoin="round" stroke-linecap="round" /><rect x="1136" y="361.5" width="48" height="31.5" fill="#4A4A4A" stroke="#2A2A2A" stroke-width="2" /><path d="M520,240 L600,240 L590.4,180 L529.6,180 Z" fill="#FFFFFF" stroke="#2A2A2A" stroke-width="3" stroke-linejoin="round" stroke-linecap="round" /><rect x="544" y="201" width="32" height="21" fill="#4A4A4A" stroke="#2A2A2A" stroke-width="2" /><path d="M1000,240 L1080,240 L1070.4,180 L1009.6,180 Z" fill="#FFFFFF" stroke="#2A2A2A" stroke-width="3" stroke-linejoin="round" stroke-linecap="round" /><rect x="1024" y="201" width="32" height="21" fill="#4A4A4A" stroke="#2A2A2A" stroke-width="2" /><path d="M250,670 L410,670 L390.8,560 L269.2,560 Z" fill="#FFFFFF" stroke="#2A2A2A" stroke-width="3" stroke-linejoin="round" stroke-linecap="round" /><rect x="298" y="598.5" width="64" height="38.5" fill="#4A4A4A" stroke="#2A2A2A" stroke-width="2" /><path d="M1190,670 L1350,670 L1330.8,560 L1209.2,560 Z" fill="#FFFFFF" stroke="#2A2A2A" stroke-width="3" stroke-linejoin="round" stroke-linecap="round" /><rect x="1238" y="598.5" width="64" height="38.5" fill="#4A4A4A" stroke="#2A2A2A" stroke-width="2" /><path d="M0,300 Q800,360.0 1600,260" fill="none" stroke="#2A2A2A" stroke-width="2.5" stroke-linejoin="round" stroke-linecap="round" /><path d="M0,470 Q800,575.0 1600,520" fill="none" stroke="#2A2A2A" stroke-width="2.5" stroke-linejoin="round" stroke-linecap="round" /><path d="M200,120 Q800,210.0 1400,140" fill="none" stroke="#2A2A2A" stroke-width="2.5" stroke-linejoin="round" stroke-linecap="round" /><path d="M1180,640 L1560,560 L1600,560 L1600,840 L1200,880 Z" fill="#4A4A4A" stroke="#2A2A2A" stroke-width="4" stroke-linejoin="round" stroke-linecap="round" /><line x1="1220" y1="680" x2="1580" y2="610" stroke="#D6D6D6" stroke-width="4" stroke-linecap="round" stroke-dasharray="30 12 60 12"/><line x1="1220" y1="718" x2="1580" y2="650" stroke="#D6D6D6" stroke-width="4" stroke-linecap="round" stroke-dasharray="30 12 60 12"/><line x1="1220" y1="756" x2="1580" y2="690" stroke="#D6D6D6" stroke-width="4" stroke-linecap="round" stroke-dasharray="30 12 60 12"/><line x1="1220" y1="794" x2="1580" y2="730" stroke="#D6D6D6" stroke-width="4" stroke-linecap="round" stroke-dasharray="30 12 60 12"/><line x1="1220" y1="832" x2="1580" y2="770" stroke="#D6D6D6" stroke-width="4" stroke-linecap="round" stroke-dasharray="30 12 60 12"/><text x="1260" y="668" font-family="Zen Kaku Gothic New, IBM Plex Mono, IPAGothic, sans-serif" font-size="30" fill="#FFFFFF" text-anchor="start" font-weight="700" transform="rotate(-11 1260 668)">AAA</text><text x="40" y="870" font-family="Zen Kaku Gothic New, IBM Plex Mono, IPAGothic, sans-serif" font-size="24" fill="#2E6BD6" text-anchor="start" font-weight="700" letter-spacing="1">あおり　END：頂の灯り／鐘①②③ くっきり</text><rect x="1150" y="520" width="440" height="360" fill="none" stroke="#2E6BD6" stroke-width="4" stroke-dasharray="18 10"/><text x="1160" y="508" font-family="Zen Kaku Gothic New, IBM Plex Mono, IPAGothic, sans-serif" font-size="24" fill="#2E6BD6" text-anchor="start" font-weight="700" letter-spacing="1">→ C3 掲示板</text>
<rect x="2" y="2" width="1596" height="896" fill="none" stroke="#2A2A2A" stroke-width="4"/>
</svg>
