<svg xmlns="http://www.w3.org/2000/svg" viewBox="0 0 1600 900"><rect x="0" y="0" width="1600" height="900" fill="#FFFFFF"/><g stroke-linejoin="round" stroke-linecap="round"><path d="M0 0 L1600 0 L1600 90 L1510 90 L871 477 L729 477 L90 90 L0 90 Z" fill="#4A4A4A"/><path d="M280 497 Q680 -260 1440 507" fill="none" stroke="#B8B8B8" stroke-width="26"/><path d="M280 497 Q680 -260 1440 507" fill="none" stroke="#FFFFFF" stroke-width="10"/><path d="M776 567 L-760 940" fill="none" stroke="#D6D6D6" stroke-width="2"/><path d="M780 567 L-500 940" fill="none" stroke="#D6D6D6" stroke-width="2"/><path d="M784 567 L-240 940" fill="none" stroke="#D6D6D6" stroke-width="2"/><path d="M788 567 L20 940" fill="none" stroke="#D6D6D6" stroke-width="2"/><path d="M792 567 L280 940" fill="none" stroke="#D6D6D6" stroke-width="2"/><path d="M796 567 L540 940" fill="none" stroke="#D6D6D6" stroke-width="2"/><path d="M800 567 L800 940" fill="none" stroke="#D6D6D6" stroke-width="2"/><path d="M804 567 L1060 940" fill="none" stroke="#D6D6D6" stroke-width="2"/><path d="M808 567 L1320 940" fill="none" stroke="#D6D6D6" stroke-width="2"/><path d="M812 567 L1580 940" fill="none" stroke="#D6D6D6" stroke-width="2"/><path d="M816 567 L1840 940" fill="none" stroke="#D6D6D6" stroke-width="2"/><path d="M820 567 L2100 940" fill="none" stroke="#D6D6D6" stroke-width="2"/><path d="M824 567 L2360 940" fill="none" stroke="#D6D6D6" stroke-width="2"/><path d="M161 862 L1439 862" fill="none" stroke="#D6D6D6" stroke-width="2"/><path d="M360 756 L1240 756" fill="none" stroke="#D6D6D6" stroke-width="2"/><path d="M488 687 L1112 687" fill="none" stroke="#D6D6D6" stroke-width="2"/><path d="M580 638 L1020 638" fill="none" stroke="#D6D6D6" stroke-width="2"/><path d="M644 604 L956 604" fill="none" stroke="#D6D6D6" stroke-width="2"/><path d="M0 90 L90 90 L729 477 L729 558 L90 900 L0 900 Z" fill="#FFFFFF" stroke="#2A2A2A" stroke-width="3"/><path d="M90 300 L729 498" fill="none" stroke="#8A8A8A" stroke-width="2"/><path d="M90 200 L729 488" fill="none" stroke="#8A8A8A" stroke-width="2"/><path d="M90 90 L90 900" fill="none" stroke="#8A8A8A" stroke-width="2"/><path d="M133 172 L273 245 L273 312 L133 257 Z" fill="#B8B8B8" stroke="#2A2A2A" stroke-width="2"/><path d="M292 558 L399 550 L273 461 L133 445 Z" fill="#FFFFFF" stroke="#2A2A2A" stroke-width="3"/><path d="M319 556 L346 554 L203 453 L168 449 Z" fill="#D6D6D6"/><path d="M373 552 L399 550 L273 461 L238 457 Z" fill="#D6D6D6"/><path d="M292 558 Q306 566 319 556 Q332 564 346 554 Q359 562 373 552 Q386 560 399 550 " fill="#FFFFFF" stroke="#2A2A2A" stroke-width="3"/><path d="M244 680 L361 646 L361 802 L244 877 Z" fill="#D6D6D6" stroke="#2A2A2A" stroke-width="2.5"/><path d="M303 219 L303 786" fill="none" stroke="#8A8A8A" stroke-width="2"/><path d="M445 546 L514 541 L424 478 L333 467 Z" fill="#FFFFFF" stroke="#2A2A2A" stroke-width="3"/><path d="M462 545 L479 544 L378 472 L356 470 Z" fill="#D6D6D6"/><path d="M497 542 L514 541 L424 478 L401 475 Z" fill="#D6D6D6"/><path d="M445 546 Q453 552 462 545 Q471 550 479 544 Q488 549 497 542 Q505 548 514 541 " fill="#FFFFFF" stroke="#2A2A2A" stroke-width="3"/><path d="M411 632 L487 610 L487 721 L411 770 Z" fill="#D6D6D6" stroke="#2A2A2A" stroke-width="2.5"/><path d="M445 305 L445 710" fill="none" stroke="#8A8A8A" stroke-width="2"/><path d="M466 346 L529 379 L529 413 L466 388 Z" fill="#B8B8B8" stroke="#2A2A2A" stroke-width="2"/><path d="M546 539 L594 535 L529 489 L466 482 Z" fill="#FFFFFF" stroke="#2A2A2A" stroke-width="3"/><path d="M558 538 L570 537 L498 486 L482 484 Z" fill="#D6D6D6"/><path d="M582 536 L594 535 L529 489 L513 488 Z" fill="#D6D6D6"/><path d="M546 539 Q552 543 558 538 Q564 542 570 537 Q576 541 582 536 Q588 540 594 535 " fill="#FFFFFF" stroke="#2A2A2A" stroke-width="3"/><path d="M522 600 L574 585 L574 665 L522 699 Z" fill="#D6D6D6" stroke="#2A2A2A" stroke-width="2.5"/><path d="M544 365 L544 657" fill="none" stroke="#8A8A8A" stroke-width="2"/><path d="M617 534 L651 531 L604 498 L560 493 Z" fill="#FFFFFF" stroke="#2A2A2A" stroke-width="3"/><path d="M626 533 L634 532 L582 495 L571 494 Z" fill="#D6D6D6"/><path d="M643 532 L651 531 L604 498 L593 497 Z" fill="#D6D6D6"/><path d="M617 534 Q622 536 626 533 Q630 536 634 532 Q638 535 643 532 Q647 534 651 531 " fill="#FFFFFF" stroke="#2A2A2A" stroke-width="3"/><path d="M600 578 L637 567 L637 625 L600 649 Z" fill="#D6D6D6" stroke="#2A2A2A" stroke-width="2.5"/><path d="M615 408 L615 619" fill="none" stroke="#8A8A8A" stroke-width="2"/><path d="M626 430 L657 445 L657 464 L626 452 Z" fill="#B8B8B8" stroke="#2A2A2A" stroke-width="2"/><path d="M668 530 L691 528 L657 504 L626 500 Z" fill="#FFFFFF" stroke="#2A2A2A" stroke-width="3"/><path d="M674 529 L680 529 L642 502 L634 501 Z" fill="#D6D6D6"/><path d="M685 528 L691 528 L657 504 L649 503 Z" fill="#D6D6D6"/><path d="M668 530 Q671 532 674 529 Q677 531 680 529 Q683 531 685 528 Q688 530 691 528 " fill="#FFFFFF" stroke="#2A2A2A" stroke-width="3"/><path d="M656 562 L681 554 L681 597 L656 613 Z" fill="#D6D6D6" stroke="#2A2A2A" stroke-width="2.5"/><path d="M665 438 L665 592" fill="none" stroke="#8A8A8A" stroke-width="2"/><path d="M704 527 L720 526 L695 508 L673 506 Z" fill="#FFFFFF" stroke="#2A2A2A" stroke-width="3"/><path d="M708 527 L712 527 L684 507 L679 506 Z" fill="#D6D6D6"/><path d="M716 526 L720 526 L695 508 L689 508 Z" fill="#D6D6D6"/><path d="M704 527 Q706 528 708 527 Q710 528 712 527 Q714 528 716 526 Q718 528 720 526 " fill="#FFFFFF" stroke="#2A2A2A" stroke-width="3"/><path d="M694 550 L712 545 L712 576 L694 588 Z" fill="#D6D6D6" stroke="#2A2A2A" stroke-width="2.5"/><path d="M701 460 L701 573" fill="none" stroke="#8A8A8A" stroke-width="2"/><path d="M707 471 L725 481 L725 490 L707 483 Z" fill="#B8B8B8" stroke="#2A2A2A" stroke-width="2"/><path d="M729 525 L743 524 L725 512 L707 509 Z" fill="#FFFFFF" stroke="#2A2A2A" stroke-width="3"/><path d="M732 525 L736 525 L716 510 L711 510 Z" fill="#D6D6D6"/><path d="M739 524 L743 524 L725 512 L720 511 Z" fill="#D6D6D6"/><path d="M729 525 Q731 526 732 525 Q734 526 736 525 Q738 526 739 524 Q741 526 743 524 " fill="#FFFFFF" stroke="#2A2A2A" stroke-width="3"/><path d="M722 542 L737 538 L737 560 L722 570 Z" fill="#D6D6D6" stroke="#2A2A2A" stroke-width="2.5"/><path d="M1600 90 L1510 90 L871 477 L871 558 L1510 900 L1600 900 Z" fill="#FFFFFF" stroke="#2A2A2A" stroke-width="3"/><path d="M1510 300 L871 498" fill="none" stroke="#8A8A8A" stroke-width="2"/><path d="M1510 200 L871 488" fill="none" stroke="#8A8A8A" stroke-width="2"/><path d="M1510 90 L1510 900" fill="none" stroke="#8A8A8A" stroke-width="2"/><path d="M1467 172 L1327 245 L1327 312 L1467 257 Z" fill="#B8B8B8" stroke="#2A2A2A" stroke-width="2"/><path d="M1308 558 L1201 550 L1327 461 L1467 445 Z" fill="#FFFFFF" stroke="#2A2A2A" stroke-width="3"/><path d="M1281 556 L1254 554 L1397 453 L1432 449 Z" fill="#D6D6D6"/><path d="M1227 552 L1201 550 L1327 461 L1362 457 Z" fill="#D6D6D6"/><path d="M1308 558 Q1294 566 1281 556 Q1268 564 1254 554 Q1241 562 1227 552 Q1214 560 1201 550 " fill="#FFFFFF" stroke="#2A2A2A" stroke-width="3"/><path d="M1356 680 L1239 646 L1239 802 L1356 877 Z" fill="#D6D6D6" stroke="#2A2A2A" stroke-width="2.5"/><path d="M1297 219 L1297 786" fill="none" stroke="#8A8A8A" stroke-width="2"/><path d="M1155 546 L1086 541 L1176 478 L1267 467 Z" fill="#FFFFFF" stroke="#2A2A2A" stroke-width="3"/><path d="M1138 545 L1121 544 L1222 472 L1244 470 Z" fill="#D6D6D6"/><path d="M1103 542 L1086 541 L1176 478 L1199 475 Z" fill="#D6D6D6"/><path d="M1155 546 Q1147 552 1138 545 Q1129 550 1121 544 Q1112 549 1103 542 Q1095 548 1086 541 " fill="#FFFFFF" stroke="#2A2A2A" stroke-width="3"/><path d="M1189 632 L1113 610 L1113 721 L1189 770 Z" fill="#D6D6D6" stroke="#2A2A2A" stroke-width="2.5"/><path d="M1155 305 L1155 710" fill="none" stroke="#8A8A8A" stroke-width="2"/><path d="M1134 346 L1071 379 L1071 413 L1134 388 Z" fill="#B8B8B8" stroke="#2A2A2A" stroke-width="2"/><path d="M1054 539 L1006 535 L1071 489 L1134 482 Z" fill="#FFFFFF" stroke="#2A2A2A" stroke-width="3"/><path d="M1042 538 L1030 537 L1102 486 L1118 484 Z" fill="#D6D6D6"/><path d="M1018 536 L1006 535 L1071 489 L1087 488 Z" fill="#D6D6D6"/><path d="M1054 539 Q1048 543 1042 538 Q1036 542 1030 537 Q1024 541 1018 536 Q1012 540 1006 535 " fill="#FFFFFF" stroke="#2A2A2A" stroke-width="3"/><path d="M1078 600 L1026 585 L1026 665 L1078 699 Z" fill="#D6D6D6" stroke="#2A2A2A" stroke-width="2.5"/><path d="M1056 365 L1056 657" fill="none" stroke="#8A8A8A" stroke-width="2"/><path d="M983 534 L949 531 L996 498 L1040 493 Z" fill="#FFFFFF" stroke="#2A2A2A" stroke-width="3"/><path d="M974 533 L966 532 L1018 495 L1029 494 Z" fill="#D6D6D6"/><path d="M957 532 L949 531 L996 498 L1007 497 Z" fill="#D6D6D6"/><path d="M983 534 Q978 536 974 533 Q970 536 966 532 Q962 535 957 532 Q953 534 949 531 " fill="#FFFFFF" stroke="#2A2A2A" stroke-width="3"/><path d="M1000 578 L963 567 L963 625 L1000 649 Z" fill="#D6D6D6" stroke="#2A2A2A" stroke-width="2.5"/><path d="M985 408 L985 619" fill="none" stroke="#8A8A8A" stroke-width="2"/><path d="M974 430 L943 445 L943 464 L974 452 Z" fill="#B8B8B8" stroke="#2A2A2A" stroke-width="2"/><path d="M932 530 L909 528 L943 504 L974 500 Z" fill="#FFFFFF" stroke="#2A2A2A" stroke-width="3"/><path d="M926 529 L920 529 L958 502 L966 501 Z" fill="#D6D6D6"/><path d="M915 528 L909 528 L943 504 L951 503 Z" fill="#D6D6D6"/><path d="M932 530 Q929 532 926 529 Q923 531 920 529 Q917 531 915 528 Q912 530 909 528 " fill="#FFFFFF" stroke="#2A2A2A" stroke-width="3"/><path d="M944 562 L919 554 L919 597 L944 613 Z" fill="#D6D6D6" stroke="#2A2A2A" stroke-width="2.5"/><path d="M935 438 L935 592" fill="none" stroke="#8A8A8A" stroke-width="2"/><path d="M896 527 L880 526 L905 508 L927 506 Z" fill="#FFFFFF" stroke="#2A2A2A" stroke-width="3"/><path d="M892 527 L888 527 L916 507 L921 506 Z" fill="#D6D6D6"/><path d="M884 526 L880 526 L905 508 L911 508 Z" fill="#D6D6D6"/><path d="M896 527 Q894 528 892 527 Q890 528 888 527 Q886 528 884 526 Q882 528 880 526 " fill="#FFFFFF" stroke="#2A2A2A" stroke-width="3"/><path d="M906 550 L888 545 L888 576 L906 588 Z" fill="#D6D6D6" stroke="#2A2A2A" stroke-width="2.5"/><path d="M899 460 L899 573" fill="none" stroke="#8A8A8A" stroke-width="2"/><path d="M893 471 L875 481 L875 490 L893 483 Z" fill="#B8B8B8" stroke="#2A2A2A" stroke-width="2"/><path d="M871 525 L857 524 L875 512 L893 509 Z" fill="#FFFFFF" stroke="#2A2A2A" stroke-width="3"/><path d="M868 525 L864 525 L884 510 L889 510 Z" fill="#D6D6D6"/><path d="M861 524 L857 524 L875 512 L880 511 Z" fill="#D6D6D6"/><path d="M871 525 Q869 526 868 525 Q866 526 864 525 Q862 526 861 524 Q859 526 857 524 " fill="#FFFFFF" stroke="#2A2A2A" stroke-width="3"/><path d="M878 542 L863 538 L863 560 L878 570 Z" fill="#D6D6D6" stroke="#2A2A2A" stroke-width="2.5"/><path d="M729 487 h142 v71 h-142 Z" fill="#D6D6D6" stroke="#2A2A2A" stroke-width="2"/><path d="M749 507 h40 v26 h-40 Z" fill="#B8B8B8" stroke="#2A2A2A" stroke-width="2"/><path d="M801 517 h46 v30 h-46 Z" fill="#B8B8B8" stroke="#2A2A2A" stroke-width="2"/><path d="M374 388 Q800 442 1226 388" fill="none" stroke="#B8B8B8" stroke-width="2.5"/><path d="M544 405 L544 413" fill="none" stroke="#B8B8B8" stroke-width="2"/><path d="M535 412 h18 v4 h-18 Z" fill="#2A2A2A" stroke="#2A2A2A" stroke-width="2"/><path d="M528 436 A16 20 0 1 0 561 436 A16 20 0 1 0 528 436 Z" fill="#FFFFFF" stroke="#2A2A2A" stroke-width="3"/><path d="M529 430 Q544.4000000000001 427 560 430 M529 442 Q544.4000000000001 439 560 442" fill="none" stroke="#8A8A8A" stroke-width="2"/><path d="M715 414 L715 422" fill="none" stroke="#B8B8B8" stroke-width="2"/><path d="M706 421 h18 v4 h-18 Z" fill="#2A2A2A" stroke="#2A2A2A" stroke-width="2"/><path d="M698 445 A16 20 0 1 0 731 445 A16 20 0 1 0 698 445 Z" fill="#FFFFFF" stroke="#2A2A2A" stroke-width="3"/><path d="M700 438 Q714.8 435 730 438 M700 451 Q714.8 448 730 451" fill="none" stroke="#8A8A8A" stroke-width="2"/><path d="M885 414 L885 422" fill="none" stroke="#B8B8B8" stroke-width="2"/><path d="M876 421 h18 v4 h-18 Z" fill="#2A2A2A" stroke="#2A2A2A" stroke-width="2"/><path d="M869 445 A16 20 0 1 0 902 445 A16 20 0 1 0 869 445 Z" fill="#FFFFFF" stroke="#2A2A2A" stroke-width="3"/><path d="M870 438 Q885.2 435 901 438 M870 451 Q885.2 448 901 451" fill="none" stroke="#8A8A8A" stroke-width="2"/><path d="M1056 405 L1056 413" fill="none" stroke="#B8B8B8" stroke-width="2"/><path d="M1046 412 h18 v4 h-18 Z" fill="#2A2A2A" stroke="#2A2A2A" stroke-width="2"/><path d="M1039 436 A16 20 0 1 0 1072 436 A16 20 0 1 0 1039 436 Z" fill="#FFFFFF" stroke="#2A2A2A" stroke-width="3"/><path d="M1040 430 Q1055.6000000000001 427 1071 430 M1040 442 Q1055.6000000000001 439 1071 442" fill="none" stroke="#8A8A8A" stroke-width="2"/><path d="M552 443 Q800.5 474.5 1049 443" fill="none" stroke="#B8B8B8" stroke-width="2.5"/><path d="M651 453 L651 458" fill="none" stroke="#B8B8B8" stroke-width="2"/><path d="M646 457 h11 v2 h-11 Z" fill="#2A2A2A" stroke="#2A2A2A" stroke-width="2"/><path d="M642 471 A10 12 0 1 0 661 471 A10 12 0 1 0 642 471 Z" fill="#FFFFFF" stroke="#2A2A2A" stroke-width="3"/><path d="M642 467 Q651.4000000000001 466 660 467 M642 475 Q651.4000000000001 473 660 475" fill="none" stroke="#8A8A8A" stroke-width="2"/><path d="M751 458 L751 463" fill="none" stroke="#B8B8B8" stroke-width="2"/><path d="M745 462 h11 v2 h-11 Z" fill="#2A2A2A" stroke="#2A2A2A" stroke-width="2"/><path d="M741 476 A10 12 0 1 0 760 476 A10 12 0 1 0 741 476 Z" fill="#FFFFFF" stroke="#2A2A2A" stroke-width="3"/><path d="M742 472 Q750.8000000000001 471 760 472 M742 480 Q750.8000000000001 478 760 480" fill="none" stroke="#8A8A8A" stroke-width="2"/><path d="M850 458 L850 463" fill="none" stroke="#B8B8B8" stroke-width="2"/><path d="M845 462 h11 v2 h-11 Z" fill="#2A2A2A" stroke="#2A2A2A" stroke-width="2"/><path d="M841 476 A10 12 0 1 0 860 476 A10 12 0 1 0 841 476 Z" fill="#FFFFFF" stroke="#2A2A2A" stroke-width="3"/><path d="M841 472 Q850.2 471 859 472 M841 480 Q850.2 478 859 480" fill="none" stroke="#8A8A8A" stroke-width="2"/><path d="M950 453 L950 458" fill="none" stroke="#B8B8B8" stroke-width="2"/><path d="M944 457 h11 v2 h-11 Z" fill="#2A2A2A" stroke="#2A2A2A" stroke-width="2"/><path d="M940 471 A10 12 0 1 0 959 471 A10 12 0 1 0 940 471 Z" fill="#FFFFFF" stroke="#2A2A2A" stroke-width="3"/><path d="M941 467 Q949.6000000000001 466 959 467 M941 475 Q949.6000000000001 473 959 475" fill="none" stroke="#8A8A8A" stroke-width="2"/><path d="M0 0 h1600 v900 h-1600 Z" fill="#FFFFFF" opacity="0.45"/><path d="M560 611 L560 603" fill="none" stroke="#2A2A2A" stroke-width="16.1"/><path d="M560 611 L560 603" fill="none" stroke="#FFFFFF" stroke-width="9.1"/><path d="M589 617 L531 617 L542 700 L578 700 Z" fill="#D6D6D6" stroke="#2A2A2A" stroke-width="4"/><path d="M578 696 L542 696" fill="none" stroke="#2A2A2A" stroke-width="8"/><path d="M560 617 L560 700" fill="none" stroke="#8A8A8A" stroke-width="2"/><path d="M578 700 L578 755 L585 818" fill="none" stroke="#2A2A2A" stroke-width="21.95"/><path d="M578 700 L578 755 L585 818" fill="none" stroke="#D6D6D6" stroke-width="14.95"/><path d="M576 821 A10 7 0 1 0 595 821 A10 7 0 1 0 576 821 Z" fill="#B8B8B8" stroke="#2A2A2A" stroke-width="3.5"/><path d="M542 700 L542 731 L534 777" fill="none" stroke="#2A2A2A" stroke-width="21.95"/><path d="M542 700 L542 731 L534 777" fill="none" stroke="#D6D6D6" stroke-width="14.95"/><path d="M523 781 A10 7 0 1 0 543 781 A10 7 0 1 0 523 781 Z" fill="#B8B8B8" stroke="#2A2A2A" stroke-width="3.5"/><path d="M589 617 L613 647" fill="none" stroke="#2A2A2A" stroke-width="20"/><path d="M589 617 L613 647" fill="none" stroke="#D6D6D6" stroke-width="13"/><path d="M613 647 L603 682" fill="none" stroke="#2A2A2A" stroke-width="18.96"/><path d="M613 647 L603 682" fill="none" stroke="#D6D6D6" stroke-width="11.96"/><path d="M595 682 A8 8 0 1 0 611 682 A8 8 0 1 0 595 682 Z" fill="#FFFFFF" stroke="#2A2A2A" stroke-width="3.5"/><path d="M531 617 L500 610" fill="none" stroke="#2A2A2A" stroke-width="20"/><path d="M531 617 L500 610" fill="none" stroke="#D6D6D6" stroke-width="13"/><path d="M500 610 L505 567" fill="none" stroke="#2A2A2A" stroke-width="18.96"/><path d="M500 610 L505 567" fill="none" stroke="#D6D6D6" stroke-width="11.96"/><path d="M497 567 A8 8 0 1 0 513 567 A8 8 0 1 0 497 567 Z" fill="#FFFFFF" stroke="#2A2A2A" stroke-width="3.5"/><path d="M539 585 A21 22 0 1 0 581 585 A21 22 0 1 0 539 585 Z" fill="#FFFFFF" stroke="#2A2A2A" stroke-width="4"/><path d="M539 582 Q560 553 581 582 Z" fill="#D6D6D6" stroke="#2A2A2A" stroke-width="4"/><path d="M545 581 L560 584 L575 581" fill="#B8B8B8" stroke="#2A2A2A" stroke-width="3"/><path d="M544 583 L560 589" fill="none" stroke="#2A2A2A" stroke-width="4"/><path d="M560 589 L576 583" fill="none" stroke="#2A2A2A" stroke-width="4"/><path d="M555 598 A5 4 0 1 0 565 598 A5 4 0 1 0 555 598 Z" fill="#2A2A2A" stroke="#2A2A2A" stroke-width="2"/><path d="M1050 611 L1050 603" fill="none" stroke="#2A2A2A" stroke-width="16.1"/><path d="M1050 611 L1050 603" fill="none" stroke="#FFFFFF" stroke-width="9.1"/><path d="M1021 617 L1079 617 L1068 700 L1032 700 Z" fill="#D6D6D6" stroke="#2A2A2A" stroke-width="4"/><path d="M1032 696 L1068 696" fill="none" stroke="#2A2A2A" stroke-width="8"/><path d="M1050 617 L1050 700" fill="none" stroke="#8A8A8A" stroke-width="2"/><path d="M1032 700 L1032 755 L1025 818" fill="none" stroke="#2A2A2A" stroke-width="21.95"/><path d="M1032 700 L1032 755 L1025 818" fill="none" stroke="#D6D6D6" stroke-width="14.95"/><path d="M1015 821 A10 7 0 1 0 1034 821 A10 7 0 1 0 1015 821 Z" fill="#B8B8B8" stroke="#2A2A2A" stroke-width="3.5"/><path d="M1068 700 L1068 731 L1076 777" fill="none" stroke="#2A2A2A" stroke-width="21.95"/><path d="M1068 700 L1068 731 L1076 777" fill="none" stroke="#D6D6D6" stroke-width="14.95"/><path d="M1067 781 A10 7 0 1 0 1087 781 A10 7 0 1 0 1067 781 Z" fill="#B8B8B8" stroke="#2A2A2A" stroke-width="3.5"/><path d="M1021 617 L997 647" fill="none" stroke="#2A2A2A" stroke-width="20"/><path d="M1021 617 L997 647" fill="none" stroke="#D6D6D6" stroke-width="13"/><path d="M997 647 L1007 682" fill="none" stroke="#2A2A2A" stroke-width="18.96"/><path d="M997 647 L1007 682" fill="none" stroke="#D6D6D6" stroke-width="11.96"/><path d="M999 682 A8 8 0 1 0 1015 682 A8 8 0 1 0 999 682 Z" fill="#FFFFFF" stroke="#2A2A2A" stroke-width="3.5"/><path d="M1079 617 L1110 610" fill="none" stroke="#2A2A2A" stroke-width="20"/><path d="M1079 617 L1110 610" fill="none" stroke="#D6D6D6" stroke-width="13"/><path d="M1110 610 L1105 567" fill="none" stroke="#2A2A2A" stroke-width="18.96"/><path d="M1110 610 L1105 567" fill="none" stroke="#D6D6D6" stroke-width="11.96"/><path d="M1097 567 A8 8 0 1 0 1113 567 A8 8 0 1 0 1097 567 Z" fill="#FFFFFF" stroke="#2A2A2A" stroke-width="3.5"/><path d="M1029 585 A21 22 0 1 0 1071 585 A21 22 0 1 0 1029 585 Z" fill="#FFFFFF" stroke="#2A2A2A" stroke-width="4"/><path d="M1029 582 Q1050 553 1071 582 Z" fill="#D6D6D6" stroke="#2A2A2A" stroke-width="4"/><path d="M1035 581 L1050 584 L1065 581" fill="#B8B8B8" stroke="#2A2A2A" stroke-width="3"/><path d="M1034 583 L1050 589" fill="none" stroke="#2A2A2A" stroke-width="4"/><path d="M1050 589 L1066 583" fill="none" stroke="#2A2A2A" stroke-width="4"/><path d="M1045 598 A5 4 0 1 0 1055 598 A5 4 0 1 0 1045 598 Z" fill="#2A2A2A" stroke="#2A2A2A" stroke-width="2"/><path d="M-40 140 Q800 250 1640 200" fill="none" stroke="#2A2A2A" stroke-width="3"/><path d="M140 165 L200 165 L210 179 L196 187 L192 231 L148 231 L144 187 L130 179 Z" fill="#FFFFFF" stroke="#2A2A2A" stroke-width="2.5"/><path d="M372 185 L388 185 L388 219 L400 229 L372 229 Z" fill="#B8B8B8" stroke="#2A2A2A" stroke-width="2.5"/><path d="M572 200 L608 200 L604 250 L592 250 L590 220 L588 250 L576 250 Z" fill="#D6D6D6" stroke="#2A2A2A" stroke-width="2.5"/><path d="M770 210 L830 210 L840 224 L826 232 L822 276 L778 276 L774 232 L760 224 Z" fill="#FFFFFF" stroke="#2A2A2A" stroke-width="2.5"/><path d="M1002 215 L1018 215 L1018 249 L1030 259 L1002 259 Z" fill="#B8B8B8" stroke="#2A2A2A" stroke-width="2.5"/><path d="M1202 215 L1238 215 L1234 265 L1222 265 L1220 235 L1218 265 L1206 265 Z" fill="#D6D6D6" stroke="#2A2A2A" stroke-width="2.5"/><path d="M1400 210 L1460 210 L1470 224 L1456 232 L1452 276 L1408 276 L1404 232 L1390 224 Z" fill="#FFFFFF" stroke="#2A2A2A" stroke-width="2.5"/><path d="M540 520 L528 549 L524 580 L522 611 L517 640 L501 659 L487 680 L477 704 L469 729 L491 741 L508 721 L523 700 L534 676 L543 650 L553 619 L566 590 L577 561 L580 530 Z" fill="#B8B8B8" stroke="#2A2A2A" stroke-width="3.5"/><path d="M475 732 L465 748" fill="none" stroke="#2A2A2A" stroke-width="3"/><path d="M480 735 L471 751" fill="none" stroke="#2A2A2A" stroke-width="3"/><path d="M485 738 L476 754" fill="none" stroke="#2A2A2A" stroke-width="3"/><path d="M530 529 A30 16 0 1 0 590 529 A30 16 0 1 0 530 529 Z" fill="#B8B8B8" stroke="#2A2A2A" stroke-width="3.5"/><path d="M560 525 L560 517" fill="none" stroke="#2A2A2A" stroke-width="26.25"/><path d="M560 525 L560 517" fill="none" stroke="#FFFFFF" stroke-width="19.25"/><path d="M613 515 L508 515 L527 360 L593 360 Z" fill="#FFFFFF" stroke="#2A2A2A" stroke-width="4"/><path d="M593 356 L527 356" fill="none" stroke="#2A2A2A" stroke-width="8"/><path d="M560 531 L560 360" fill="none" stroke="#8A8A8A" stroke-width="2"/><path d="M593 360 L610 241 L685 148" fill="none" stroke="#2A2A2A" stroke-width="38.625"/><path d="M593 360 L610 241 L685 148" fill="none" stroke="#FFFFFF" stroke-width="31.624999999999996"/><path d="M670 141 A21 14 0 1 0 711 141 A21 14 0 1 0 670 141 Z" fill="#B8B8B8" stroke="#2A2A2A" stroke-width="3.5"/><path d="M527 360 L523 248 L535 123" fill="none" stroke="#2A2A2A" stroke-width="38.625"/><path d="M527 360 L523 248 L535 123" fill="none" stroke="#FFFFFF" stroke-width="31.624999999999996"/><path d="M515 114 A21 14 0 1 0 556 114 A21 14 0 1 0 515 114 Z" fill="#B8B8B8" stroke="#2A2A2A" stroke-width="3.5"/><path d="M613 515 L685 548" fill="none" stroke="#2A2A2A" stroke-width="34.5"/><path d="M613 515 L685 548" fill="none" stroke="#FFFFFF" stroke-width="27.5"/><path d="M685 548 L735 498" fill="none" stroke="#2A2A2A" stroke-width="32.3"/><path d="M685 548 L735 498" fill="none" stroke="#E5172F" stroke-width="25.3"/><path d="M685 548 L735 498" fill="none" stroke="#2A2A2A" stroke-width="32.3"/><path d="M685 548 L735 498" fill="none" stroke="#E5172F" stroke-width="25.3"/><path d="M718 498 A17 17 0 1 0 752 498 A17 17 0 1 0 718 498 Z" fill="#FFFFFF" stroke="#2A2A2A" stroke-width="3.5"/><path d="M508 515 L423 523" fill="none" stroke="#2A2A2A" stroke-width="34.5"/><path d="M508 515 L423 523" fill="none" stroke="#FFFFFF" stroke-width="27.5"/><path d="M423 523 L373 448" fill="none" stroke="#2A2A2A" stroke-width="32.3"/><path d="M423 523 L373 448" fill="none" stroke="#FFFFFF" stroke-width="25.3"/><path d="M355 448 A17 17 0 1 0 390 448 A17 17 0 1 0 355 448 Z" fill="#FFFFFF" stroke="#2A2A2A" stroke-width="3.5"/><g transform="rotate(180 560 578.75)"><path d="M486 590 L506 577 L473 559 L511 557 L490 530 L522 540 L515 510 L540 529 L545 502 L560 525 L574 505 L580 529 L609 504 L598 540 L630 530 L609 557 L640 560 L614 577 L638 591 Z" fill="#2A2A2A" stroke="#2A2A2A" stroke-width="4"/><path d="M517 569 C515 604 540 629 560 633 C585 626 605 604 603 569 Z" fill="#FFFFFF" stroke="#2A2A2A" stroke-width="4"/><path d="M513 534 L515 551 L526 582 L538 551 L549 578 L560 551 L571 578 L583 551 L594 582 L605 551 L608 534 L560 521 Z" fill="#2A2A2A" stroke="#2A2A2A" stroke-width="3"/><path d="M537 524 L552 526 L545 576 L538 554 Z" fill="#B8B8B8" stroke="#2A2A2A" stroke-width="2.5"/><path d="M533 590 Q541 577 550 590 M571 590 Q579 577 588 590" fill="none" stroke="#2A2A2A" stroke-width="4"/><path d="M530 569 L552 577" fill="none" stroke="#2A2A2A" stroke-width="4"/><path d="M568 577 L590 569" fill="none" stroke="#2A2A2A" stroke-width="4"/><path d="M544 611 Q560 634 576 611 Z" fill="#FFFFFF" stroke="#2A2A2A" stroke-width="3.5"/></g><g transform="translate(373 475) rotate(180)"><g transform="translate(0 0) rotate(0) scale(1.25)"><path d="M-38 -22 L38 -22 L26 0 L-26 0 Z" fill="#FFFFFF" stroke="#2A2A2A" stroke-width="3.5"/><path d="M-36 -17 L36 -17" fill="none" stroke="#8A8A8A" stroke-width="2"/><path d="M-38 -48 L38 -48 L26 -26 L-26 -26 Z" fill="#D6D6D6" stroke="#2A2A2A" stroke-width="3.5"/><path d="M-36 -43 L36 -43" fill="none" stroke="#8A8A8A" stroke-width="2"/><path d="M-38 -74 L38 -74 L26 -52 L-26 -52 Z" fill="#FFFFFF" stroke="#2A2A2A" stroke-width="3.5"/><path d="M-36 -69 L36 -69" fill="none" stroke="#8A8A8A" stroke-width="2"/><path d="M-38 -100 L38 -100 L26 -78 L-26 -78 Z" fill="#D6D6D6" stroke="#2A2A2A" stroke-width="3.5"/><path d="M-36 -95 L36 -95" fill="none" stroke="#8A8A8A" stroke-width="2"/><path d="M-38 -126 L38 -126 L26 -104 L-26 -104 Z" fill="#FFFFFF" stroke="#2A2A2A" stroke-width="3.5"/><path d="M-36 -121 L36 -121" fill="none" stroke="#8A8A8A" stroke-width="2"/><path d="M-12 -134 c-10 -11.5 10 -15.333333333333334 0 -23 c-10 -7.666666666666667 10 -15.333333333333334 0 -23" fill="none" stroke="#8A8A8A" stroke-width="3"/><path d="M12 -140 c-10 -10 10 -13.333333333333334 0 -20 c-10 -6.666666666666667 10 -13.333333333333334 0 -20" fill="none" stroke="#8A8A8A" stroke-width="3"/></g></g><path d="M735 498 L773 455" fill="none" stroke="#2A2A2A" stroke-width="8.75"/><path d="M735 498 L788 483" fill="none" stroke="#2A2A2A" stroke-width="8.75"/><path d="M14 14 h1572 v872 h-1572 Z" fill="none" stroke="#2A2A2A" stroke-width="12"/><g transform="translate(1150 560) rotate(-6)"><path d="M240 0 L226 45 L245 101 L191 128 L205 205 L128 191 L121 291 L45 226 L0 340 L-45 226 L-92 222 L-128 191 L-187 187 L-191 128 L-268 111 L-226 45 L-315 0 L-226 -45 L-314 -130 L-191 -128 L-170 -170 L-128 -191 L-101 -245 L-45 -226 L0 -290 L45 -226 L121 -291 L128 -191 L240 -240 L191 -128 L222 -92 L226 -45 Z" fill="#D6D6D6" stroke="#2A2A2A" stroke-width="3"/><path d="M-260 -170 h520 v340 h-520 Z" fill="#FFFFFF" stroke="#2A2A2A" stroke-width="7"/><path d="M-260 -170 h520 v56 h-520 Z" fill="#2A2A2A" stroke="#2A2A2A" stroke-width="7"/><text x="-240" y="-130" font-family="Zen Kaku Gothic New, IBM Plex Mono, IPAGothic, sans-serif" font-size="28" fill="#FFFFFF" font-weight="bold">公開格付け　PUBLIC RATING</text><text x="-230" y="-60" font-family="Zen Kaku Gothic New, IBM Plex Mono, IPAGothic, sans-serif" font-size="44" fill="#2A2A2A" font-weight="bold">赤羽ジン　16歳</text><text x="-230" y="-20" font-family="Zen Kaku Gothic New, IBM Plex Mono, IPAGothic, sans-serif" font-size="28" fill="#8A8A8A" font-weight="bold">AKABA JIN, 16</text><text x="-230" y="40" font-family="Zen Kaku Gothic New, IBM Plex Mono, IPAGothic, sans-serif" font-size="28" fill="#2A2A2A" font-weight="bold">格付け RATING</text><path d="M-230 60 h460 v92 h-460 Z" fill="#FFFFFF" stroke="#2A2A2A" stroke-width="6"/><text x="0" y="138" font-family="Zen Kaku Gothic New, IBM Plex Mono, IPAGothic, sans-serif" font-size="88" fill="#2A2A2A" text-anchor="middle" font-weight="bold" letter-spacing="18">ZERO</text></g><text x="40" y="860" font-family="Zen Kaku Gothic New, IBM Plex Mono, IPAGothic, sans-serif" font-size="24" fill="#2E6BD6" font-weight="bold">格付けカード POP（スライドイン＋バウンド）</text></g></svg>
