<svg xmlns="http://www.w3.org/2000/svg" viewBox="0 0 1600 900"><rect x="0" y="0" width="1600" height="900" fill="#FFFFFF"/><g stroke-linejoin="round" stroke-linecap="round"><path d="M0 0 L1600 0 L1600 90 L1510 90 L871 396 L729 396 L90 90 L0 90 Z" fill="#4A4A4A"/><path d="M280 416 Q680 -260 1440 426" fill="none" stroke="#B8B8B8" stroke-width="26"/><path d="M280 416 Q680 -260 1440 426" fill="none" stroke="#FFFFFF" stroke-width="10"/><path d="M776 477 L-760 940" fill="none" stroke="#D6D6D6" stroke-width="2"/><path d="M780 477 L-500 940" fill="none" stroke="#D6D6D6" stroke-width="2"/><path d="M784 477 L-240 940" fill="none" stroke="#D6D6D6" stroke-width="2"/><path d="M788 477 L20 940" fill="none" stroke="#D6D6D6" stroke-width="2"/><path d="M792 477 L280 940" fill="none" stroke="#D6D6D6" stroke-width="2"/><path d="M796 477 L540 940" fill="none" stroke="#D6D6D6" stroke-width="2"/><path d="M800 477 L800 940" fill="none" stroke="#D6D6D6" stroke-width="2"/><path d="M804 477 L1060 940" fill="none" stroke="#D6D6D6" stroke-width="2"/><path d="M808 477 L1320 940" fill="none" stroke="#D6D6D6" stroke-width="2"/><path d="M812 477 L1580 940" fill="none" stroke="#D6D6D6" stroke-width="2"/><path d="M816 477 L1840 940" fill="none" stroke="#D6D6D6" stroke-width="2"/><path d="M820 477 L2100 940" fill="none" stroke="#D6D6D6" stroke-width="2"/><path d="M824 477 L2360 940" fill="none" stroke="#D6D6D6" stroke-width="2"/><path d="M161 853 L1439 853" fill="none" stroke="#D6D6D6" stroke-width="2"/><path d="M360 721 L1240 721" fill="none" stroke="#D6D6D6" stroke-width="2"/><path d="M488 637 L1112 637" fill="none" stroke="#D6D6D6" stroke-width="2"/><path d="M580 576 L1020 576" fill="none" stroke="#D6D6D6" stroke-width="2"/><path d="M644 533 L956 533" fill="none" stroke="#D6D6D6" stroke-width="2"/><path d="M0 90 L90 90 L729 396 L729 477 L90 900 L0 900 Z" fill="#FFFFFF" stroke="#2A2A2A" stroke-width="3"/><path d="M90 300 L729 417" fill="none" stroke="#8A8A8A" stroke-width="2"/><path d="M90 200 L729 407" fill="none" stroke="#8A8A8A" stroke-width="2"/><path d="M90 90 L90 900" fill="none" stroke="#8A8A8A" stroke-width="2"/><path d="M133 167 L273 222 L273 289 L133 251 Z" fill="#B8B8B8" stroke="#2A2A2A" stroke-width="2"/><path d="M292 552 L399 526 L273 437 L133 439 Z" fill="#FFFFFF" stroke="#2A2A2A" stroke-width="3"/><path d="M319 546 L346 539 L203 438 L168 439 Z" fill="#D6D6D6"/><path d="M373 533 L399 526 L273 437 L238 438 Z" fill="#D6D6D6"/><path d="M292 552 Q306 559 319 546 Q332 552 346 539 Q359 546 373 533 Q386 539 399 526 " fill="#FFFFFF" stroke="#2A2A2A" stroke-width="3"/><path d="M244 674 L361 623 L361 779 L244 872 Z" fill="#D6D6D6" stroke="#2A2A2A" stroke-width="2.5"/><path d="M303 192 L303 759" fill="none" stroke="#8A8A8A" stroke-width="2"/><path d="M445 516 L514 499 L424 435 L333 437 Z" fill="#FFFFFF" stroke="#2A2A2A" stroke-width="3"/><path d="M462 511 L479 507 L378 436 L356 436 Z" fill="#D6D6D6"/><path d="M497 503 L514 499 L424 435 L401 436 Z" fill="#D6D6D6"/><path d="M445 516 Q453 520 462 511 Q471 516 479 507 Q488 511 497 503 Q505 507 514 499 " fill="#FFFFFF" stroke="#2A2A2A" stroke-width="3"/><path d="M411 601 L487 568 L487 679 L411 739 Z" fill="#D6D6D6" stroke="#2A2A2A" stroke-width="2.5"/><path d="M445 260 L445 665" fill="none" stroke="#8A8A8A" stroke-width="2"/><path d="M466 298 L529 323 L529 357 L466 341 Z" fill="#B8B8B8" stroke="#2A2A2A" stroke-width="2"/><path d="M546 491 L594 480 L529 434 L466 435 Z" fill="#FFFFFF" stroke="#2A2A2A" stroke-width="3"/><path d="M558 488 L570 485 L498 434 L482 434 Z" fill="#D6D6D6"/><path d="M582 482 L594 480 L529 434 L513 434 Z" fill="#D6D6D6"/><path d="M546 491 Q552 494 558 488 Q564 491 570 485 Q576 488 582 482 Q588 485 594 480 " fill="#FFFFFF" stroke="#2A2A2A" stroke-width="3"/><path d="M522 552 L574 529 L574 609 L522 651 Z" fill="#D6D6D6" stroke="#2A2A2A" stroke-width="2.5"/><path d="M544 308 L544 599" fill="none" stroke="#8A8A8A" stroke-width="2"/><path d="M617 474 L651 466 L604 433 L560 433 Z" fill="#FFFFFF" stroke="#2A2A2A" stroke-width="3"/><path d="M626 472 L634 470 L582 433 L571 433 Z" fill="#D6D6D6"/><path d="M643 468 L651 466 L604 433 L593 433 Z" fill="#D6D6D6"/><path d="M617 474 Q622 476 626 472 Q630 474 634 470 Q638 472 643 468 Q647 470 651 466 " fill="#FFFFFF" stroke="#2A2A2A" stroke-width="3"/><path d="M600 518 L637 502 L637 560 L600 589 Z" fill="#D6D6D6" stroke="#2A2A2A" stroke-width="2.5"/><path d="M615 342 L615 552" fill="none" stroke="#8A8A8A" stroke-width="2"/><path d="M626 362 L657 374 L657 392 L626 384 Z" fill="#B8B8B8" stroke="#2A2A2A" stroke-width="2"/><path d="M668 462 L691 456 L657 432 L626 432 Z" fill="#FFFFFF" stroke="#2A2A2A" stroke-width="3"/><path d="M674 460 L680 459 L642 432 L634 432 Z" fill="#D6D6D6"/><path d="M685 458 L691 456 L657 432 L649 432 Z" fill="#D6D6D6"/><path d="M668 462 Q671 463 674 460 Q677 462 680 459 Q683 460 685 458 Q688 459 691 456 " fill="#FFFFFF" stroke="#2A2A2A" stroke-width="3"/><path d="M656 494 L681 482 L681 525 L656 545 Z" fill="#D6D6D6" stroke="#2A2A2A" stroke-width="2.5"/><path d="M665 365 L665 519" fill="none" stroke="#8A8A8A" stroke-width="2"/><path d="M704 453 L720 449 L695 431 L673 432 Z" fill="#FFFFFF" stroke="#2A2A2A" stroke-width="3"/><path d="M708 452 L712 451 L684 432 L679 432 Z" fill="#D6D6D6"/><path d="M716 450 L720 449 L695 431 L689 432 Z" fill="#D6D6D6"/><path d="M704 453 Q706 454 708 452 Q710 453 712 451 Q714 452 716 450 Q718 451 720 449 " fill="#FFFFFF" stroke="#2A2A2A" stroke-width="3"/><path d="M694 476 L712 469 L712 500 L694 514 Z" fill="#D6D6D6" stroke="#2A2A2A" stroke-width="2.5"/><path d="M701 382 L701 496" fill="none" stroke="#8A8A8A" stroke-width="2"/><path d="M707 393 L725 400 L725 410 L707 405 Z" fill="#B8B8B8" stroke="#2A2A2A" stroke-width="2"/><path d="M729 447 L743 444 L725 431 L707 431 Z" fill="#FFFFFF" stroke="#2A2A2A" stroke-width="3"/><path d="M732 446 L736 445 L716 431 L711 431 Z" fill="#D6D6D6"/><path d="M739 445 L743 444 L725 431 L720 431 Z" fill="#D6D6D6"/><path d="M729 447 Q731 448 732 446 Q734 447 736 445 Q738 446 739 445 Q741 445 743 444 " fill="#FFFFFF" stroke="#2A2A2A" stroke-width="3"/><path d="M722 464 L737 458 L737 480 L722 492 Z" fill="#D6D6D6" stroke="#2A2A2A" stroke-width="2.5"/><path d="M1600 90 L1510 90 L871 396 L871 477 L1510 900 L1600 900 Z" fill="#FFFFFF" stroke="#2A2A2A" stroke-width="3"/><path d="M1510 300 L871 417" fill="none" stroke="#8A8A8A" stroke-width="2"/><path d="M1510 200 L871 407" fill="none" stroke="#8A8A8A" stroke-width="2"/><path d="M1510 90 L1510 900" fill="none" stroke="#8A8A8A" stroke-width="2"/><path d="M1467 167 L1327 222 L1327 289 L1467 251 Z" fill="#B8B8B8" stroke="#2A2A2A" stroke-width="2"/><path d="M1308 552 L1201 526 L1327 437 L1467 439 Z" fill="#FFFFFF" stroke="#2A2A2A" stroke-width="3"/><path d="M1281 546 L1254 539 L1397 438 L1432 439 Z" fill="#D6D6D6"/><path d="M1227 533 L1201 526 L1327 437 L1362 438 Z" fill="#D6D6D6"/><path d="M1308 552 Q1294 559 1281 546 Q1268 552 1254 539 Q1241 546 1227 533 Q1214 539 1201 526 " fill="#FFFFFF" stroke="#2A2A2A" stroke-width="3"/><path d="M1356 674 L1239 623 L1239 779 L1356 872 Z" fill="#D6D6D6" stroke="#2A2A2A" stroke-width="2.5"/><path d="M1297 192 L1297 759" fill="none" stroke="#8A8A8A" stroke-width="2"/><path d="M1155 516 L1086 499 L1176 435 L1267 437 Z" fill="#FFFFFF" stroke="#2A2A2A" stroke-width="3"/><path d="M1138 511 L1121 507 L1222 436 L1244 436 Z" fill="#D6D6D6"/><path d="M1103 503 L1086 499 L1176 435 L1199 436 Z" fill="#D6D6D6"/><path d="M1155 516 Q1147 520 1138 511 Q1129 516 1121 507 Q1112 511 1103 503 Q1095 507 1086 499 " fill="#FFFFFF" stroke="#2A2A2A" stroke-width="3"/><path d="M1189 601 L1113 568 L1113 679 L1189 739 Z" fill="#D6D6D6" stroke="#2A2A2A" stroke-width="2.5"/><path d="M1155 260 L1155 665" fill="none" stroke="#8A8A8A" stroke-width="2"/><path d="M1134 298 L1071 323 L1071 357 L1134 341 Z" fill="#B8B8B8" stroke="#2A2A2A" stroke-width="2"/><path d="M1054 491 L1006 480 L1071 434 L1134 435 Z" fill="#FFFFFF" stroke="#2A2A2A" stroke-width="3"/><path d="M1042 488 L1030 485 L1102 434 L1118 434 Z" fill="#D6D6D6"/><path d="M1018 482 L1006 480 L1071 434 L1087 434 Z" fill="#D6D6D6"/><path d="M1054 491 Q1048 494 1042 488 Q1036 491 1030 485 Q1024 488 1018 482 Q1012 485 1006 480 " fill="#FFFFFF" stroke="#2A2A2A" stroke-width="3"/><path d="M1078 552 L1026 529 L1026 609 L1078 651 Z" fill="#D6D6D6" stroke="#2A2A2A" stroke-width="2.5"/><path d="M1056 308 L1056 599" fill="none" stroke="#8A8A8A" stroke-width="2"/><path d="M983 474 L949 466 L996 433 L1040 433 Z" fill="#FFFFFF" stroke="#2A2A2A" stroke-width="3"/><path d="M974 472 L966 470 L1018 433 L1029 433 Z" fill="#D6D6D6"/><path d="M957 468 L949 466 L996 433 L1007 433 Z" fill="#D6D6D6"/><path d="M983 474 Q978 476 974 472 Q970 474 966 470 Q962 472 957 468 Q953 470 949 466 " fill="#FFFFFF" stroke="#2A2A2A" stroke-width="3"/><path d="M1000 518 L963 502 L963 560 L1000 589 Z" fill="#D6D6D6" stroke="#2A2A2A" stroke-width="2.5"/><path d="M985 342 L985 552" fill="none" stroke="#8A8A8A" stroke-width="2"/><path d="M974 362 L943 374 L943 392 L974 384 Z" fill="#B8B8B8" stroke="#2A2A2A" stroke-width="2"/><path d="M932 462 L909 456 L943 432 L974 432 Z" fill="#FFFFFF" stroke="#2A2A2A" stroke-width="3"/><path d="M926 460 L920 459 L958 432 L966 432 Z" fill="#D6D6D6"/><path d="M915 458 L909 456 L943 432 L951 432 Z" fill="#D6D6D6"/><path d="M932 462 Q929 463 926 460 Q923 462 920 459 Q917 460 915 458 Q912 459 909 456 " fill="#FFFFFF" stroke="#2A2A2A" stroke-width="3"/><path d="M944 494 L919 482 L919 525 L944 545 Z" fill="#D6D6D6" stroke="#2A2A2A" stroke-width="2.5"/><path d="M935 365 L935 519" fill="none" stroke="#8A8A8A" stroke-width="2"/><path d="M896 453 L880 449 L905 431 L927 432 Z" fill="#FFFFFF" stroke="#2A2A2A" stroke-width="3"/><path d="M892 452 L888 451 L916 432 L921 432 Z" fill="#D6D6D6"/><path d="M884 450 L880 449 L905 431 L911 432 Z" fill="#D6D6D6"/><path d="M896 453 Q894 454 892 452 Q890 453 888 451 Q886 452 884 450 Q882 451 880 449 " fill="#FFFFFF" stroke="#2A2A2A" stroke-width="3"/><path d="M906 476 L888 469 L888 500 L906 514 Z" fill="#D6D6D6" stroke="#2A2A2A" stroke-width="2.5"/><path d="M899 382 L899 496" fill="none" stroke="#8A8A8A" stroke-width="2"/><path d="M893 393 L875 400 L875 410 L893 405 Z" fill="#B8B8B8" stroke="#2A2A2A" stroke-width="2"/><path d="M871 447 L857 444 L875 431 L893 431 Z" fill="#FFFFFF" stroke="#2A2A2A" stroke-width="3"/><path d="M868 446 L864 445 L884 431 L889 431 Z" fill="#D6D6D6"/><path d="M861 445 L857 444 L875 431 L880 431 Z" fill="#D6D6D6"/><path d="M871 447 Q869 448 868 446 Q866 447 864 445 Q862 446 861 445 Q859 445 857 444 " fill="#FFFFFF" stroke="#2A2A2A" stroke-width="3"/><path d="M878 464 L863 458 L863 480 L878 492 Z" fill="#D6D6D6" stroke="#2A2A2A" stroke-width="2.5"/><path d="M729 406 h142 v71 h-142 Z" fill="#D6D6D6" stroke="#2A2A2A" stroke-width="2"/><path d="M749 426 h40 v26 h-40 Z" fill="#B8B8B8" stroke="#2A2A2A" stroke-width="2"/><path d="M801 436 h46 v30 h-46 Z" fill="#B8B8B8" stroke="#2A2A2A" stroke-width="2"/><path d="M303 339 Q800 402 1297 339" fill="none" stroke="#B8B8B8" stroke-width="2.5"/><path d="M469 357 L469 366" fill="none" stroke="#B8B8B8" stroke-width="2"/><path d="M458 365 h21 v5 h-21 Z" fill="#2A2A2A" stroke="#2A2A2A" stroke-width="2"/><path d="M450 392 A19 24 0 1 0 488 392 A19 24 0 1 0 450 392 Z" fill="#FFFFFF" stroke="#2A2A2A" stroke-width="3"/><path d="M451 385 Q468.6666666666667 381 487 385 M451 399 Q468.6666666666667 396 487 399" fill="none" stroke="#8A8A8A" stroke-width="2"/><path d="M634 367 L634 377" fill="none" stroke="#B8B8B8" stroke-width="2"/><path d="M624 375 h21 v5 h-21 Z" fill="#2A2A2A" stroke="#2A2A2A" stroke-width="2"/><path d="M615 403 A19 24 0 1 0 653 403 A19 24 0 1 0 615 403 Z" fill="#FFFFFF" stroke="#2A2A2A" stroke-width="3"/><path d="M616 396 Q634.3333333333334 392 652 396 M616 410 Q634.3333333333334 406 652 410" fill="none" stroke="#8A8A8A" stroke-width="2"/><path d="M800 371 L800 380" fill="none" stroke="#B8B8B8" stroke-width="2"/><path d="M789 379 h21 v5 h-21 Z" fill="#2A2A2A" stroke="#2A2A2A" stroke-width="2"/><path d="M781 406 A19 24 0 1 0 819 406 A19 24 0 1 0 781 406 Z" fill="#FFFFFF" stroke="#2A2A2A" stroke-width="3"/><path d="M782 399 Q800 395 818 399 M782 413 Q800 410 818 413" fill="none" stroke="#8A8A8A" stroke-width="2"/><path d="M966 367 L966 377" fill="none" stroke="#B8B8B8" stroke-width="2"/><path d="M955 375 h21 v5 h-21 Z" fill="#2A2A2A" stroke="#2A2A2A" stroke-width="2"/><path d="M947 403 A19 24 0 1 0 985 403 A19 24 0 1 0 947 403 Z" fill="#FFFFFF" stroke="#2A2A2A" stroke-width="3"/><path d="M948 396 Q965.6666666666667 392 984 396 M948 410 Q965.6666666666667 406 984 410" fill="none" stroke="#8A8A8A" stroke-width="2"/><path d="M1131 357 L1131 366" fill="none" stroke="#B8B8B8" stroke-width="2"/><path d="M1121 365 h21 v5 h-21 Z" fill="#2A2A2A" stroke="#2A2A2A" stroke-width="2"/><path d="M1112 392 A19 24 0 1 0 1150 392 A19 24 0 1 0 1112 392 Z" fill="#FFFFFF" stroke="#2A2A2A" stroke-width="3"/><path d="M1113 385 Q1131.3333333333335 381 1149 385 M1113 399 Q1131.3333333333335 396 1149 399" fill="none" stroke="#8A8A8A" stroke-width="2"/><path d="M502 375 Q800 412.8 1098 375" fill="none" stroke="#B8B8B8" stroke-width="2.5"/><path d="M621 387 L621 393" fill="none" stroke="#B8B8B8" stroke-width="2"/><path d="M615 392 h13 v3 h-13 Z" fill="#2A2A2A" stroke="#2A2A2A" stroke-width="2"/><path d="M610 409 A11 14 0 1 0 633 409 A11 14 0 1 0 610 409 Z" fill="#FFFFFF" stroke="#2A2A2A" stroke-width="3"/><path d="M610 404 Q621.2000000000002 402 632 404 M610 413 Q621.2000000000002 411 632 413" fill="none" stroke="#8A8A8A" stroke-width="2"/><path d="M740 393 L740 399" fill="none" stroke="#B8B8B8" stroke-width="2"/><path d="M734 398 h13 v3 h-13 Z" fill="#2A2A2A" stroke="#2A2A2A" stroke-width="2"/><path d="M729 415 A11 14 0 1 0 752 415 A11 14 0 1 0 729 415 Z" fill="#FFFFFF" stroke="#2A2A2A" stroke-width="3"/><path d="M730 410 Q740.4000000000001 408 751 410 M730 419 Q740.4000000000001 417 751 419" fill="none" stroke="#8A8A8A" stroke-width="2"/><path d="M860 393 L860 399" fill="none" stroke="#B8B8B8" stroke-width="2"/><path d="M853 398 h13 v3 h-13 Z" fill="#2A2A2A" stroke="#2A2A2A" stroke-width="2"/><path d="M848 415 A11 14 0 1 0 871 415 A11 14 0 1 0 848 415 Z" fill="#FFFFFF" stroke="#2A2A2A" stroke-width="3"/><path d="M849 410 Q859.6 408 870 410 M849 419 Q859.6 417 870 419" fill="none" stroke="#8A8A8A" stroke-width="2"/><path d="M979 387 L979 393" fill="none" stroke="#B8B8B8" stroke-width="2"/><path d="M972 392 h13 v3 h-13 Z" fill="#2A2A2A" stroke="#2A2A2A" stroke-width="2"/><path d="M967 409 A11 14 0 1 0 990 409 A11 14 0 1 0 967 409 Z" fill="#FFFFFF" stroke="#2A2A2A" stroke-width="3"/><path d="M968 404 Q978.8000000000002 402 990 404 M968 413 Q978.8000000000002 411 990 413" fill="none" stroke="#8A8A8A" stroke-width="2"/><path d="M615 396 Q800 419.4 985 396" fill="none" stroke="#B8B8B8" stroke-width="2.5"/><path d="M689 403 L689 407" fill="none" stroke="#B8B8B8" stroke-width="2"/><path d="M685 407 h8 v2 h-8 Z" fill="#2A2A2A" stroke="#2A2A2A" stroke-width="2"/><path d="M682 417 A7 9 0 1 0 696 417 A7 9 0 1 0 682 417 Z" fill="#FFFFFF" stroke="#2A2A2A" stroke-width="3"/><path d="M682 414 Q689.0000000000001 413 696 414 M682 419 Q689.0000000000001 418 696 419" fill="none" stroke="#8A8A8A" stroke-width="2"/><path d="M763 407 L763 411" fill="none" stroke="#B8B8B8" stroke-width="2"/><path d="M759 410 h8 v2 h-8 Z" fill="#2A2A2A" stroke="#2A2A2A" stroke-width="2"/><path d="M756 420 A7 9 0 1 0 770 420 A7 9 0 1 0 756 420 Z" fill="#FFFFFF" stroke="#2A2A2A" stroke-width="3"/><path d="M756 418 Q763 417 770 418 M756 423 Q763 422 770 423" fill="none" stroke="#8A8A8A" stroke-width="2"/><path d="M837 407 L837 411" fill="none" stroke="#B8B8B8" stroke-width="2"/><path d="M833 410 h8 v2 h-8 Z" fill="#2A2A2A" stroke="#2A2A2A" stroke-width="2"/><path d="M830 420 A7 9 0 1 0 844 420 A7 9 0 1 0 830 420 Z" fill="#FFFFFF" stroke="#2A2A2A" stroke-width="3"/><path d="M830 418 Q837 417 844 418 M830 423 Q837 422 844 423" fill="none" stroke="#8A8A8A" stroke-width="2"/><path d="M911 403 L911 407" fill="none" stroke="#B8B8B8" stroke-width="2"/><path d="M907 407 h8 v2 h-8 Z" fill="#2A2A2A" stroke="#2A2A2A" stroke-width="2"/><path d="M904 417 A7 9 0 1 0 918 417 A7 9 0 1 0 904 417 Z" fill="#FFFFFF" stroke="#2A2A2A" stroke-width="3"/><path d="M904 414 Q911 413 918 414 M904 419 Q911 418 918 419" fill="none" stroke="#8A8A8A" stroke-width="2"/><path d="M720 498 L720 490" fill="none" stroke="#2A2A2A" stroke-width="13.3"/><path d="M720 498 L720 490" fill="none" stroke="#FFFFFF" stroke-width="6.3"/><path d="M740 502 L700 502 L708 560 L732 560 Z" fill="#D6D6D6" stroke="#2A2A2A" stroke-width="4"/><path d="M732 556 L708 556" fill="none" stroke="#2A2A2A" stroke-width="8"/><path d="M720 504 L720 560" fill="none" stroke="#8A8A8A" stroke-width="2"/><path d="M732 560 L733 599 L738 642" fill="none" stroke="#2A2A2A" stroke-width="17.35"/><path d="M732 560 L733 599 L738 642" fill="none" stroke="#D6D6D6" stroke-width="10.35"/><path d="M731 645 A7 5 0 1 0 745 645 A7 5 0 1 0 731 645 Z" fill="#B8B8B8" stroke="#2A2A2A" stroke-width="3.5"/><path d="M708 560 L707 582 L702 614" fill="none" stroke="#2A2A2A" stroke-width="17.35"/><path d="M708 560 L707 582 L702 614" fill="none" stroke="#D6D6D6" stroke-width="10.35"/><path d="M694 616 A7 5 0 1 0 708 616 A7 5 0 1 0 694 616 Z" fill="#B8B8B8" stroke="#2A2A2A" stroke-width="3.5"/><path d="M740 502 L757 523" fill="none" stroke="#2A2A2A" stroke-width="16"/><path d="M740 502 L757 523" fill="none" stroke="#D6D6D6" stroke-width="9"/><path d="M757 523 L750 547" fill="none" stroke="#2A2A2A" stroke-width="15.280000000000001"/><path d="M757 523 L750 547" fill="none" stroke="#D6D6D6" stroke-width="8.280000000000001"/><path d="M745 547 A6 6 0 1 0 756 547 A6 6 0 1 0 745 547 Z" fill="#FFFFFF" stroke="#2A2A2A" stroke-width="3.5"/><path d="M700 502 L678 497" fill="none" stroke="#2A2A2A" stroke-width="16"/><path d="M700 502 L678 497" fill="none" stroke="#D6D6D6" stroke-width="9"/><path d="M678 497 L681 467" fill="none" stroke="#2A2A2A" stroke-width="15.280000000000001"/><path d="M678 497 L681 467" fill="none" stroke="#D6D6D6" stroke-width="8.280000000000001"/><path d="M676 467 A6 6 0 1 0 687 467 A6 6 0 1 0 676 467 Z" fill="#FFFFFF" stroke="#2A2A2A" stroke-width="3.5"/><path d="M705 479 A15 16 0 1 0 735 479 A15 16 0 1 0 705 479 Z" fill="#FFFFFF" stroke="#2A2A2A" stroke-width="4"/><path d="M705 477 Q720 457 735 477 Z" fill="#D6D6D6" stroke="#2A2A2A" stroke-width="4"/><path d="M710 477 L720 479 L731 477" fill="#B8B8B8" stroke="#2A2A2A" stroke-width="3"/><path d="M706 476 L722 482" fill="none" stroke="#2A2A2A" stroke-width="4"/><path d="M718 482 L734 476" fill="none" stroke="#2A2A2A" stroke-width="4"/><path d="M717 489 A3 3 0 1 0 723 489 A3 3 0 1 0 717 489 Z" fill="#2A2A2A" stroke="#2A2A2A" stroke-width="2"/><path d="M880 503 L880 495" fill="none" stroke="#2A2A2A" stroke-width="13.3"/><path d="M880 503 L880 495" fill="none" stroke="#FFFFFF" stroke-width="6.3"/><path d="M860 507 L900 507 L892 565 L868 565 Z" fill="#D6D6D6" stroke="#2A2A2A" stroke-width="4"/><path d="M868 561 L892 561" fill="none" stroke="#2A2A2A" stroke-width="8"/><path d="M880 509 L880 565" fill="none" stroke="#8A8A8A" stroke-width="2"/><path d="M868 565 L867 604 L862 647" fill="none" stroke="#2A2A2A" stroke-width="17.35"/><path d="M868 565 L867 604 L862 647" fill="none" stroke="#D6D6D6" stroke-width="10.35"/><path d="M855 650 A7 5 0 1 0 869 650 A7 5 0 1 0 855 650 Z" fill="#B8B8B8" stroke="#2A2A2A" stroke-width="3.5"/><path d="M892 565 L893 587 L898 619" fill="none" stroke="#2A2A2A" stroke-width="17.35"/><path d="M892 565 L893 587 L898 619" fill="none" stroke="#D6D6D6" stroke-width="10.35"/><path d="M892 621 A7 5 0 1 0 906 621 A7 5 0 1 0 892 621 Z" fill="#B8B8B8" stroke="#2A2A2A" stroke-width="3.5"/><path d="M860 507 L843 528" fill="none" stroke="#2A2A2A" stroke-width="16"/><path d="M860 507 L843 528" fill="none" stroke="#D6D6D6" stroke-width="9"/><path d="M843 528 L850 552" fill="none" stroke="#2A2A2A" stroke-width="15.280000000000001"/><path d="M843 528 L850 552" fill="none" stroke="#D6D6D6" stroke-width="8.280000000000001"/><path d="M844 552 A6 6 0 1 0 855 552 A6 6 0 1 0 844 552 Z" fill="#FFFFFF" stroke="#2A2A2A" stroke-width="3.5"/><path d="M900 507 L922 502" fill="none" stroke="#2A2A2A" stroke-width="16"/><path d="M900 507 L922 502" fill="none" stroke="#D6D6D6" stroke-width="9"/><path d="M922 502 L919 472" fill="none" stroke="#2A2A2A" stroke-width="15.280000000000001"/><path d="M922 502 L919 472" fill="none" stroke="#D6D6D6" stroke-width="8.280000000000001"/><path d="M913 472 A6 6 0 1 0 924 472 A6 6 0 1 0 913 472 Z" fill="#FFFFFF" stroke="#2A2A2A" stroke-width="3.5"/><path d="M865 484 A15 16 0 1 0 895 484 A15 16 0 1 0 865 484 Z" fill="#FFFFFF" stroke="#2A2A2A" stroke-width="4"/><path d="M865 482 Q880 462 895 482 Z" fill="#D6D6D6" stroke="#2A2A2A" stroke-width="4"/><path d="M870 482 L880 484 L891 482" fill="#B8B8B8" stroke="#2A2A2A" stroke-width="3"/><path d="M866 481 L882 487" fill="none" stroke="#2A2A2A" stroke-width="4"/><path d="M878 487 L894 481" fill="none" stroke="#2A2A2A" stroke-width="4"/><path d="M877 494 A3 3 0 1 0 883 494 A3 3 0 1 0 877 494 Z" fill="#2A2A2A" stroke="#2A2A2A" stroke-width="2"/><g transform="rotate(-35 170 900)"><path d="M122 900 L133 747 L207 747 L218 900 Z" fill="#D6D6D6" stroke="#2A2A2A" stroke-width="3"/><path d="M141 710 A29 32 0 1 0 199 710 A29 32 0 1 0 141 710 Z" fill="#FFFFFF" stroke="#2A2A2A" stroke-width="3"/></g><g transform="rotate(35 1440 900)"><path d="M1392 900 L1403 747 L1477 747 L1488 900 Z" fill="#D6D6D6" stroke="#2A2A2A" stroke-width="3"/><path d="M1411 710 A29 32 0 1 0 1469 710 A29 32 0 1 0 1411 710 Z" fill="#FFFFFF" stroke="#2A2A2A" stroke-width="3"/></g><g transform="rotate(-22 420 760)"><path d="M389 760 L396 661 L444 661 L451 760 Z" fill="#D6D6D6" stroke="#2A2A2A" stroke-width="3"/><path d="M401 637 A19 21 0 1 0 439 637 A19 21 0 1 0 401 637 Z" fill="#FFFFFF" stroke="#2A2A2A" stroke-width="3"/></g><g transform="rotate(22 1170 760)"><path d="M1139 760 L1146 661 L1194 661 L1201 760 Z" fill="#D6D6D6" stroke="#2A2A2A" stroke-width="3"/><path d="M1151 637 A19 21 0 1 0 1189 637 A19 21 0 1 0 1151 637 Z" fill="#FFFFFF" stroke="#2A2A2A" stroke-width="3"/></g><path d="M330 689 L560 689 M354 714 L506 714 M378 740 L452 740 M402 743 L398 743 " fill="none" stroke="#8A8A8A" stroke-width="3"/><path d="M1040 689 L1270 689 M1064 714 L1216 714 M1088 740 L1162 740 M1112 743 L1108 743 " fill="none" stroke="#8A8A8A" stroke-width="3"/><path d="M806 393 L819 391 L831 385 L842 375 L855 369 L871 362 L884 355 L895 345 L900 334 L907 340 L918 351 L930 359 L944 364 L956 345 L945 335 L932 328 L918 323 L900 315 L880 322 L866 329 L854 339 L845 350 L833 354 L819 354 L806 358 L794 366 Z" fill="#B8B8B8" stroke="#2A2A2A" stroke-width="3.5"/><path d="M947 359 L959 366" fill="none" stroke="#2A2A2A" stroke-width="3"/><path d="M950 354 L962 361" fill="none" stroke="#2A2A2A" stroke-width="3"/><path d="M953 349 L965 357" fill="none" stroke="#2A2A2A" stroke-width="3"/><path d="M778 383 A22 11 0 1 0 822 383 A22 11 0 1 0 778 383 Z" fill="#B8B8B8" stroke="#2A2A2A" stroke-width="3.5"/><path d="M800 379 L800 371" fill="none" stroke="#2A2A2A" stroke-width="28.559999999999995"/><path d="M800 379 L800 371" fill="none" stroke="#FFFFFF" stroke-width="21.559999999999995"/><path d="M859 392 L741 392 L764 560 L836 560 Z" fill="#FFFFFF" stroke="#2A2A2A" stroke-width="4"/><path d="M836 556 L764 556" fill="none" stroke="#2A2A2A" stroke-width="8"/><path d="M800 385 L800 560" fill="none" stroke="#8A8A8A" stroke-width="2"/><path d="M836 560 L837 672 L851 799" fill="none" stroke="#2A2A2A" stroke-width="42.419999999999995"/><path d="M836 560 L837 672 L851 799" fill="none" stroke="#FFFFFF" stroke-width="35.419999999999995"/><path d="M829 808 A23 15 0 1 0 875 808 A23 15 0 1 0 829 808 Z" fill="#B8B8B8" stroke="#2A2A2A" stroke-width="3.5"/><path d="M764 560 L763 623 L746 716" fill="none" stroke="#2A2A2A" stroke-width="42.419999999999995"/><path d="M764 560 L763 623 L746 716" fill="none" stroke="#FFFFFF" stroke-width="35.419999999999995"/><path d="M722 725 A23 15 0 1 0 768 725 A23 15 0 1 0 722 725 Z" fill="#B8B8B8" stroke="#2A2A2A" stroke-width="3.5"/><path d="M859 392 L907 453" fill="none" stroke="#2A2A2A" stroke-width="37.8"/><path d="M859 392 L907 453" fill="none" stroke="#FFFFFF" stroke-width="30.799999999999997"/><path d="M907 453 L888 523" fill="none" stroke="#2A2A2A" stroke-width="35.336"/><path d="M907 453 L888 523" fill="none" stroke="#E5172F" stroke-width="28.336"/><path d="M907 453 L888 523" fill="none" stroke="#2A2A2A" stroke-width="35.336"/><path d="M907 453 L888 523" fill="none" stroke="#E5172F" stroke-width="28.336"/><path d="M869 523 A19 19 0 1 0 907 523 A19 19 0 1 0 869 523 Z" fill="#FFFFFF" stroke="#2A2A2A" stroke-width="3.5"/><path d="M741 392 L678 377" fill="none" stroke="#2A2A2A" stroke-width="37.8"/><path d="M741 392 L678 377" fill="none" stroke="#FFFFFF" stroke-width="30.799999999999997"/><path d="M678 377 L688 289" fill="none" stroke="#2A2A2A" stroke-width="35.336"/><path d="M678 377 L688 289" fill="none" stroke="#FFFFFF" stroke-width="28.336"/><path d="M669 289 A19 19 0 1 0 707 289 A19 19 0 1 0 669 289 Z" fill="#FFFFFF" stroke="#2A2A2A" stroke-width="3.5"/><g><path d="M735 336 L753 324 L723 308 L757 306 L738 282 L767 292 L761 265 L782 282 L787 258 L800 278 L813 261 L818 282 L843 260 L833 292 L862 282 L843 306 L870 309 L847 324 L868 337 Z" fill="#2A2A2A" stroke="#2A2A2A" stroke-width="4"/><path d="M762 317 C760 348 782 370 800 373 C822 368 840 348 838 317 Z" fill="#FFFFFF" stroke="#2A2A2A" stroke-width="4"/><path d="M758 286 L760 302 L770 329 L780 302 L790 325 L800 302 L810 325 L820 302 L830 329 L840 302 L842 286 L800 275 Z" fill="#2A2A2A" stroke="#2A2A2A" stroke-width="3"/><path d="M779 277 L793 280 L787 324 L780 304 Z" fill="#B8B8B8" stroke="#2A2A2A" stroke-width="2.5"/><path d="M776 335 Q783 324 791 335 M809 335 Q817 324 824 335" fill="none" stroke="#2A2A2A" stroke-width="4"/><path d="M774 316 L793 324" fill="none" stroke="#2A2A2A" stroke-width="4"/><path d="M807 324 L826 316" fill="none" stroke="#2A2A2A" stroke-width="4"/><path d="M786 354 Q800 374 814 354 Z" fill="#FFFFFF" stroke="#2A2A2A" stroke-width="3.5"/></g><g transform="translate(688 278) rotate(0) scale(1.1)"><path d="M-38 -22 L38 -22 L26 0 L-26 0 Z" fill="#FFFFFF" stroke="#2A2A2A" stroke-width="3.5"/><path d="M-36 -17 L36 -17" fill="none" stroke="#8A8A8A" stroke-width="2"/><path d="M-38 -48 L38 -48 L26 -26 L-26 -26 Z" fill="#D6D6D6" stroke="#2A2A2A" stroke-width="3.5"/><path d="M-36 -43 L36 -43" fill="none" stroke="#8A8A8A" stroke-width="2"/><path d="M-38 -74 L38 -74 L26 -52 L-26 -52 Z" fill="#FFFFFF" stroke="#2A2A2A" stroke-width="3.5"/><path d="M-36 -69 L36 -69" fill="none" stroke="#8A8A8A" stroke-width="2"/><path d="M-38 -100 L38 -100 L26 -78 L-26 -78 Z" fill="#D6D6D6" stroke="#2A2A2A" stroke-width="3.5"/><path d="M-36 -95 L36 -95" fill="none" stroke="#8A8A8A" stroke-width="2"/><path d="M-38 -126 L38 -126 L26 -104 L-26 -104 Z" fill="#FFFFFF" stroke="#2A2A2A" stroke-width="3.5"/><path d="M-36 -121 L36 -121" fill="none" stroke="#8A8A8A" stroke-width="2"/><path d="M-12 -134 c-10 -11.5 10 -15.333333333333334 0 -23 c-10 -7.666666666666667 10 -15.333333333333334 0 -23" fill="none" stroke="#8A8A8A" stroke-width="3"/><path d="M12 -140 c-10 -10 10 -13.333333333333334 0 -20 c-10 -6.666666666666667 10 -13.333333333333334 0 -20" fill="none" stroke="#8A8A8A" stroke-width="3"/></g><path d="M260 80 h1080 v610 h-1080 Z" fill="none" stroke="#2E6BD6" stroke-width="3" stroke-dasharray="14 8"/><text x="268" y="70" font-family="Zen Kaku Gothic New, IBM Plex Mono, IPAGothic, sans-serif" font-size="24" fill="#2E6BD6" font-weight="bold">FOLLOW（後退移動・ジンとの距離キープ）</text><path d="M560 760 L380 860" fill="none" stroke="#2E6BD6" stroke-width="4"/><path d="M393 842 L380 860 L402 859" fill="none" stroke="#2E6BD6" stroke-width="4"/><path d="M1040 760 L1220 860" fill="none" stroke="#2E6BD6" stroke-width="4"/><path d="M1198 859 L1220 860 L1207 842" fill="none" stroke="#2E6BD6" stroke-width="4"/></g></svg>
