<svg xmlns="http://www.w3.org/2000/svg" viewBox="0 0 1600 900"><defs><g id="pg"><rect x="-50" y="-65" width="100" height="130" fill="#FFFFFF" stroke="#8A8A8A" stroke-width="2" vector-effect="non-scaling-stroke"/><path d="M-38 -40H38M-38 -24H38M-38 -8H38M-38 8H38M-38 24H38M-38 40H38M-30 -55V55" stroke="#B8B8B8" stroke-width="1" vector-effect="non-scaling-stroke"/></g><g id="pgi"><use href="#pg"/><text x="0" y="12" font-family="IBM Plex Mono, Zen Kaku Gothic New, IPAGothic, sans-serif" font-size="34" font-weight="700" fill="#E5172F" text-anchor="middle">−∞</text><path d="M-34 30H20" stroke="#E5172F" stroke-width="2" vector-effect="non-scaling-stroke"/></g><g id="pgb"><rect x="-50" y="-65" width="100" height="130" fill="#FFFFFF" stroke="#8A8A8A" stroke-width="2" stroke-dasharray="8 6" vector-effect="non-scaling-stroke"/></g></defs><rect width="1600" height="900" fill="#FFFFFF"/><path d="M0 560 L1600 560 L1600 900 L0 900Z" fill="#FFFFFF" stroke-linejoin="round" stroke-linecap="round"/><path d="M0 560H1600M0 566H1600M0 584H1600M0 614H1600M0 656H1600M0 710H1600M0 776H1600M0 854H1600M800 560L-880 900M800 560L-600 900M800 560L-320 900M800 560L-40 900M800 560L240 900M800 560L520 900M800 560L800 900M800 560L1080 900M800 560L1360 900M800 560L1640 900M800 560L1920 900M800 560L2200 900M800 560L2480 900" fill="none" stroke="#B8B8B8" stroke-width="2" stroke-linejoin="round" stroke-linecap="round"/><path d="M0 560H1600" fill="none" stroke="#8A8A8A" stroke-width="3" stroke-linejoin="round" stroke-linecap="round"/><ellipse cx="800" cy="740" rx="520" ry="120" fill="#D6D6D6"/><path d="M800 700 Q796 760 800 800" fill="none" stroke="#2A2A2A" stroke-width="47" stroke-linecap="round" stroke-linejoin="round"/><path d="M800 700 Q796 760 800 800" fill="none" stroke="#D6D6D6" stroke-width="40" stroke-linecap="round" stroke-linejoin="round"/><path d="M786 790 Q760 840 740 870M812 790 Q840 840 860 870" fill="none" stroke="#2A2A2A" stroke-width="25" stroke-linecap="round" stroke-linejoin="round"/><path d="M786 790 Q760 840 740 870M812 790 Q840 840 860 870" fill="none" stroke="#D6D6D6" stroke-width="18" stroke-linecap="round" stroke-linejoin="round"/><path d="M780 714 Q740 740 720 780" fill="none" stroke="#2A2A2A" stroke-width="21" stroke-linecap="round" stroke-linejoin="round"/><path d="M780 714 Q740 740 720 780" fill="none" stroke="#D6D6D6" stroke-width="14" stroke-linecap="round" stroke-linejoin="round"/><g transform="translate(820 714) rotate(58.8)"><rect x="0" y="-7" width="77.2" height="14" rx="7" fill="#E5172F" stroke="#2A2A2A" stroke-width="4"/><path d="M8.4 -4V4M14.4 -4V4M21 -4V4M27 -4V4M33.6 -4V4M39.6 -4V4M46.2 -4V4M52.2 -4V4M58.8 -4V4M64.8 -4V4M71.4 -4V4M77.4 -4V4" fill="none" stroke="#FFFFFF" stroke-width="2" stroke-linejoin="round" stroke-linecap="round"/></g><g transform="translate(800 650) rotate(-4) scale(0.5 0.5)"><path d="M-40 40 Q0 78 44 40 L54 70 Q0 108 -50 70Z" fill="#B8B8B8" stroke="#2A2A2A" stroke-width="4" stroke-linejoin="round" stroke-linecap="round"/><path d="M-8 44 L-6 58M12 44 L14 58" fill="none" stroke="#2A2A2A" stroke-width="3" stroke-linejoin="round" stroke-linecap="round"/><path d="M-38 -24 C-40 18 -18 50 6 54 C28 50 42 20 42 -24 C40 -56 -36 -56 -38 -24Z" fill="#FFFFFF" stroke="#2A2A2A" stroke-width="4" stroke-linejoin="round" stroke-linecap="round"/><path d="M-38 -6 Q-50 4 -38 16" fill="#FFFFFF" stroke="#2A2A2A" stroke-width="4" stroke-linejoin="round" stroke-linecap="round"/><path d="M-26 -8Q-14 -20 -2 -8M14 -8Q23 -18 32 -8" fill="none" stroke="#2A2A2A" stroke-width="5" stroke-linejoin="round" stroke-linecap="round"/><circle cx="-13" cy="-4" r="3" fill="#2A2A2A"/><circle cx="23" cy="-4" r="2.5" fill="#2A2A2A"/><path d="M-28 -30Q-16 -36 -4 -30M12 -30Q24 -36 34 -30" fill="none" stroke="#2A2A2A" stroke-width="6" stroke-linejoin="round" stroke-linecap="round"/><path d="M30 0L35 14L28 16" fill="none" stroke="#2A2A2A" stroke-width="3" stroke-linejoin="round" stroke-linecap="round"/><path d="M4 30Q12 26 18 30Q14 40 6 38Z" fill="#2A2A2A" stroke="#2A2A2A" stroke-width="3" stroke-linejoin="round" stroke-linecap="round"/><path d="M-46 -6L-64 -24L-44 -34L-70 -62L-34 -60L-44 -96L-10 -70L4 -108L18 -70L50 -94L42 -58L76 -60L50 -32L68 -16L42 -12L38 -30L24 -20L10 -36L-6 -20L-22 -34L-30 -14Z" fill="#4A4A4A" stroke="#2A2A2A" stroke-width="4" stroke-linejoin="round" stroke-linecap="round"/><path d="M10 -36L4 -64L18 -70L24 -20Z" fill="#B8B8B8" stroke="#2A2A2A" stroke-width="3" stroke-linejoin="round" stroke-linecap="round"/></g><path d="M380 -40 L1220 -40 L1220 250 L380 250Z" fill="#FFFFFF" stroke="#2A2A2A" stroke-width="6" stroke-linejoin="round" stroke-linecap="round"/><path d="M420 -40V250M520 -40V250M1080 -40V250M1180 -40V250" fill="none" stroke="#B8B8B8" stroke-width="3" stroke-linejoin="round" stroke-linecap="round"/><ellipse cx="800" cy="250" rx="420" ry="110" fill="#E5172F" stroke="#2A2A2A" stroke-width="6"/><ellipse cx="800" cy="250" rx="360" ry="88" fill="none" stroke="#FFFFFF" stroke-width="10"/><text x="800" y="296" font-family="Zen Kaku Gothic New, IBM Plex Mono, IPAGothic, sans-serif" font-size="130" font-weight="900" fill="#FFFFFF" text-anchor="middle" transform="translate(1600 0) scale(-1 1)">零</text><path d="M266.8 258.3l0 442.4M133.2 -70.2l0 260.5M108.7 41.7l0 290.9M303.5 70.8l0 449.5M272.3 85.6l0 348.6M182.3 161.8l0 378.5M123.4 50.6l0 192.8M293.3 -14.5l0 368.6M304.5 164.1l0 170.5M40 -81.9l0 312M101 51.4l0 478.3M50.7 108.6l0 329.6M233.5 266.2l0 226.9M97.9 87.9l0 172.9M228.9 -8.7l0 199.6M199.4 188.8l0 454.3M229.2 -1.9l0 390.8M32.4 237.4l0 305.7M146.2 145.3l0 228.1M148.8 286.8l0 346.6M85.7 -27.2l0 193.8M91.9 -17.1l0 408.3" fill="none" stroke="#2A2A2A" stroke-width="4" stroke-linejoin="round" stroke-linecap="round"/><path d="M1544.5 85l0 389M1290 275.3l0 333.9M1388.9 149.8l0 408.4M1409.2 15l0 342.9M1283.8 51.4l0 454.5M1346.6 288.5l0 277.6M1411.1 289.3l0 434.7M1269.8 -61.1l0 370.4M1316 -10.6l0 346.1M1495.3 273.9l0 377.5M1297.2 122.5l0 204.1M1493.3 56.1l0 222.7M1395.3 178.6l0 235.5M1435.8 -17.7l0 236M1347.4 -29.9l0 171.4M1345.7 295.5l0 403.4M1500.9 -6.1l0 396.2M1304.5 -48.7l0 303.4M1362.5 -79.6l0 172.8M1253.8 40.9l0 411.7M1572.7 -57.2l0 480.9M1382.8 213.7l0 188.1" fill="none" stroke="#2A2A2A" stroke-width="4" stroke-linejoin="round" stroke-linecap="round"/><text x="30" y="880" font-family="IBM Plex Mono, Zen Kaku Gothic New, IPAGothic, sans-serif" font-size="22" font-weight="700" fill="#2E6BD6" text-anchor="start" letter-spacing="1">CAM SHAKE (on impact)</text><text x="1570" y="880" font-family="IBM Plex Mono, Zen Kaku Gothic New, IPAGothic, sans-serif" font-size="22" font-weight="700" fill="#2E6BD6" text-anchor="end" letter-spacing="1">4f</text></svg>