<svg xmlns="http://www.w3.org/2000/svg" viewBox="0 0 1600 900">
<rect width="1600" height="900" fill="#FFFFFF"/>
<g transform="translate(0,0)"><rect x="0" y="0" width="2600" height="62" fill="#D6D6D6"/><line x1="0" y1="62" x2="2600" y2="62" stroke="#2A2A2A" stroke-width="4"/><line x1="0" y1="78" x2="2600" y2="78" stroke="#8A8A8A" stroke-width="2"/><path d="M1500,120 C1530,200 1520,300 1560,380 M1590,90 C1570,220 1610,330 1600,600 M20,640 C40,500 10,300 40,90" fill="none" stroke="#8A8A8A" stroke-width="2"/><line x1="1520" y1="78" x2="1520" y2="640" stroke="#8A8A8A" stroke-width="3"/><line x1="1620" y1="78" x2="1620" y2="640" stroke="#8A8A8A" stroke-width="3"/><line x1="0" y1="640" x2="2600" y2="640" stroke="#2A2A2A" stroke-width="4"/><line x1="-1400" y1="900" x2="-168" y2="640" stroke="#8A8A8A" stroke-width="2"/><line x1="-1100" y1="900" x2="-5" y2="640" stroke="#8A8A8A" stroke-width="2"/><line x1="-800" y1="900" x2="158" y2="640" stroke="#8A8A8A" stroke-width="2"/><line x1="-500" y1="900" x2="321" y2="640" stroke="#8A8A8A" stroke-width="2"/><line x1="-200" y1="900" x2="484" y2="640" stroke="#8A8A8A" stroke-width="2"/><line x1="100" y1="900" x2="647" y2="640" stroke="#8A8A8A" stroke-width="2"/><line x1="400" y1="900" x2="811" y2="640" stroke="#8A8A8A" stroke-width="2"/><line x1="700" y1="900" x2="974" y2="640" stroke="#8A8A8A" stroke-width="2"/><line x1="1000" y1="900" x2="1137" y2="640" stroke="#8A8A8A" stroke-width="2"/><line x1="1300" y1="900" x2="1300" y2="640" stroke="#8A8A8A" stroke-width="2"/><line x1="1600" y1="900" x2="1463" y2="640" stroke="#8A8A8A" stroke-width="2"/><line x1="1900" y1="900" x2="1626" y2="640" stroke="#8A8A8A" stroke-width="2"/><line x1="2200" y1="900" x2="1789" y2="640" stroke="#8A8A8A" stroke-width="2"/><line x1="2500" y1="900" x2="1953" y2="640" stroke="#8A8A8A" stroke-width="2"/><line x1="2800" y1="900" x2="2116" y2="640" stroke="#8A8A8A" stroke-width="2"/><line x1="3100" y1="900" x2="2279" y2="640" stroke="#8A8A8A" stroke-width="2"/><line x1="3400" y1="900" x2="2442" y2="640" stroke="#8A8A8A" stroke-width="2"/><line x1="3700" y1="900" x2="2605" y2="640" stroke="#8A8A8A" stroke-width="2"/><line x1="4000" y1="900" x2="2768" y2="640" stroke="#8A8A8A" stroke-width="2"/><line x1="0" y1="670" x2="2600" y2="670" stroke="#8A8A8A" stroke-width="2"/><line x1="0" y1="715" x2="2600" y2="715" stroke="#8A8A8A" stroke-width="2"/><line x1="0" y1="785" x2="2600" y2="785" stroke="#8A8A8A" stroke-width="2"/><line x1="0" y1="880" x2="2600" y2="880" stroke="#8A8A8A" stroke-width="2"/><path d="M300,900 C380,820 520,780 600,700 M1900,900 C1960,840 2080,800 2140,720" fill="none" stroke="#B8B8B8" stroke-width="2"/><path d="M60,640 L1480,640 L1700,900 L-200,900 Z" fill="#D6D6D6" opacity="0.6"/><rect x="60" y="96" width="1420" height="510" fill="#FFFFFF" stroke="#2A2A2A" stroke-width="6"/><rect x="60" y="96" width="1420" height="54" fill="#D6D6D6" stroke="#2A2A2A" stroke-width="3"/><text x="90" y="134" font-family="Zen Kaku Gothic New, IBM Plex Mono, IPAGothic, sans-serif" font-size="30" fill="#2A2A2A" font-weight="700">公開格付け　PUBLIC RATINGS ／ KANEGURA</text><text x="88" y="181.53846153846155" font-family="Zen Kaku Gothic New, IBM Plex Mono, IPAGothic, sans-serif" font-size="16.923076923076923" fill="#2A2A2A" font-weight="700">AAA</text><rect x="137.23076923076923" y="168.6" width="163" height="11.7" fill="#B8B8B8"/><text x="554.6666666666667" y="181.53846153846155" font-family="Zen Kaku Gothic New, IBM Plex Mono, IPAGothic, sans-serif" font-size="16.923076923076923" fill="#2A2A2A" font-weight="700">AAA</text><rect x="603.897435897436" y="168.6" width="226" height="11.7" fill="#B8B8B8"/><text x="1021.3333333333334" y="181.53846153846155" font-family="Zen Kaku Gothic New, IBM Plex Mono, IPAGothic, sans-serif" font-size="16.923076923076923" fill="#2A2A2A" font-weight="700">AAA</text><rect x="1070.5641025641025" y="168.6" width="207" height="11.7" fill="#B8B8B8"/><text x="88" y="212.30769230769232" font-family="Zen Kaku Gothic New, IBM Plex Mono, IPAGothic, sans-serif" font-size="16.923076923076923" fill="#2A2A2A" font-weight="700">AAA</text><rect x="137.23076923076923" y="199.4" width="170" height="11.7" fill="#B8B8B8"/><text x="554.6666666666667" y="212.30769230769232" font-family="Zen Kaku Gothic New, IBM Plex Mono, IPAGothic, sans-serif" font-size="16.923076923076923" fill="#2A2A2A" font-weight="700">AAA</text><rect x="603.897435897436" y="199.4" width="284" height="11.7" fill="#B8B8B8"/><text x="1021.3333333333334" y="212.30769230769232" font-family="Zen Kaku Gothic New, IBM Plex Mono, IPAGothic, sans-serif" font-size="16.923076923076923" fill="#2A2A2A" font-weight="700">AAA</text><rect x="1070.5641025641025" y="199.4" width="221" height="11.7" fill="#B8B8B8"/><text x="88" y="243.0769230769231" font-family="Zen Kaku Gothic New, IBM Plex Mono, IPAGothic, sans-serif" font-size="16.923076923076923" fill="#2A2A2A" font-weight="700">AA</text><rect x="137.23076923076923" y="230.2" width="236" height="11.7" fill="#B8B8B8"/><text x="554.6666666666667" y="243.0769230769231" font-family="Zen Kaku Gothic New, IBM Plex Mono, IPAGothic, sans-serif" font-size="16.923076923076923" fill="#2A2A2A" font-weight="700">AA</text><rect x="603.897435897436" y="230.2" width="229" height="11.7" fill="#B8B8B8"/><text x="1021.3333333333334" y="243.0769230769231" font-family="Zen Kaku Gothic New, IBM Plex Mono, IPAGothic, sans-serif" font-size="16.923076923076923" fill="#2A2A2A" font-weight="700">AA</text><rect x="1070.5641025641025" y="230.2" width="229" height="11.7" fill="#B8B8B8"/><text x="88" y="273.84615384615387" font-family="Zen Kaku Gothic New, IBM Plex Mono, IPAGothic, sans-serif" font-size="16.923076923076923" fill="#2A2A2A" font-weight="700">AA</text><rect x="137.23076923076923" y="260.9" width="203" height="11.7" fill="#B8B8B8"/><text x="554.6666666666667" y="273.84615384615387" font-family="Zen Kaku Gothic New, IBM Plex Mono, IPAGothic, sans-serif" font-size="16.923076923076923" fill="#2A2A2A" font-weight="700">AA</text><rect x="603.897435897436" y="260.9" width="194" height="11.7" fill="#B8B8B8"/><text x="1021.3333333333334" y="273.84615384615387" font-family="Zen Kaku Gothic New, IBM Plex Mono, IPAGothic, sans-serif" font-size="16.923076923076923" fill="#2A2A2A" font-weight="700">AA</text><rect x="1070.5641025641025" y="260.9" width="263" height="11.7" fill="#B8B8B8"/><text x="88" y="304.61538461538464" font-family="Zen Kaku Gothic New, IBM Plex Mono, IPAGothic, sans-serif" font-size="16.923076923076923" fill="#2A2A2A" font-weight="700">A</text><rect x="137.23076923076923" y="291.7" width="183" height="11.7" fill="#B8B8B8"/><text x="554.6666666666667" y="304.61538461538464" font-family="Zen Kaku Gothic New, IBM Plex Mono, IPAGothic, sans-serif" font-size="16.923076923076923" fill="#2A2A2A" font-weight="700">A</text><rect x="603.897435897436" y="291.7" width="217" height="11.7" fill="#B8B8B8"/><text x="1021.3333333333334" y="304.61538461538464" font-family="Zen Kaku Gothic New, IBM Plex Mono, IPAGothic, sans-serif" font-size="16.923076923076923" fill="#2A2A2A" font-weight="700">A</text><rect x="1070.5641025641025" y="291.7" width="246" height="11.7" fill="#B8B8B8"/><text x="88" y="335.38461538461536" font-family="Zen Kaku Gothic New, IBM Plex Mono, IPAGothic, sans-serif" font-size="16.923076923076923" fill="#2A2A2A" font-weight="700">A</text><rect x="137.23076923076923" y="322.5" width="279" height="11.7" fill="#B8B8B8"/><text x="554.6666666666667" y="335.38461538461536" font-family="Zen Kaku Gothic New, IBM Plex Mono, IPAGothic, sans-serif" font-size="16.923076923076923" fill="#2A2A2A" font-weight="700">A</text><rect x="603.897435897436" y="322.5" width="217" height="11.7" fill="#B8B8B8"/><text x="1021.3333333333334" y="335.38461538461536" font-family="Zen Kaku Gothic New, IBM Plex Mono, IPAGothic, sans-serif" font-size="16.923076923076923" fill="#2A2A2A" font-weight="700">A</text><rect x="1070.5641025641025" y="322.5" width="175" height="11.7" fill="#B8B8B8"/><text x="88" y="366.1538461538462" font-family="Zen Kaku Gothic New, IBM Plex Mono, IPAGothic, sans-serif" font-size="16.923076923076923" fill="#8A8A8A" font-weight="700">B</text><rect x="137.23076923076923" y="353.2" width="194" height="11.7" fill="#D6D6D6"/><text x="554.6666666666667" y="366.1538461538462" font-family="Zen Kaku Gothic New, IBM Plex Mono, IPAGothic, sans-serif" font-size="16.923076923076923" fill="#8A8A8A" font-weight="700">B</text><rect x="603.897435897436" y="353.2" width="266" height="11.7" fill="#D6D6D6"/><text x="1021.3333333333334" y="366.1538461538462" font-family="Zen Kaku Gothic New, IBM Plex Mono, IPAGothic, sans-serif" font-size="16.923076923076923" fill="#8A8A8A" font-weight="700">B</text><rect x="1070.5641025641025" y="353.2" width="246" height="11.7" fill="#D6D6D6"/><text x="88" y="396.9230769230769" font-family="Zen Kaku Gothic New, IBM Plex Mono, IPAGothic, sans-serif" font-size="16.923076923076923" fill="#8A8A8A" font-weight="700">B</text><rect x="137.23076923076923" y="384.0" width="241" height="11.7" fill="#D6D6D6"/><text x="554.6666666666667" y="396.9230769230769" font-family="Zen Kaku Gothic New, IBM Plex Mono, IPAGothic, sans-serif" font-size="16.923076923076923" fill="#8A8A8A" font-weight="700">B</text><rect x="603.897435897436" y="384.0" width="230" height="11.7" fill="#D6D6D6"/><text x="1021.3333333333334" y="396.9230769230769" font-family="Zen Kaku Gothic New, IBM Plex Mono, IPAGothic, sans-serif" font-size="16.923076923076923" fill="#8A8A8A" font-weight="700">B</text><rect x="1070.5641025641025" y="384.0" width="196" height="11.7" fill="#D6D6D6"/><text x="88" y="427.69230769230774" font-family="Zen Kaku Gothic New, IBM Plex Mono, IPAGothic, sans-serif" font-size="16.923076923076923" fill="#8A8A8A" font-weight="700">C</text><rect x="137.23076923076923" y="414.8" width="206" height="11.7" fill="#D6D6D6"/><text x="554.6666666666667" y="427.69230769230774" font-family="Zen Kaku Gothic New, IBM Plex Mono, IPAGothic, sans-serif" font-size="16.923076923076923" fill="#8A8A8A" font-weight="700">C</text><rect x="603.897435897436" y="414.8" width="275" height="11.7" fill="#D6D6D6"/><text x="1021.3333333333334" y="427.69230769230774" font-family="Zen Kaku Gothic New, IBM Plex Mono, IPAGothic, sans-serif" font-size="16.923076923076923" fill="#8A8A8A" font-weight="700">C</text><rect x="1070.5641025641025" y="414.8" width="165" height="11.7" fill="#D6D6D6"/><text x="88" y="458.46153846153845" font-family="Zen Kaku Gothic New, IBM Plex Mono, IPAGothic, sans-serif" font-size="16.923076923076923" fill="#8A8A8A" font-weight="700">C</text><rect x="137.23076923076923" y="445.5" width="190" height="11.7" fill="#D6D6D6"/><text x="554.6666666666667" y="458.46153846153845" font-family="Zen Kaku Gothic New, IBM Plex Mono, IPAGothic, sans-serif" font-size="16.923076923076923" fill="#8A8A8A" font-weight="700">C</text><rect x="603.897435897436" y="445.5" width="244" height="11.7" fill="#D6D6D6"/><text x="1021.3333333333334" y="458.46153846153845" font-family="Zen Kaku Gothic New, IBM Plex Mono, IPAGothic, sans-serif" font-size="16.923076923076923" fill="#8A8A8A" font-weight="700">C</text><rect x="1070.5641025641025" y="445.5" width="263" height="11.7" fill="#D6D6D6"/><text x="88" y="489.2307692307692" font-family="Zen Kaku Gothic New, IBM Plex Mono, IPAGothic, sans-serif" font-size="16.923076923076923" fill="#8A8A8A" font-weight="700">D</text><rect x="137.23076923076923" y="476.3" width="165" height="11.7" fill="#D6D6D6"/><text x="554.6666666666667" y="489.2307692307692" font-family="Zen Kaku Gothic New, IBM Plex Mono, IPAGothic, sans-serif" font-size="16.923076923076923" fill="#8A8A8A" font-weight="700">D</text><rect x="603.897435897436" y="476.3" width="217" height="11.7" fill="#D6D6D6"/><text x="1021.3333333333334" y="489.2307692307692" font-family="Zen Kaku Gothic New, IBM Plex Mono, IPAGothic, sans-serif" font-size="16.923076923076923" fill="#8A8A8A" font-weight="700">D</text><rect x="1070.5641025641025" y="476.3" width="288" height="11.7" fill="#D6D6D6"/><text x="88" y="520" font-family="Zen Kaku Gothic New, IBM Plex Mono, IPAGothic, sans-serif" font-size="16.923076923076923" fill="#B8B8B8" font-weight="700">D</text><rect x="137.23076923076923" y="507.1" width="236" height="11.7" fill="#D6D6D6"/><text x="554.6666666666667" y="520" font-family="Zen Kaku Gothic New, IBM Plex Mono, IPAGothic, sans-serif" font-size="16.923076923076923" fill="#B8B8B8" font-weight="700">D</text><rect x="603.897435897436" y="507.1" width="177" height="11.7" fill="#D6D6D6"/><text x="1021.3333333333334" y="520" font-family="Zen Kaku Gothic New, IBM Plex Mono, IPAGothic, sans-serif" font-size="16.923076923076923" fill="#B8B8B8" font-weight="700">D</text><rect x="1070.5641025641025" y="507.1" width="249" height="11.7" fill="#D6D6D6"/><text x="88" y="550.7692307692308" font-family="Zen Kaku Gothic New, IBM Plex Mono, IPAGothic, sans-serif" font-size="16.923076923076923" fill="#B8B8B8" font-weight="700">D</text><rect x="137.23076923076923" y="537.8" width="298" height="11.7" fill="#D6D6D6"/><text x="554.6666666666667" y="550.7692307692308" font-family="Zen Kaku Gothic New, IBM Plex Mono, IPAGothic, sans-serif" font-size="16.923076923076923" fill="#B8B8B8" font-weight="700">D</text><rect x="603.897435897436" y="537.8" width="208" height="11.7" fill="#D6D6D6"/><text x="1021.3333333333334" y="550.7692307692308" font-family="Zen Kaku Gothic New, IBM Plex Mono, IPAGothic, sans-serif" font-size="16.923076923076923" fill="#B8B8B8" font-weight="700">D</text><rect x="1070.5641025641025" y="537.8" width="290" height="11.7" fill="#D6D6D6"/><text x="96" y="592" font-family="Zen Kaku Gothic New, IBM Plex Mono, IPAGothic, sans-serif" font-size="26" fill="#E5172F" font-weight="700">ZERO</text><rect x="60" y="606" width="1420" height="34" fill="#B8B8B8" stroke="#2A2A2A" stroke-width="3"/><clipPath id="win"><rect x="1660" y="96" width="900" height="544"/></clipPath><rect x="1660" y="96" width="900" height="544" fill="#4A4A4A" stroke="#2A2A2A" stroke-width="6"/><g clip-path="url(#win)"><path d="M1600,700 C1700,300 2000,120 2400,110 M1820,700 C1900,380 2120,230 2620,200 M2200,700 C2260,520 2400,420 2700,400" fill="none" stroke="#D6D6D6" stroke-width="14"/><path d="M1600,700 C1700,300 2000,120 2400,110 M1820,700 C1900,380 2120,230 2620,200" fill="none" stroke="#8A8A8A" stroke-width="3"/><circle cx="1686" cy="582" r="3.5" fill="#B8B8B8"/><circle cx="2505" cy="509" r="1.9" fill="#B8B8B8"/><circle cx="2374" cy="621" r="3.3" fill="#B8B8B8"/><circle cx="2550" cy="596" r="2.6" fill="#B8B8B8"/><circle cx="1894" cy="565" r="1.6" fill="#B8B8B8"/><circle cx="2508" cy="601" r="2.4" fill="#B8B8B8"/><circle cx="2439" cy="460" r="3.2" fill="#B8B8B8"/><circle cx="2507" cy="553" r="3.2" fill="#B8B8B8"/><circle cx="2118" cy="605" r="2.6" fill="#B8B8B8"/><circle cx="2486" cy="630" r="2.6" fill="#B8B8B8"/><circle cx="2384" cy="546" r="2.1" fill="#B8B8B8"/><circle cx="1712" cy="469" r="3.6" fill="#B8B8B8"/><circle cx="1766" cy="520" r="2.9" fill="#B8B8B8"/><circle cx="2001" cy="540" r="1.8" fill="#B8B8B8"/><circle cx="2004" cy="490" r="2.9" fill="#B8B8B8"/><circle cx="2155" cy="617" r="1.7" fill="#B8B8B8"/><circle cx="2532" cy="629" r="3.4" fill="#B8B8B8"/><circle cx="2167" cy="523" r="3.7" fill="#B8B8B8"/><circle cx="2238" cy="545" r="2.3" fill="#B8B8B8"/><circle cx="2139" cy="504" r="3.9" fill="#B8B8B8"/><circle cx="2171" cy="615" r="1.9" fill="#B8B8B8"/><circle cx="1810" cy="623" r="3.2" fill="#B8B8B8"/><circle cx="1924" cy="600" r="2.4" fill="#B8B8B8"/><circle cx="2443" cy="542" r="2.8" fill="#B8B8B8"/><circle cx="1873" cy="477" r="3.5" fill="#B8B8B8"/><circle cx="2439" cy="505" r="3.4" fill="#B8B8B8"/><circle cx="1969" cy="607" r="2.6" fill="#B8B8B8"/><circle cx="1671" cy="463" r="1.6" fill="#B8B8B8"/><circle cx="2160" cy="510" r="3.5" fill="#B8B8B8"/><circle cx="1949" cy="569" r="4.0" fill="#B8B8B8"/><circle cx="2104" cy="589" r="1.9" fill="#B8B8B8"/><circle cx="2245" cy="544" r="2.1" fill="#B8B8B8"/><circle cx="1903" cy="545" r="3.1" fill="#B8B8B8"/><circle cx="2074" cy="511" r="2.7" fill="#B8B8B8"/><circle cx="2118" cy="480" r="3.1" fill="#B8B8B8"/><circle cx="2388" cy="544" r="2.9" fill="#B8B8B8"/><circle cx="1858" cy="591" r="2.4" fill="#B8B8B8"/><circle cx="1762" cy="557" r="2.5" fill="#B8B8B8"/><circle cx="1844" cy="547" r="3.8" fill="#B8B8B8"/><circle cx="2017" cy="488" r="3.6" fill="#B8B8B8"/><circle cx="2404" cy="583" r="2.1" fill="#B8B8B8"/><circle cx="1919" cy="500" r="2.3" fill="#B8B8B8"/><circle cx="2478" cy="578" r="2.9" fill="#B8B8B8"/><circle cx="2042" cy="547" r="2.6" fill="#B8B8B8"/><circle cx="2323" cy="462" r="3.5" fill="#B8B8B8"/><circle cx="2358" cy="463" r="3.5" fill="#B8B8B8"/><circle cx="2098" cy="564" r="1.5" fill="#B8B8B8"/><circle cx="2413" cy="626" r="3.7" fill="#B8B8B8"/><circle cx="1889" cy="489" r="2.4" fill="#B8B8B8"/><circle cx="2088" cy="630" r="3.4" fill="#B8B8B8"/><circle cx="2083" cy="491" r="2.9" fill="#B8B8B8"/><circle cx="2202" cy="629" r="2.3" fill="#B8B8B8"/><circle cx="1745" cy="539" r="3.9" fill="#B8B8B8"/><circle cx="2403" cy="472" r="2.9" fill="#B8B8B8"/><circle cx="2307" cy="606" r="2.7" fill="#B8B8B8"/><circle cx="1990" cy="491" r="3.8" fill="#B8B8B8"/><circle cx="2250" cy="483" r="2.9" fill="#B8B8B8"/><circle cx="1973" cy="569" r="3.6" fill="#B8B8B8"/><circle cx="1694" cy="556" r="3.7" fill="#B8B8B8"/><circle cx="2381" cy="591" r="1.9" fill="#B8B8B8"/><circle cx="1855" cy="587" r="3.4" fill="#B8B8B8"/><circle cx="1755" cy="582" r="3.6" fill="#B8B8B8"/><circle cx="2003" cy="519" r="2.8" fill="#B8B8B8"/><circle cx="1842" cy="474" r="2.8" fill="#B8B8B8"/><circle cx="2365" cy="627" r="2.8" fill="#B8B8B8"/><circle cx="2509" cy="610" r="2.4" fill="#B8B8B8"/><circle cx="2468" cy="540" r="3.2" fill="#B8B8B8"/><circle cx="2283" cy="602" r="1.9" fill="#B8B8B8"/><circle cx="2438" cy="463" r="2.3" fill="#B8B8B8"/><circle cx="2541" cy="577" r="3.8" fill="#B8B8B8"/></g><path d="M1960,96 L1960,640 M2260,96 L2260,640 M1660,300 L2560,300" stroke="#B8B8B8" stroke-width="10"/><rect x="1660" y="96" width="900" height="544" fill="none" stroke="#2A2A2A" stroke-width="6"/><ellipse cx="1860" cy="600" rx="110" ry="18" fill="#FFFFFF" stroke="#2A2A2A" stroke-width="4"/><path d="M1860,618 L1860,700 M1810,710 L1910,710" stroke="#2A2A2A" stroke-width="4"/><path d="M1830,592 C1820,560 1840,546 1866,546 C1892,546 1906,560 1896,592 Z" fill="#FFFFFF" stroke="#2A2A2A" stroke-width="3"/><path d="M1896,566 C1914,560 1916,548 1926,544" fill="none" stroke="#2A2A2A" stroke-width="3"/><g transform="translate(2040,690) scale(1.15)"><ellipse cx="0" cy="2" rx="70" ry="9" fill="#B8B8B8"/>
<path d="M-36,-190 L-4,-190 L-8,-4 L-32,-4 Z M4,-190 L38,-190 L32,-4 L8,-4 Z" fill="#FFFFFF" stroke="#2A2A2A" stroke-width="3"/>
<path d="M-40,-4 L-6,-4 L-6,4 L-46,4 Z M6,-4 L34,-4 L40,4 L4,4 Z" fill="#FFFFFF" stroke="#2A2A2A" stroke-width="3"/>
<path d="M-50,-328 C-40,-336 40,-336 52,-328 L60,-178 L4,-172 L0,-240 L-4,-172 L-58,-178 Z" fill="#FFFFFF" stroke="#2A2A2A" stroke-width="3.5"/>
<path d="M30,-326 C46,-300 54,-240 58,-180 L40,-178 Z" fill="#D6D6D6"/>
<path d="M-18,-332 L-2,-270 L16,-332" fill="none" stroke="#2A2A2A" stroke-width="2.5"/>
<path d="M50,-326 C66,-300 66,-250 64,-200 L52,-196" fill="#FFFFFF" stroke="#2A2A2A" stroke-width="3"/>
<path d="M-52,-324 C-70,-300 -84,-270 -96,-246 L-112,-236 L-104,-224 L-80,-240 C-66,-262 -56,-280 -48,-296" fill="#FFFFFF" stroke="#2A2A2A" stroke-width="3"/>
<path d="M-118,-250 L-148,-250 L-150,-232 C-150,-220 -118,-220 -118,-232 Z" fill="#FFFFFF" stroke="#2A2A2A" stroke-width="2.5"/>
<path d="M-152,-246 L-162,-252" stroke="#2A2A2A" stroke-width="2.5"/>
<path d="M-158,-226 C-160,-210 -166,-196 -170,-184" fill="none" stroke="#8A8A8A" stroke-width="2"/>
<line x1="58" y1="-200" x2="70" y2="0" stroke="#2A2A2A" stroke-width="4"/>
<path d="M58,-214 L80,-214 M69,-214 L69,-204" stroke="#8A8A8A" stroke-width="3"/>
<path d="M-10,-346 L-8,-330 L10,-330 L10,-346 Z" fill="#FFFFFF" stroke="#2A2A2A" stroke-width="2.5"/>
<path d="M-22,-382 C-24,-352 -14,-338 0,-334 C14,-338 22,-352 22,-382 Z" fill="#FFFFFF" stroke="#2A2A2A" stroke-width="3"/>
<path d="M-24,-378 C-28,-404 -6,-412 6,-410 C22,-408 32,-394 28,-368 L22,-366 L22,-380 C10,-390 -10,-390 -24,-378 Z" fill="#B8B8B8" stroke="#2A2A2A" stroke-width="3"/>
<path d="M-20,-362 L-8,-362 M-4,-362 L8,-362 M-12,-346 Q-4,-342 4,-346" stroke="#2A2A2A" stroke-width="2.5"/></g></g><rect x="0" y="0" width="1600" height="900" fill="none"/><line x1="1180" y1="470" x2="1520" y2="470" stroke="#2E6BD6" stroke-width="6"/><path d="M1500.2,479.6 L1520,470 L1500.2,460.4" fill="none" stroke="#2E6BD6" stroke-width="6" stroke-linejoin="round"/><text x="1200" y="455" font-family="Zen Kaku Gothic New, IBM Plex Mono, IPAGothic, sans-serif" font-size="24" fill="#2E6BD6" font-weight="700" text-anchor="start">PAN R →</text><line x1="1440" y1="560" x2="1440" y2="200" stroke="#2E6BD6" stroke-width="4"/><path d="M1449.6,219.8 L1440,200 L1430.4,219.8" fill="none" stroke="#2E6BD6" stroke-width="4" stroke-linejoin="round"/><text x="1360" y="190" font-family="Zen Kaku Gothic New, IBM Plex Mono, IPAGothic, sans-serif" font-size="24" fill="#2E6BD6" font-weight="700" text-anchor="start">ROLL ↑</text>
</svg>
