<svg xmlns="http://www.w3.org/2000/svg" viewBox="0 0 800 1200"><rect width="800" height="1200" fill="#2E2E2E"/><rect width="800" height="1200" fill="#2E2E2E"/><g fill="#1E1E1E" opacity="1"><polygon points="454.3,274 -161.2,73.8 -164.5,84.2"/><polygon points="709.8,195.6 1131.1,-278.3 1127.3,-281.6"/><polygon points="460,257.6 -128.5,-10.7 -132.9,-0.8"/><polygon points="717.3,264.1 1323.2,-22 1321.1,-26.5"/><polygon points="568.8,170.2 441.3,-464.1 432.7,-462.3"/><polygon points="528.5,401.8 68.6,918 78.7,926.9"/><polygon points="580.6,212.2 461.4,-467.9 455.4,-466.8"/><polygon points="544.6,211.2 238.1,-393.5 236.2,-392.5"/><polygon points="546.5,425 235.3,1032.1 238.4,1033.6"/><polygon points="701.1,370.4 1313.2,682.4 1318.6,671.6"/><polygon points="686.4,457.7 1024.2,998.3 1026.3,997"/><polygon points="440.5,272.7 -165.3,87 -168.7,98.3"/><polygon points="468.7,323.9 -199.7,340.6 -199.5,347.1"/><polygon points="584.7,485.3 522,1116.2 530.9,1117"/><polygon points="438.7,316.6 -199.7,297.5 -199.9,308.4"/><polygon points="667.9,196.6 990.1,-378.4 981.5,-383.2"/><polygon points="730,411.8 1251.7,784 1255.3,778.9"/><polygon points="484.5,363.9 -149.6,599.6 -146,609"/><polygon points="465.5,242.6 -92.4,-80.7 -94.5,-77"/><polygon points="657.4,183.7 911.3,-417 909.7,-417.6"/><polygon points="698.2,386.3 1259.2,773.3 1266.7,762.3"/><polygon points="699.9,424.9 1147.2,903.7 1156.3,894.9"/><polygon points="757.4,330.7 1397.9,378.1 1398.4,370.8"/><polygon points="663.7,428.2 1001.4,1012 1010.8,1006.5"/><polygon points="496.1,359.7 -148.6,602.3 -146.3,608.3"/><polygon points="488.3,412.7 -18.1,827.9 -13,834"/><polygon points="460.1,284.3 -174.7,120.4 -175.6,123.9"/><polygon points="571.7,430.3 394.8,1093.3 407.2,1096.4"/><polygon points="623.6,180.2 734.4,-468.6 731.9,-469.1"/><polygon points="511.4,440.1 122,961.5 127.9,965.8"/><polygon points="647.9,166.2 838.6,-443.6 837.2,-444"/><polygon points="513.2,197.9 137.8,-333 135.5,-331.4"/><polygon points="658.9,170.5 896.2,-423.1 890.5,-425.4"/><polygon points="664.3,424.4 1016.6,1003 1022.7,999.2"/><polygon points="654.7,209.9 958.6,-395.2 953.8,-397.5"/><polygon points="735.8,319.1 1400,317.8 1400,311.2"/><polygon points="553,170.6 361.8,-443.7 358.2,-442.6"/><polygon points="542.3,175.1 307.7,-424.7 300.6,-421.9"/><polygon points="718.5,204.2 1173.2,-238.1 1171.3,-240.1"/><polygon points="452.8,299.6 -191.6,204.5 -193.2,215.6"/><polygon points="719.3,291.6 1379.5,140.1 1377,129.3"/><polygon points="675.7,417.6 1088,954 1093.1,950"/><polygon points="617.8,457 699.1,1113.8 707.4,1112.8"/><polygon points="506.5,390.1 -43.2,795.8 -36.6,804.5"/><polygon points="465.1,372.2 -147.4,605.4 -144.8,611.9"/><polygon points="673.1,240.4 1144.6,-266.1 1138,-272.1"/><polygon points="489.7,245.3 -60.8,-131 -64.1,-126"/><polygon points="459.8,252.2 -119.4,-30 -121.2,-26.2"/><polygon points="503.7,422.6 50.4,901.3 54.8,905.5"/><polygon points="758.9,373.1 1357.8,576.3 1359.6,571.1"/></g><g fill="none" stroke="#FFFFFF" stroke-width="5" opacity="0.8"><path d="M120,140 C220,60 360,80 420,170"/><path d="M780,600 C760,480 700,420 660,400"/><path d="M80,520 C160,420 260,400 380,430"/></g><g fill="#FFFFFF" opacity="0.8"><path d="M432,190 L400,174 L428,152 Z"/><path d="M646,392 L680,386 L668,418 Z"/><path d="M396,436 L366,452 L372,418 Z"/></g><g stroke="#2A2A2A" stroke-width="2.7" opacity="1"><g transform="translate(67.3,44.1) rotate(28.7)"><rect x="-12" y="-8.6" width="24" height="17.3" rx="2" fill="#B0B0B0"/><line x1="-7.2" y1="0" x2="7.2" y2="0" stroke-width="1.2"/></g><g transform="translate(82.3,52) rotate(26.7)"><rect x="-10.1" y="-3.1" width="20.2" height="6.2" rx="2" fill="#2A2A2A"/></g><g transform="translate(97.9,59.5) rotate(24.9)"><rect x="-12" y="-8.6" width="24" height="17.3" rx="2" fill="#B0B0B0"/><line x1="-7.2" y1="0" x2="7.2" y2="0" stroke-width="1.2"/></g><g transform="translate(113.9,66.6) rotate(23.4)"><rect x="-10.1" y="-3.1" width="20.2" height="6.2" rx="2" fill="#2A2A2A"/></g><g transform="translate(130.4,73.5) rotate(22.1)"><rect x="-12" y="-8.6" width="24" height="17.3" rx="2" fill="#B0B0B0"/><line x1="-7.2" y1="0" x2="7.2" y2="0" stroke-width="1.2"/></g><g transform="translate(147.2,80.1) rotate(20.9)"><rect x="-10.1" y="-3.1" width="20.2" height="6.2" rx="2" fill="#2A2A2A"/></g><g transform="translate(164.4,86.6) rotate(20)"><rect x="-12" y="-8.6" width="24" height="17.3" rx="2" fill="#B0B0B0"/><line x1="-7.2" y1="0" x2="7.2" y2="0" stroke-width="1.2"/></g><g transform="translate(181.9,92.8) rotate(19.3)"><rect x="-10.1" y="-3.1" width="20.2" height="6.2" rx="2" fill="#2A2A2A"/></g><g transform="translate(199.7,98.9) rotate(18.7)"><rect x="-12" y="-8.6" width="24" height="17.3" rx="2" fill="#B0B0B0"/><line x1="-7.2" y1="0" x2="7.2" y2="0" stroke-width="1.2"/></g><g transform="translate(217.7,104.9) rotate(18.3)"><rect x="-10.1" y="-3.1" width="20.2" height="6.2" rx="2" fill="#2A2A2A"/></g><g transform="translate(235.9,110.9) rotate(18)"><rect x="-12" y="-8.6" width="24" height="17.3" rx="2" fill="#B0B0B0"/><line x1="-7.2" y1="0" x2="7.2" y2="0" stroke-width="1.2"/></g><g transform="translate(254.3,116.8) rotate(17.9)"><rect x="-10.1" y="-3.1" width="20.2" height="6.2" rx="2" fill="#2A2A2A"/></g><g transform="translate(272.8,122.8) rotate(17.9)"><rect x="-12" y="-8.6" width="24" height="17.3" rx="2" fill="#B0B0B0"/><line x1="-7.2" y1="0" x2="7.2" y2="0" stroke-width="1.2"/></g><g transform="translate(291.4,128.9) rotate(18.1)"><rect x="-10.1" y="-3.1" width="20.2" height="6.2" rx="2" fill="#2A2A2A"/></g><g transform="translate(310,135) rotate(18.4)"><rect x="-12" y="-8.6" width="24" height="17.3" rx="2" fill="#B0B0B0"/><line x1="-7.2" y1="0" x2="7.2" y2="0" stroke-width="1.2"/></g><g transform="translate(328.6,141.3) rotate(18.9)"><rect x="-10.1" y="-3.1" width="20.2" height="6.2" rx="2" fill="#2A2A2A"/></g><g transform="translate(347.2,147.8) rotate(19.5)"><rect x="-12" y="-8.6" width="24" height="17.3" rx="2" fill="#B0B0B0"/><line x1="-7.2" y1="0" x2="7.2" y2="0" stroke-width="1.2"/></g><g transform="translate(365.7,154.4) rotate(20.3)"><rect x="-10.1" y="-3.1" width="20.2" height="6.2" rx="2" fill="#2A2A2A"/></g><g transform="translate(384.1,161.4) rotate(21.2)"><rect x="-12" y="-8.6" width="24" height="17.3" rx="2" fill="#B0B0B0"/><line x1="-7.2" y1="0" x2="7.2" y2="0" stroke-width="1.2"/></g><g transform="translate(402.3,168.6) rotate(22.2)"><rect x="-10.1" y="-3.1" width="20.2" height="6.2" rx="2" fill="#2A2A2A"/></g><g transform="translate(420.3,176.2) rotate(23.5)"><rect x="-12" y="-8.6" width="24" height="17.3" rx="2" fill="#B0B0B0"/><line x1="-7.2" y1="0" x2="7.2" y2="0" stroke-width="1.2"/></g><g transform="translate(438.1,184.2) rotate(24.8)"><rect x="-10.1" y="-3.1" width="20.2" height="6.2" rx="2" fill="#2A2A2A"/></g><g transform="translate(455.6,192.6) rotate(26.4)"><rect x="-12" y="-8.6" width="24" height="17.3" rx="2" fill="#B0B0B0"/><line x1="-7.2" y1="0" x2="7.2" y2="0" stroke-width="1.2"/></g><g transform="translate(472.8,201.4) rotate(28.1)"><rect x="-10.1" y="-3.1" width="20.2" height="6.2" rx="2" fill="#2A2A2A"/></g><g transform="translate(489.6,210.8) rotate(30)"><rect x="-12" y="-8.6" width="24" height="17.3" rx="2" fill="#B0B0B0"/><line x1="-7.2" y1="0" x2="7.2" y2="0" stroke-width="1.2"/></g><g transform="translate(506.1,220.6) rotate(32)"><rect x="-10.1" y="-3.1" width="20.2" height="6.2" rx="2" fill="#2A2A2A"/></g><g transform="translate(522.1,231.1) rotate(34.3)"><rect x="-12" y="-8.6" width="24" height="17.3" rx="2" fill="#B0B0B0"/><line x1="-7.2" y1="0" x2="7.2" y2="0" stroke-width="1.2"/></g><g transform="translate(537.7,242.2) rotate(36.7)"><rect x="-10.1" y="-3.1" width="20.2" height="6.2" rx="2" fill="#2A2A2A"/></g><g transform="translate(552.7,253.9) rotate(39.2)"><rect x="-12" y="-8.6" width="24" height="17.3" rx="2" fill="#B0B0B0"/><line x1="-7.2" y1="0" x2="7.2" y2="0" stroke-width="1.2"/></g></g><g stroke="#2A2A2A" stroke-width="2.7" opacity="1"><g transform="translate(781.5,169.9) rotate(130.1)"><rect x="-12" y="-8.6" width="24" height="17.3" rx="2" fill="#B0B0B0"/><line x1="-7.2" y1="0" x2="7.2" y2="0" stroke-width="1.2"/></g><g transform="translate(765.9,189) rotate(128.2)"><rect x="-10.1" y="-3.1" width="20.2" height="6.2" rx="2" fill="#2A2A2A"/></g><g transform="translate(751.9,207.3) rotate(126.7)"><rect x="-12" y="-8.6" width="24" height="17.3" rx="2" fill="#B0B0B0"/><line x1="-7.2" y1="0" x2="7.2" y2="0" stroke-width="1.2"/></g><g transform="translate(739.3,224.6) rotate(125.7)"><rect x="-10.1" y="-3.1" width="20.2" height="6.2" rx="2" fill="#2A2A2A"/></g><g transform="translate(727.6,241) rotate(125.4)"><rect x="-12" y="-8.6" width="24" height="17.3" rx="2" fill="#B0B0B0"/><line x1="-7.2" y1="0" x2="7.2" y2="0" stroke-width="1.2"/></g><g transform="translate(716.6,256.4) rotate(125.9)"><rect x="-10.1" y="-3.1" width="20.2" height="6.2" rx="2" fill="#2A2A2A"/></g><g transform="translate(706,270.8) rotate(127.3)"><rect x="-12" y="-8.6" width="24" height="17.3" rx="2" fill="#B0B0B0"/><line x1="-7.2" y1="0" x2="7.2" y2="0" stroke-width="1.2"/></g><g transform="translate(695.4,284.1) rotate(129.9)"><rect x="-10.1" y="-3.1" width="20.2" height="6.2" rx="2" fill="#2A2A2A"/></g><g transform="translate(684.5,296.3) rotate(133.5)"><rect x="-12" y="-8.6" width="24" height="17.3" rx="2" fill="#B0B0B0"/><line x1="-7.2" y1="0" x2="7.2" y2="0" stroke-width="1.2"/></g><g transform="translate(673.1,307.4) rotate(138.3)"><rect x="-10.1" y="-3.1" width="20.2" height="6.2" rx="2" fill="#2A2A2A"/></g><g transform="translate(660.8,317.4) rotate(144)"><rect x="-12" y="-8.6" width="24" height="17.3" rx="2" fill="#B0B0B0"/><line x1="-7.2" y1="0" x2="7.2" y2="0" stroke-width="1.2"/></g><g transform="translate(647.3,326.1) rotate(150.2)"><rect x="-10.1" y="-3.1" width="20.2" height="6.2" rx="2" fill="#2A2A2A"/></g></g><g stroke="#2A2A2A" stroke-width="2.7" opacity="1"><g transform="translate(9.6,595.3) rotate(-25.6)"><rect x="-12" y="-8.6" width="24" height="17.3" rx="2" fill="#B0B0B0"/><line x1="-7.2" y1="0" x2="7.2" y2="0" stroke-width="1.2"/></g><g transform="translate(28.8,586.5) rotate(-23.8)"><rect x="-10.1" y="-3.1" width="20.2" height="6.2" rx="2" fill="#2A2A2A"/></g><g transform="translate(48,578.4) rotate(-21.9)"><rect x="-12" y="-8.6" width="24" height="17.3" rx="2" fill="#B0B0B0"/><line x1="-7.2" y1="0" x2="7.2" y2="0" stroke-width="1.2"/></g><g transform="translate(67.2,571) rotate(-20.1)"><rect x="-10.1" y="-3.1" width="20.2" height="6.2" rx="2" fill="#2A2A2A"/></g><g transform="translate(86.3,564.3) rotate(-18.2)"><rect x="-12" y="-8.6" width="24" height="17.3" rx="2" fill="#B0B0B0"/><line x1="-7.2" y1="0" x2="7.2" y2="0" stroke-width="1.2"/></g><g transform="translate(105.5,558.4) rotate(-16.3)"><rect x="-10.1" y="-3.1" width="20.2" height="6.2" rx="2" fill="#2A2A2A"/></g><g transform="translate(124.6,553.1) rotate(-14.5)"><rect x="-12" y="-8.6" width="24" height="17.3" rx="2" fill="#B0B0B0"/><line x1="-7.2" y1="0" x2="7.2" y2="0" stroke-width="1.2"/></g><g transform="translate(143.7,548.5) rotate(-12.6)"><rect x="-10.1" y="-3.1" width="20.2" height="6.2" rx="2" fill="#2A2A2A"/></g><g transform="translate(162.8,544.6) rotate(-10.8)"><rect x="-12" y="-8.6" width="24" height="17.3" rx="2" fill="#B0B0B0"/><line x1="-7.2" y1="0" x2="7.2" y2="0" stroke-width="1.2"/></g><g transform="translate(181.9,541.3) rotate(-9)"><rect x="-10.1" y="-3.1" width="20.2" height="6.2" rx="2" fill="#2A2A2A"/></g><g transform="translate(200.9,538.6) rotate(-7.2)"><rect x="-12" y="-8.6" width="24" height="17.3" rx="2" fill="#B0B0B0"/><line x1="-7.2" y1="0" x2="7.2" y2="0" stroke-width="1.2"/></g><g transform="translate(219.8,536.5) rotate(-5.4)"><rect x="-10.1" y="-3.1" width="20.2" height="6.2" rx="2" fill="#2A2A2A"/></g><g transform="translate(238.8,535) rotate(-3.6)"><rect x="-12" y="-8.6" width="24" height="17.3" rx="2" fill="#B0B0B0"/><line x1="-7.2" y1="0" x2="7.2" y2="0" stroke-width="1.2"/></g><g transform="translate(257.6,534.1) rotate(-1.9)"><rect x="-10.1" y="-3.1" width="20.2" height="6.2" rx="2" fill="#2A2A2A"/></g><g transform="translate(276.4,533.7) rotate(-0.2)"><rect x="-12" y="-8.6" width="24" height="17.3" rx="2" fill="#B0B0B0"/><line x1="-7.2" y1="0" x2="7.2" y2="0" stroke-width="1.2"/></g><g transform="translate(295.2,533.9) rotate(1.4)"><rect x="-10.1" y="-3.1" width="20.2" height="6.2" rx="2" fill="#2A2A2A"/></g><g transform="translate(313.9,534.6) rotate(3)"><rect x="-12" y="-8.6" width="24" height="17.3" rx="2" fill="#B0B0B0"/><line x1="-7.2" y1="0" x2="7.2" y2="0" stroke-width="1.2"/></g><g transform="translate(332.6,535.9) rotate(4.6)"><rect x="-10.1" y="-3.1" width="20.2" height="6.2" rx="2" fill="#2A2A2A"/></g><g transform="translate(351.1,537.6) rotate(6.1)"><rect x="-12" y="-8.6" width="24" height="17.3" rx="2" fill="#B0B0B0"/><line x1="-7.2" y1="0" x2="7.2" y2="0" stroke-width="1.2"/></g><g transform="translate(369.7,539.8) rotate(7.6)"><rect x="-10.1" y="-3.1" width="20.2" height="6.2" rx="2" fill="#2A2A2A"/></g><g transform="translate(388.1,542.5) rotate(9)"><rect x="-12" y="-8.6" width="24" height="17.3" rx="2" fill="#B0B0B0"/><line x1="-7.2" y1="0" x2="7.2" y2="0" stroke-width="1.2"/></g><g transform="translate(406.4,545.7) rotate(10.4)"><rect x="-10.1" y="-3.1" width="20.2" height="6.2" rx="2" fill="#2A2A2A"/></g><g transform="translate(424.7,549.2) rotate(11.8)"><rect x="-12" y="-8.6" width="24" height="17.3" rx="2" fill="#B0B0B0"/><line x1="-7.2" y1="0" x2="7.2" y2="0" stroke-width="1.2"/></g><g transform="translate(442.9,553.2) rotate(13.1)"><rect x="-10.1" y="-3.1" width="20.2" height="6.2" rx="2" fill="#2A2A2A"/></g><g transform="translate(461,557.6) rotate(14.3)"><rect x="-12" y="-8.6" width="24" height="17.3" rx="2" fill="#B0B0B0"/><line x1="-7.2" y1="0" x2="7.2" y2="0" stroke-width="1.2"/></g></g><path d="M300,950 L360,900 L660,330 L600,300 Z" fill="#FFFFFF" stroke="#2A2A2A" stroke-width="4"/><g transform="translate(612,340) rotate(117.7)"><rect x="-6" y="-42" width="317.1" height="84" rx="42" fill="#E5172F" opacity="0.25"/><rect x="0" y="-34" width="305.1" height="68" rx="20.4" fill="#E5172F"/><line x1="10" y1="-31" x2="20" y2="31" stroke="#FFFFFF" stroke-width="1.6" opacity="0.7"/><line x1="36" y1="-31" x2="46" y2="31" stroke="#FFFFFF" stroke-width="1.6" opacity="0.7"/><line x1="62" y1="-31" x2="72" y2="31" stroke="#FFFFFF" stroke-width="1.6" opacity="0.7"/><line x1="88" y1="-31" x2="98" y2="31" stroke="#FFFFFF" stroke-width="1.6" opacity="0.7"/><line x1="114" y1="-31" x2="124" y2="31" stroke="#FFFFFF" stroke-width="1.6" opacity="0.7"/><line x1="140" y1="-31" x2="150" y2="31" stroke="#FFFFFF" stroke-width="1.6" opacity="0.7"/><line x1="166" y1="-31" x2="176" y2="31" stroke="#FFFFFF" stroke-width="1.6" opacity="0.7"/><line x1="192" y1="-31" x2="202" y2="31" stroke="#FFFFFF" stroke-width="1.6" opacity="0.7"/><line x1="218" y1="-31" x2="228" y2="31" stroke="#FFFFFF" stroke-width="1.6" opacity="0.7"/><line x1="244" y1="-31" x2="254" y2="31" stroke="#FFFFFF" stroke-width="1.6" opacity="0.7"/><line x1="270" y1="-31" x2="280" y2="31" stroke="#FFFFFF" stroke-width="1.6" opacity="0.7"/><path d="M305.1,-34 l14,-6 l-6,10 l16,0 l-14,8 l12,8 l-22,-2 Z" fill="#E5172F"/></g><path d="M600,370 L520,540" stroke="#B0B0B0" stroke-width="6"/><path d="M610,300 C600,260 620,230 660,230 C700,232 716,262 706,300 C696,330 650,340 610,300 Z" fill="#FFFFFF" stroke="#2A2A2A" stroke-width="4"/><path d="M626,262 L690,262 M622,282 L698,282" stroke="#2A2A2A" stroke-width="3"/><g stroke="#2A2A2A" stroke-width="2.0" opacity="1"><g transform="translate(552,387.4) rotate(55.5)"><rect x="-9" y="-6.5" width="18" height="13" rx="2" fill="#B0B0B0"/><line x1="-5.4" y1="0" x2="5.4" y2="0" stroke-width="1.2"/></g><g transform="translate(564.2,402.2) rotate(45.2)"><rect x="-7.6" y="-2.3" width="15.1" height="4.7" rx="2" fill="#2A2A2A"/></g><g transform="translate(577.3,413) rotate(33.7)"><rect x="-9" y="-6.5" width="18" height="13" rx="2" fill="#B0B0B0"/><line x1="-5.4" y1="0" x2="5.4" y2="0" stroke-width="1.2"/></g><g transform="translate(590.8,420.1) rotate(21.6)"><rect x="-7.6" y="-2.3" width="15.1" height="4.7" rx="2" fill="#2A2A2A"/></g><g transform="translate(604.4,423.9) rotate(9.3)"><rect x="-9" y="-6.5" width="18" height="13" rx="2" fill="#B0B0B0"/><line x1="-5.4" y1="0" x2="5.4" y2="0" stroke-width="1.2"/></g><g transform="translate(617.6,424.6) rotate(-3)"><rect x="-7.6" y="-2.3" width="15.1" height="4.7" rx="2" fill="#2A2A2A"/></g><g transform="translate(630.2,422.7) rotate(-15.2)"><rect x="-9" y="-6.5" width="18" height="13" rx="2" fill="#B0B0B0"/><line x1="-5.4" y1="0" x2="5.4" y2="0" stroke-width="1.2"/></g><g transform="translate(641.5,418.3) rotate(-27.3)"><rect x="-7.6" y="-2.3" width="15.1" height="4.7" rx="2" fill="#2A2A2A"/></g><g transform="translate(651.3,411.8) rotate(-39.9)"><rect x="-9" y="-6.5" width="18" height="13" rx="2" fill="#B0B0B0"/><line x1="-5.4" y1="0" x2="5.4" y2="0" stroke-width="1.2"/></g><g transform="translate(659.2,403.5) rotate(-53.4)"><rect x="-7.6" y="-2.3" width="15.1" height="4.7" rx="2" fill="#2A2A2A"/></g><g transform="translate(664.7,393.7) rotate(-68.1)"><rect x="-9" y="-6.5" width="18" height="13" rx="2" fill="#B0B0B0"/><line x1="-5.4" y1="0" x2="5.4" y2="0" stroke-width="1.2"/></g></g><g stroke="#2A2A2A" stroke-width="2.0" opacity="1"><g transform="translate(512.8,467.2) rotate(55.5)"><rect x="-9" y="-6.5" width="18" height="13" rx="2" fill="#B0B0B0"/><line x1="-5.4" y1="0" x2="5.4" y2="0" stroke-width="1.2"/></g><g transform="translate(525,482) rotate(45.2)"><rect x="-7.6" y="-2.3" width="15.1" height="4.7" rx="2" fill="#2A2A2A"/></g><g transform="translate(538.1,492.8) rotate(33.7)"><rect x="-9" y="-6.5" width="18" height="13" rx="2" fill="#B0B0B0"/><line x1="-5.4" y1="0" x2="5.4" y2="0" stroke-width="1.2"/></g><g transform="translate(551.6,499.9) rotate(21.6)"><rect x="-7.6" y="-2.3" width="15.1" height="4.7" rx="2" fill="#2A2A2A"/></g><g transform="translate(565.2,503.7) rotate(9.3)"><rect x="-9" y="-6.5" width="18" height="13" rx="2" fill="#B0B0B0"/><line x1="-5.4" y1="0" x2="5.4" y2="0" stroke-width="1.2"/></g><g transform="translate(578.5,504.5) rotate(-3)"><rect x="-7.6" y="-2.3" width="15.1" height="4.7" rx="2" fill="#2A2A2A"/></g><g transform="translate(591,502.5) rotate(-15.2)"><rect x="-9" y="-6.5" width="18" height="13" rx="2" fill="#B0B0B0"/><line x1="-5.4" y1="0" x2="5.4" y2="0" stroke-width="1.2"/></g><g transform="translate(602.3,498.1) rotate(-27.3)"><rect x="-7.6" y="-2.3" width="15.1" height="4.7" rx="2" fill="#2A2A2A"/></g><g transform="translate(612.1,491.6) rotate(-39.9)"><rect x="-9" y="-6.5" width="18" height="13" rx="2" fill="#B0B0B0"/><line x1="-5.4" y1="0" x2="5.4" y2="0" stroke-width="1.2"/></g><g transform="translate(620,483.3) rotate(-53.4)"><rect x="-7.6" y="-2.3" width="15.1" height="4.7" rx="2" fill="#2A2A2A"/></g><g transform="translate(625.5,473.5) rotate(-68.1)"><rect x="-9" y="-6.5" width="18" height="13" rx="2" fill="#B0B0B0"/><line x1="-5.4" y1="0" x2="5.4" y2="0" stroke-width="1.2"/></g></g><g stroke="#2A2A2A" stroke-width="2.0" opacity="1"><g transform="translate(473.6,547) rotate(55.5)"><rect x="-9" y="-6.5" width="18" height="13" rx="2" fill="#B0B0B0"/><line x1="-5.4" y1="0" x2="5.4" y2="0" stroke-width="1.2"/></g><g transform="translate(485.8,561.8) rotate(45.2)"><rect x="-7.6" y="-2.3" width="15.1" height="4.7" rx="2" fill="#2A2A2A"/></g><g transform="translate(498.9,572.6) rotate(33.7)"><rect x="-9" y="-6.5" width="18" height="13" rx="2" fill="#B0B0B0"/><line x1="-5.4" y1="0" x2="5.4" y2="0" stroke-width="1.2"/></g><g transform="translate(512.4,579.7) rotate(21.6)"><rect x="-7.6" y="-2.3" width="15.1" height="4.7" rx="2" fill="#2A2A2A"/></g><g transform="translate(526,583.5) rotate(9.3)"><rect x="-9" y="-6.5" width="18" height="13" rx="2" fill="#B0B0B0"/><line x1="-5.4" y1="0" x2="5.4" y2="0" stroke-width="1.2"/></g><g transform="translate(539.2,584.2) rotate(-3)"><rect x="-7.6" y="-2.3" width="15.1" height="4.7" rx="2" fill="#2A2A2A"/></g><g transform="translate(551.8,582.3) rotate(-15.2)"><rect x="-9" y="-6.5" width="18" height="13" rx="2" fill="#B0B0B0"/><line x1="-5.4" y1="0" x2="5.4" y2="0" stroke-width="1.2"/></g><g transform="translate(563.1,577.9) rotate(-27.3)"><rect x="-7.6" y="-2.3" width="15.1" height="4.7" rx="2" fill="#2A2A2A"/></g><g transform="translate(572.9,571.4) rotate(-39.9)"><rect x="-9" y="-6.5" width="18" height="13" rx="2" fill="#B0B0B0"/><line x1="-5.4" y1="0" x2="5.4" y2="0" stroke-width="1.2"/></g><g transform="translate(580.8,563.1) rotate(-53.4)"><rect x="-7.6" y="-2.3" width="15.1" height="4.7" rx="2" fill="#2A2A2A"/></g><g transform="translate(586.3,553.3) rotate(-68.1)"><rect x="-9" y="-6.5" width="18" height="13" rx="2" fill="#B0B0B0"/><line x1="-5.4" y1="0" x2="5.4" y2="0" stroke-width="1.2"/></g></g><g stroke="#2A2A2A" stroke-width="2.0" opacity="1"><g transform="translate(434.4,626.8) rotate(55.5)"><rect x="-9" y="-6.5" width="18" height="13" rx="2" fill="#B0B0B0"/><line x1="-5.4" y1="0" x2="5.4" y2="0" stroke-width="1.2"/></g><g transform="translate(446.6,641.6) rotate(45.2)"><rect x="-7.6" y="-2.3" width="15.1" height="4.7" rx="2" fill="#2A2A2A"/></g><g transform="translate(459.7,652.4) rotate(33.7)"><rect x="-9" y="-6.5" width="18" height="13" rx="2" fill="#B0B0B0"/><line x1="-5.4" y1="0" x2="5.4" y2="0" stroke-width="1.2"/></g><g transform="translate(473.2,659.5) rotate(21.6)"><rect x="-7.6" y="-2.3" width="15.1" height="4.7" rx="2" fill="#2A2A2A"/></g><g transform="translate(486.8,663.3) rotate(9.3)"><rect x="-9" y="-6.5" width="18" height="13" rx="2" fill="#B0B0B0"/><line x1="-5.4" y1="0" x2="5.4" y2="0" stroke-width="1.2"/></g><g transform="translate(500,664) rotate(-3)"><rect x="-7.6" y="-2.3" width="15.1" height="4.7" rx="2" fill="#2A2A2A"/></g><g transform="translate(512.6,662.1) rotate(-15.2)"><rect x="-9" y="-6.5" width="18" height="13" rx="2" fill="#B0B0B0"/><line x1="-5.4" y1="0" x2="5.4" y2="0" stroke-width="1.2"/></g><g transform="translate(523.9,657.7) rotate(-27.3)"><rect x="-7.6" y="-2.3" width="15.1" height="4.7" rx="2" fill="#2A2A2A"/></g><g transform="translate(533.7,651.2) rotate(-39.9)"><rect x="-9" y="-6.5" width="18" height="13" rx="2" fill="#B0B0B0"/><line x1="-5.4" y1="0" x2="5.4" y2="0" stroke-width="1.2"/></g><g transform="translate(541.6,642.9) rotate(-53.4)"><rect x="-7.6" y="-2.3" width="15.1" height="4.7" rx="2" fill="#2A2A2A"/></g><g transform="translate(547.1,633.1) rotate(-68.1)"><rect x="-9" y="-6.5" width="18" height="13" rx="2" fill="#B0B0B0"/><line x1="-5.4" y1="0" x2="5.4" y2="0" stroke-width="1.2"/></g></g><g stroke="#2A2A2A" stroke-width="2.0" opacity="1"><g transform="translate(395.2,706.6) rotate(55.5)"><rect x="-9" y="-6.5" width="18" height="13" rx="2" fill="#B0B0B0"/><line x1="-5.4" y1="0" x2="5.4" y2="0" stroke-width="1.2"/></g><g transform="translate(407.4,721.4) rotate(45.2)"><rect x="-7.6" y="-2.3" width="15.1" height="4.7" rx="2" fill="#2A2A2A"/></g><g transform="translate(420.5,732.2) rotate(33.7)"><rect x="-9" y="-6.5" width="18" height="13" rx="2" fill="#B0B0B0"/><line x1="-5.4" y1="0" x2="5.4" y2="0" stroke-width="1.2"/></g><g transform="translate(434,739.3) rotate(21.6)"><rect x="-7.6" y="-2.3" width="15.1" height="4.7" rx="2" fill="#2A2A2A"/></g><g transform="translate(447.6,743.1) rotate(9.3)"><rect x="-9" y="-6.5" width="18" height="13" rx="2" fill="#B0B0B0"/><line x1="-5.4" y1="0" x2="5.4" y2="0" stroke-width="1.2"/></g><g transform="translate(460.9,743.9) rotate(-3)"><rect x="-7.6" y="-2.3" width="15.1" height="4.7" rx="2" fill="#2A2A2A"/></g><g transform="translate(473.4,741.9) rotate(-15.2)"><rect x="-9" y="-6.5" width="18" height="13" rx="2" fill="#B0B0B0"/><line x1="-5.4" y1="0" x2="5.4" y2="0" stroke-width="1.2"/></g><g transform="translate(484.7,737.5) rotate(-27.3)"><rect x="-7.6" y="-2.3" width="15.1" height="4.7" rx="2" fill="#2A2A2A"/></g><g transform="translate(494.5,731) rotate(-39.9)"><rect x="-9" y="-6.5" width="18" height="13" rx="2" fill="#B0B0B0"/><line x1="-5.4" y1="0" x2="5.4" y2="0" stroke-width="1.2"/></g><g transform="translate(502.4,722.7) rotate(-53.4)"><rect x="-7.6" y="-2.3" width="15.1" height="4.7" rx="2" fill="#2A2A2A"/></g><g transform="translate(507.9,712.9) rotate(-68.1)"><rect x="-9" y="-6.5" width="18" height="13" rx="2" fill="#B0B0B0"/><line x1="-5.4" y1="0" x2="5.4" y2="0" stroke-width="1.2"/></g></g><g stroke="#2A2A2A" stroke-width="2.0" opacity="1"><g transform="translate(356,786.4) rotate(55.5)"><rect x="-9" y="-6.5" width="18" height="13" rx="2" fill="#B0B0B0"/><line x1="-5.4" y1="0" x2="5.4" y2="0" stroke-width="1.2"/></g><g transform="translate(368.2,801.2) rotate(45.2)"><rect x="-7.6" y="-2.3" width="15.1" height="4.7" rx="2" fill="#2A2A2A"/></g><g transform="translate(381.3,812) rotate(33.7)"><rect x="-9" y="-6.5" width="18" height="13" rx="2" fill="#B0B0B0"/><line x1="-5.4" y1="0" x2="5.4" y2="0" stroke-width="1.2"/></g><g transform="translate(394.8,819.1) rotate(21.6)"><rect x="-7.6" y="-2.3" width="15.1" height="4.7" rx="2" fill="#2A2A2A"/></g><g transform="translate(408.4,822.9) rotate(9.3)"><rect x="-9" y="-6.5" width="18" height="13" rx="2" fill="#B0B0B0"/><line x1="-5.4" y1="0" x2="5.4" y2="0" stroke-width="1.2"/></g><g transform="translate(421.6,823.7) rotate(-3)"><rect x="-7.6" y="-2.3" width="15.1" height="4.7" rx="2" fill="#2A2A2A"/></g><g transform="translate(434.2,821.7) rotate(-15.2)"><rect x="-9" y="-6.5" width="18" height="13" rx="2" fill="#B0B0B0"/><line x1="-5.4" y1="0" x2="5.4" y2="0" stroke-width="1.2"/></g><g transform="translate(445.5,817.3) rotate(-27.3)"><rect x="-7.6" y="-2.3" width="15.1" height="4.7" rx="2" fill="#2A2A2A"/></g><g transform="translate(455.3,810.8) rotate(-39.9)"><rect x="-9" y="-6.5" width="18" height="13" rx="2" fill="#B0B0B0"/><line x1="-5.4" y1="0" x2="5.4" y2="0" stroke-width="1.2"/></g><g transform="translate(463.2,802.5) rotate(-53.4)"><rect x="-7.6" y="-2.3" width="15.1" height="4.7" rx="2" fill="#2A2A2A"/></g><g transform="translate(468.7,792.7) rotate(-68.1)"><rect x="-9" y="-6.5" width="18" height="13" rx="2" fill="#B0B0B0"/><line x1="-5.4" y1="0" x2="5.4" y2="0" stroke-width="1.2"/></g></g><g transform="translate(250,850) rotate(8) scale(1.1,1.1)" ><path d="M-58,84 C-70,120 -66,200 -60,260 L60,260 C66,200 70,120 58,84 C30,74 -30,74 -58,84 Z" fill="#B0B0B0" stroke="#2A2A2A" stroke-width="3.5"/><path d="M0,86 L0,258" stroke="#2A2A2A" stroke-width="2"/><path d="M-60,258 L-52,470 L-10,470 L0,300 L10,470 L52,470 L60,258 Z" fill="#3A3A3A" stroke="#2A2A2A" stroke-width="3.5"/></g><g transform="translate(250,850) rotate(8) scale(1.1,1.1)" ><rect x="-15" y="42" width="30" height="34" fill="#FFFFFF" stroke="#2A2A2A" stroke-width="3"/><path d="M-44,-30 C-46,15 -28,58 0,64 C28,58 46,15 44,-30 C40,-72 -40,-72 -44,-30 Z" fill="#FFFFFF" stroke="#2A2A2A" stroke-width="3.5"/><path d="M-44,-4 C-56,-8 -56,16 -42,18 M44,-4 C56,-8 56,16 42,18" fill="#FFFFFF" stroke="#2A2A2A" stroke-width="3"/><polygon points="-58,-6 -68,-46 -50,-50 -58,-88 -26,-72 -14,-110 6,-80 34,-102 36,-68 66,-72 54,-36 60,-4 46,-18 36,-44 24,-26 14,-48 2,-26 -10,-46 -22,-28 -34,-46 -46,-14" fill="#2A2A2A" stroke="#2A2A2A" stroke-width="3" stroke-linejoin="round"/><polygon points="4,-44 14,-4 22,-40" fill="#2A2A2A"/><ellipse cx="-20" cy="2" rx="11" ry="4.4" fill="#FFFFFF" stroke="#2A2A2A" stroke-width="3"/><circle cx="-20" cy="2" r="5" fill="#2A2A2A"/><g stroke="#E5172F" stroke-width="1.6"><line x1="-29" y1="-1" x2="-11" y2="-1"/><line x1="-29" y1="3" x2="-11" y2="3"/><line x1="-28" y1="7" x2="-12" y2="7"/></g><ellipse cx="20" cy="2" rx="11" ry="4.4" fill="#FFFFFF" stroke="#2A2A2A" stroke-width="3"/><circle cx="20" cy="2" r="5" fill="#2A2A2A"/><g stroke="#E5172F" stroke-width="1.6"><line x1="11" y1="-1" x2="29" y2="-1"/><line x1="11" y1="3" x2="29" y2="3"/><line x1="12" y1="7" x2="28" y2="7"/></g><path d="M-36,-16 L-8,-10 M36,-16 L8,-10" stroke="#2A2A2A" stroke-width="6" stroke-linecap="round"/><rect x="-15" y="30" width="30" height="12" rx="3" fill="#FFFFFF" stroke="#2A2A2A" stroke-width="3"/><path d="M-15,36 L15,36 M-5,30 L-5,42 M5,30 L5,42" stroke="#2A2A2A" stroke-width="2"/><path d="M26,14 L38,10 M28,22 L40,18" stroke="#2A2A2A" stroke-width="2"/><path d="M-34,24 l10,2" stroke="#2A2A2A" stroke-width="2"/><path d="M-30,66 Q0,84 30,66 L34,80 Q0,100 -34,80 Z" fill="#D6D6D6" stroke="#2A2A2A" stroke-width="3"/></g><g><rect x="596" y="40" width="168" height="60" fill="#1E1E1E" stroke="#E5172F" stroke-width="3"/><text x="680" y="70" font-family="Dela Gothic One, IPAGothic, sans-serif" font-size="40" font-weight="400" fill="#E5172F" text-anchor="middle" dominant-baseline="central" >00:02</text></g><path d="M196.8,636 L230,750 L257.8,632.9" fill="#FFFFFF" stroke="#2A2A2A" stroke-width="3"/><ellipse cx="200" cy="600" rx="178.2" ry="45" fill="#FFFFFF" stroke="#2A2A2A" stroke-width="3"/><path d="M196.8,636 L230,750 L257.8,632.9 Z" fill="#FFFFFF" stroke="none"/><text x="200" y="600" font-family="Zen Kaku Gothic New, IPAGothic, sans-serif" font-size="32" font-weight="700" fill="#2A2A2A" text-anchor="middle" dominant-baseline="central" >お前の借り物──</text><path d="M349.9,1089 L320,960 L274.7,1099.7" fill="#FFFFFF" stroke="#2A2A2A" stroke-width="3"/><ellipse cx="470" cy="1120" rx="295.3" ry="45" fill="#FFFFFF" stroke="#2A2A2A" stroke-width="3"/><path d="M349.9,1089 L320,960 L274.7,1099.7 Z" fill="#FFFFFF" stroke="none"/><text x="470" y="1120" font-family="Zen Kaku Gothic New, IPAGothic, sans-serif" font-size="32" font-weight="700" fill="#2A2A2A" text-anchor="middle" dominant-baseline="central" >三秒だけ、俺が差し押さえる。</text></svg>
