<svg xmlns="http://www.w3.org/2000/svg" viewBox="0 0 800 1400"><rect width="800" height="1400" fill="#1E1E1E"/><rect width="800" height="1400" fill="#1E1E1E"/><path d="M-40,520 C80,40 520,-40 860,180" fill="none" stroke="#D6D6D6" stroke-width="22" opacity="0.5"/><path d="M-40,600 C120,180 520,80 860,260" fill="none" stroke="#D6D6D6" stroke-width="14" opacity="0.35"/><rect x="470" y="60" width="150" height="500" fill="#3A3A3A" stroke="#B0B0B0" stroke-width="2"/><path d="M450,60 L545,10 L640,60 Z" fill="#3A3A3A" stroke="#B0B0B0" stroke-width="2"/><rect x="490" y="120" width="24" height="30" fill="#1E1E1E"/><rect x="530" y="120" width="24" height="30" fill="#1E1E1E"/><rect x="570" y="120" width="24" height="30" fill="#1E1E1E"/><rect x="490" y="180" width="24" height="30" fill="#1E1E1E"/><rect x="530" y="180" width="24" height="30" fill="#1E1E1E"/><rect x="570" y="180" width="24" height="30" fill="#1E1E1E"/><rect x="490" y="240" width="24" height="30" fill="#1E1E1E"/><rect x="530" y="240" width="24" height="30" fill="#1E1E1E"/><rect x="570" y="240" width="24" height="30" fill="#1E1E1E"/><rect x="490" y="300" width="24" height="30" fill="#1E1E1E"/><rect x="530" y="300" width="24" height="30" fill="#1E1E1E"/><rect x="570" y="300" width="24" height="30" fill="#1E1E1E"/><rect x="490" y="360" width="24" height="30" fill="#1E1E1E"/><rect x="530" y="360" width="24" height="30" fill="#1E1E1E"/><rect x="570" y="360" width="24" height="30" fill="#1E1E1E"/><rect x="490" y="420" width="24" height="30" fill="#1E1E1E"/><rect x="530" y="420" width="24" height="30" fill="#1E1E1E"/><rect x="570" y="420" width="24" height="30" fill="#1E1E1E"/><rect x="490" y="480" width="24" height="30" fill="#1E1E1E"/><rect x="530" y="480" width="24" height="30" fill="#1E1E1E"/><rect x="570" y="480" width="24" height="30" fill="#1E1E1E"/><rect x="530" y="120" width="40" height="44" fill="#D6D6D6"/><path d="M546,164 L546,140 C546,130 556,130 556,140 L556,164 Z" fill="#1E1E1E"/><g fill="#3A3A3A"><rect x="0" y="420" width="120" height="140"/><rect x="120" y="470" width="90" height="90"/><rect x="230" y="440" width="110" height="120"/><rect x="660" y="450" width="140" height="110"/></g><path d="M0,560 L800,560" stroke="#2A2A2A" stroke-width="6"/><rect x="0" y="580" width="800" height="820" fill="#FFFFFF"/><path d="M0,580 L800,580 L800,700 C620,660 420,700 330,760 C260,820 160,900 0,940 Z" fill="#B0B0B0" stroke="#2A2A2A" stroke-width="4"/><g stroke="#2A2A2A" stroke-width="3" fill="none"><path d="M40,600 C80,700 100,820 60,930"/><path d="M140,600 C180,700 200,780 170,880"/><path d="M240,600 C280,660 300,720 290,800"/><path d="M500,600 C520,640 560,660 620,676"/></g><path d="M0,940 C80,1000 120,1100 100,1400 L0,1400 Z" fill="#B0B0B0" stroke="#2A2A2A" stroke-width="4"/><path d="M360,820 L700,780" stroke="#2A2A2A" stroke-width="10" stroke-linecap="round"/><defs><clipPath id="p40eye"><path d="M300,1010 C400,880 640,870 760,990 C650,1100 420,1110 300,1010 Z"/></clipPath></defs><path d="M300,1010 C400,880 640,870 760,990 C650,1100 420,1110 300,1010 Z" fill="#FFFFFF" stroke="#2A2A2A" stroke-width="5"/><g clip-path="url(#p40eye)"><circle cx="530" cy="995" r="118" fill="#B0B0B0" stroke="#2A2A2A" stroke-width="4"/><circle cx="530" cy="995" r="40" fill="#2A2A2A"/><text x="440" y="900" font-family="Zen Kaku Gothic New, IPAGothic, sans-serif" font-size="26" font-weight="700" fill="#FFFFFF" text-anchor="middle" dominant-baseline="central" >0.3%</text><text x="440" y="952" font-family="Zen Kaku Gothic New, IPAGothic, sans-serif" font-size="26" font-weight="700" fill="#2A2A2A" text-anchor="middle" dominant-baseline="central" >%3.0</text><text x="440" y="1004" font-family="Zen Kaku Gothic New, IPAGothic, sans-serif" font-size="26" font-weight="700" fill="#FFFFFF" text-anchor="middle" dominant-baseline="central" >0.3%</text><text x="440" y="1056" font-family="Zen Kaku Gothic New, IPAGothic, sans-serif" font-size="26" font-weight="700" fill="#2A2A2A" text-anchor="middle" dominant-baseline="central" >%3.0</text><text x="500" y="926" font-family="Zen Kaku Gothic New, IPAGothic, sans-serif" font-size="26" font-weight="700" fill="#FFFFFF" text-anchor="middle" dominant-baseline="central" >−∞</text><text x="500" y="978" font-family="Zen Kaku Gothic New, IPAGothic, sans-serif" font-size="26" font-weight="700" fill="#2A2A2A" text-anchor="middle" dominant-baseline="central" >∞</text><text x="500" y="1030" font-family="Zen Kaku Gothic New, IPAGothic, sans-serif" font-size="26" font-weight="700" fill="#FFFFFF" text-anchor="middle" dominant-baseline="central" >−∞</text><text x="500" y="1082" font-family="Zen Kaku Gothic New, IPAGothic, sans-serif" font-size="26" font-weight="700" fill="#2A2A2A" text-anchor="middle" dominant-baseline="central" >∞</text><text x="560" y="900" font-family="Zen Kaku Gothic New, IPAGothic, sans-serif" font-size="26" font-weight="700" fill="#FFFFFF" text-anchor="middle" dominant-baseline="central" >AA→0</text><text x="560" y="952" font-family="Zen Kaku Gothic New, IPAGothic, sans-serif" font-size="26" font-weight="700" fill="#2A2A2A" text-anchor="middle" dominant-baseline="central" >0→AA</text><text x="560" y="1004" font-family="Zen Kaku Gothic New, IPAGothic, sans-serif" font-size="26" font-weight="700" fill="#FFFFFF" text-anchor="middle" dominant-baseline="central" >AA→0</text><text x="560" y="1056" font-family="Zen Kaku Gothic New, IPAGothic, sans-serif" font-size="26" font-weight="700" fill="#2A2A2A" text-anchor="middle" dominant-baseline="central" >0→AA</text><text x="620" y="926" font-family="Zen Kaku Gothic New, IPAGothic, sans-serif" font-size="26" font-weight="700" fill="#FFFFFF" text-anchor="middle" dominant-baseline="central" >3.00s</text><text x="620" y="978" font-family="Zen Kaku Gothic New, IPAGothic, sans-serif" font-size="26" font-weight="700" fill="#2A2A2A" text-anchor="middle" dominant-baseline="central" >s00.3</text><text x="620" y="1030" font-family="Zen Kaku Gothic New, IPAGothic, sans-serif" font-size="26" font-weight="700" fill="#FFFFFF" text-anchor="middle" dominant-baseline="central" >3.00s</text><text x="620" y="1082" font-family="Zen Kaku Gothic New, IPAGothic, sans-serif" font-size="26" font-weight="700" fill="#2A2A2A" text-anchor="middle" dominant-baseline="central" >s00.3</text><circle cx="572" cy="950" r="18" fill="#FFFFFF"/></g><path d="M300,1010 C400,880 640,870 760,990" fill="none" stroke="#2A2A2A" stroke-width="10"/><path d="M350,950 l-24,-26 M430,906 l-12,-30 M640,910 l14,-28 M720,950 l26,-22" stroke="#2A2A2A" stroke-width="5"/><text x="780" y="1380" font-family="Zen Kaku Gothic New, IPAGothic, sans-serif" font-size="26" font-weight="400" fill="#B0B0B0" text-anchor="end" dominant-baseline="central" >※瞳＝琥珀色（〈眼の貸主〉）</text><path d="M370.3,1167.5 L380,1080 L326.4,1143.1" fill="#FFFFFF" stroke="#2A2A2A" stroke-width="3"/><ellipse cx="250" cy="1210" rx="178.2" ry="99.1" fill="#FFFFFF" stroke="#2A2A2A" stroke-width="3"/><path d="M370.3,1167.5 L380,1080 L326.4,1143.1 Z" fill="#FFFFFF" stroke="none"/><text x="250" y="1167.8" font-family="Zen Kaku Gothic New, IPAGothic, sans-serif" font-size="32" font-weight="700" fill="#2A2A2A" text-anchor="middle" dominant-baseline="central" >……ふふ。</text><text x="250" y="1210" font-family="Zen Kaku Gothic New, IPAGothic, sans-serif" font-size="32" font-weight="700" fill="#2A2A2A" text-anchor="middle" dominant-baseline="central" >市場にない銘柄、</text><text x="250" y="1252.2" font-family="Zen Kaku Gothic New, IPAGothic, sans-serif" font-size="32" font-weight="700" fill="#2A2A2A" text-anchor="middle" dominant-baseline="central" >見つけた。</text><text x="700" y="1260" font-family="Dela Gothic One, IPAGothic, sans-serif" font-size="40" font-weight="400" fill="#2A2A2A" text-anchor="middle" dominant-baseline="central" >つづく</text></svg>
