<svg xmlns="http://www.w3.org/2000/svg" viewBox="0 0 800 900"><title>LEDGERBREAKER 第1話 コマ7 彩色</title><defs><filter id="gl7" x="-50%" y="-50%" width="200%" height="200%"><feGaussianBlur stdDeviation="7"/></filter></defs><path d="M0,0 L800,0 L800,900 L0,900Z" fill="#1B1F2E"/><path d="M564,466.8 L1304.8,453.4" fill="none" stroke="#3E5A5C" stroke-width="7" stroke-linejoin="round" stroke-linecap="round" opacity="0.9"/><path d="M601.7,505.4 L1293.2,615.3" fill="none" stroke="#3E5A5C" stroke-width="3" stroke-linejoin="round" stroke-linecap="round" opacity="0.9"/><path d="M546.1,536.5 L1232.3,824.5" fill="none" stroke="#3E5A5C" stroke-width="7" stroke-linejoin="round" stroke-linecap="round" opacity="0.9"/><path d="M533.2,566.1 L1148.6,977" fill="none" stroke="#3E5A5C" stroke-width="5" stroke-linejoin="round" stroke-linecap="round" opacity="0.9"/><path d="M514.1,591.8 L1036.7,1111" fill="none" stroke="#3E5A5C" stroke-width="5" stroke-linejoin="round" stroke-linecap="round" opacity="0.9"/><path d="M504.2,640.4 L890.5,1227.8" fill="none" stroke="#3E5A5C" stroke-width="3" stroke-linejoin="round" stroke-linecap="round" opacity="0.9"/><path d="M459.8,664.4 L671.4,1329.7" fill="none" stroke="#3E5A5C" stroke-width="3" stroke-linejoin="round" stroke-linecap="round" opacity="0.9"/><path d="M421.8,660.3 L491.8,1365.8" fill="none" stroke="#3E5A5C" stroke-width="3" stroke-linejoin="round" stroke-linecap="round" opacity="0.9"/><path d="M393.5,691.3 L353.5,1368.5" fill="none" stroke="#3E5A5C" stroke-width="5" stroke-linejoin="round" stroke-linecap="round" opacity="0.9"/><path d="M350.1,661.4 L134.1,1328.3" fill="none" stroke="#3E5A5C" stroke-width="7" stroke-linejoin="round" stroke-linecap="round" opacity="0.9"/><path d="M309,661.7 L-29.3,1258.3" fill="none" stroke="#3E5A5C" stroke-width="3" stroke-linejoin="round" stroke-linecap="round" opacity="0.9"/><path d="M287.5,626.1 L-168.9,1163.3" fill="none" stroke="#3E5A5C" stroke-width="3" stroke-linejoin="round" stroke-linecap="round" opacity="0.9"/><path d="M258.5,590.4 L-316,1008.7" fill="none" stroke="#3E5A5C" stroke-width="3" stroke-linejoin="round" stroke-linecap="round" opacity="0.9"/><path d="M233.5,552.5 L-419.6,830.5" fill="none" stroke="#3E5A5C" stroke-width="5" stroke-linejoin="round" stroke-linecap="round" opacity="0.9"/><path d="M232.5,506.6 L-478.7,640.5" fill="none" stroke="#3E5A5C" stroke-width="5" stroke-linejoin="round" stroke-linecap="round" opacity="0.9"/><path d="M199.6,470.8 L-495,473.2" fill="none" stroke="#3E5A5C" stroke-width="5" stroke-linejoin="round" stroke-linecap="round" opacity="0.9"/><path d="M210.8,429.3 L-479.1,301.4" fill="none" stroke="#3E5A5C" stroke-width="7" stroke-linejoin="round" stroke-linecap="round" opacity="0.9"/><path d="M265.4,396.2 L-406.1,80" fill="none" stroke="#3E5A5C" stroke-width="5" stroke-linejoin="round" stroke-linecap="round" opacity="0.9"/><path d="M241.5,338.6 L-321.7,-60.9" fill="none" stroke="#3E5A5C" stroke-width="7" stroke-linejoin="round" stroke-linecap="round" opacity="0.9"/><path d="M279.4,318.3 L-200.8,-195.6" fill="none" stroke="#3E5A5C" stroke-width="3" stroke-linejoin="round" stroke-linecap="round" opacity="0.9"/><path d="M311.5,307.2 L-75.8,-290.8" fill="none" stroke="#3E5A5C" stroke-width="5" stroke-linejoin="round" stroke-linecap="round" opacity="0.9"/><path d="M343.4,284.7 L95.9,-375.2" fill="none" stroke="#3E5A5C" stroke-width="3" stroke-linejoin="round" stroke-linecap="round" opacity="0.9"/><path d="M396.3,300.1 L354.3,-428.6" fill="none" stroke="#3E5A5C" stroke-width="7" stroke-linejoin="round" stroke-linecap="round" opacity="0.9"/><path d="M427.7,248.6 L505.9,-424.3" fill="none" stroke="#3E5A5C" stroke-width="5" stroke-linejoin="round" stroke-linecap="round" opacity="0.9"/><path d="M455.1,290.1 L668.7,-390.5" fill="none" stroke="#3E5A5C" stroke-width="5" stroke-linejoin="round" stroke-linecap="round" opacity="0.9"/><path d="M495,301.9 L861.5,-305.6" fill="none" stroke="#3E5A5C" stroke-width="3" stroke-linejoin="round" stroke-linecap="round" opacity="0.9"/><path d="M530.4,330.4 L1037.7,-170.1" fill="none" stroke="#3E5A5C" stroke-width="7" stroke-linejoin="round" stroke-linecap="round" opacity="0.9"/><path d="M556.5,336.9 L1108.3,-91.6" fill="none" stroke="#3E5A5C" stroke-width="5" stroke-linejoin="round" stroke-linecap="round" opacity="0.9"/><path d="M597.8,379.5 L1232.7,116.6" fill="none" stroke="#3E5A5C" stroke-width="5" stroke-linejoin="round" stroke-linecap="round" opacity="0.9"/><path d="M573.5,426.2 L1280.9,263.1" fill="none" stroke="#3E5A5C" stroke-width="7" stroke-linejoin="round" stroke-linecap="round" opacity="0.9"/><defs><path id="p7q1" d="M18,150 L42,148 L46,900 L14,900Z"/><clipPath id="p7k1"><use href="#p7q1"/></clipPath></defs><use href="#p7q1" fill="#5E3222"/><use href="#p7q1" fill="#8A4B32" transform="translate(-8 0)" clip-path="url(#p7k1)"/><use href="#p7q1" fill="none" stroke="#2A2A2A" stroke-width="3" stroke-linejoin="round"/><defs><path id="p7q2" d="M760,120 L784,118 L790,900 L758,900Z"/><clipPath id="p7k2"><use href="#p7q2"/></clipPath></defs><use href="#p7q2" fill="#5E3222"/><use href="#p7q2" fill="#8A4B32" transform="translate(-8 0)" clip-path="url(#p7k2)"/><use href="#p7q2" fill="none" stroke="#2A2A2A" stroke-width="3" stroke-linejoin="round"/><path d="M92,196 L92,232" fill="none" stroke="#2A2A2A" stroke-width="2" stroke-linejoin="round" stroke-linecap="round"/><path d="M114.4,262 C114.4,266.3 113.2,271.2 111.4,275 C109.5,278.8 106.4,282.3 103.2,284.5 C100,286.7 95.7,288 92,288 C88.3,288 84,286.7 80.8,284.5 C77.6,282.3 74.5,278.8 72.6,275 C70.8,271.2 69.6,266.3 69.6,262 C69.6,257.7 70.8,252.8 72.6,249 C74.5,245.2 77.6,241.7 80.8,239.5 C84,237.3 88.3,236 92,236 C95.7,236 100,237.3 103.2,239.5 C106.4,241.7 109.5,245.2 111.4,249 C113.2,252.8 114.4,257.7 114.4,262Z" fill="#C98A35" stroke="#C98A35" stroke-width="40" stroke-linejoin="round" opacity="0.5" filter="url(#gl7)"/><defs><path id="p7q3" d="M114.4,262 C114.4,266.3 113.2,271.2 111.4,275 C109.5,278.8 106.4,282.3 103.2,284.5 C100,286.7 95.7,288 92,288 C88.3,288 84,286.7 80.8,284.5 C77.6,282.3 74.5,278.8 72.6,275 C70.8,271.2 69.6,266.3 69.6,262 C69.6,257.7 70.8,252.8 72.6,249 C74.5,245.2 77.6,241.7 80.8,239.5 C84,237.3 88.3,236 92,236 C95.7,236 100,237.3 103.2,239.5 C106.4,241.7 109.5,245.2 111.4,249 C113.2,252.8 114.4,257.7 114.4,262Z"/><clipPath id="p7k3"><use href="#p7q3"/></clipPath></defs><use href="#p7q3" fill="#F2B65A"/><g clip-path="url(#p7k3)" fill="#C98A35"><path d="M101.1,236 C103.9,227.3 115.2,227.3 118,236 C120.8,244.7 120.8,279.3 118,288 C115.2,296.7 103.9,296.7 101.1,288 C98.3,279.3 98.3,244.7 101.1,236Z"/></g><use href="#p7q3" fill="none" stroke="#C98A35" stroke-width="2.4" stroke-linejoin="round"/><path d="M80.8,237.3 C80,241.4 75.8,253.8 75.8,262 C75.8,270.2 80,282.6 80.8,286.7" fill="none" stroke="#C98A35" stroke-width="1.8" stroke-linejoin="round" stroke-linecap="round"/><path d="M92,237.3 C92,241.4 92,253.8 92,262 C92,270.2 92,282.6 92,286.7" fill="none" stroke="#C98A35" stroke-width="1.8" stroke-linejoin="round" stroke-linecap="round"/><path d="M103.2,237.3 C104,241.4 108.2,253.8 108.2,262 C108.2,270.2 104,282.6 103.2,286.7" fill="none" stroke="#C98A35" stroke-width="1.8" stroke-linejoin="round" stroke-linecap="round"/><path d="M79,230 L105,230 L105,239 L79,239Z" fill="#8A4B32" stroke="#2A2A2A" stroke-width="2.4" stroke-linejoin="round"/><path d="M79,285 L105,285 L105,294 L79,294Z" fill="#8A4B32" stroke="#2A2A2A" stroke-width="2.4" stroke-linejoin="round"/><path d="M706,166 L706,202" fill="none" stroke="#2A2A2A" stroke-width="2" stroke-linejoin="round" stroke-linecap="round"/><path d="M728.4,232 C728.4,236.3 727.2,241.2 725.4,245 C723.5,248.8 720.4,252.3 717.2,254.5 C714,256.7 709.7,258 706,258 C702.3,258 698,256.7 694.8,254.5 C691.6,252.3 688.5,248.8 686.6,245 C684.8,241.2 683.6,236.3 683.6,232 C683.6,227.7 684.8,222.8 686.6,219 C688.5,215.2 691.6,211.7 694.8,209.5 C698,207.3 702.3,206 706,206 C709.7,206 714,207.3 717.2,209.5 C720.4,211.7 723.5,215.2 725.4,219 C727.2,222.8 728.4,227.7 728.4,232Z" fill="#C98A35" stroke="#C98A35" stroke-width="40" stroke-linejoin="round" opacity="0.5" filter="url(#gl7)"/><defs><path id="p7q4" d="M728.4,232 C728.4,236.3 727.2,241.2 725.4,245 C723.5,248.8 720.4,252.3 717.2,254.5 C714,256.7 709.7,258 706,258 C702.3,258 698,256.7 694.8,254.5 C691.6,252.3 688.5,248.8 686.6,245 C684.8,241.2 683.6,236.3 683.6,232 C683.6,227.7 684.8,222.8 686.6,219 C688.5,215.2 691.6,211.7 694.8,209.5 C698,207.3 702.3,206 706,206 C709.7,206 714,207.3 717.2,209.5 C720.4,211.7 723.5,215.2 725.4,219 C727.2,222.8 728.4,227.7 728.4,232Z"/><clipPath id="p7k4"><use href="#p7q4"/></clipPath></defs><use href="#p7q4" fill="#F2B65A"/><g clip-path="url(#p7k4)" fill="#C98A35"><path d="M715.1,206 C717.9,197.3 729.2,197.3 732,206 C734.8,214.7 734.8,249.3 732,258 C729.2,266.7 717.9,266.7 715.1,258 C712.3,249.3 712.3,214.7 715.1,206Z"/></g><use href="#p7q4" fill="none" stroke="#C98A35" stroke-width="2.4" stroke-linejoin="round"/><path d="M694.8,207.3 C694,211.4 689.8,223.8 689.8,232 C689.8,240.2 694,252.6 694.8,256.7" fill="none" stroke="#C98A35" stroke-width="1.8" stroke-linejoin="round" stroke-linecap="round"/><path d="M706,207.3 C706,211.4 706,223.8 706,232 C706,240.2 706,252.6 706,256.7" fill="none" stroke="#C98A35" stroke-width="1.8" stroke-linejoin="round" stroke-linecap="round"/><path d="M717.2,207.3 C718,211.4 722.2,223.8 722.2,232 C722.2,240.2 718,252.6 717.2,256.7" fill="none" stroke="#C98A35" stroke-width="1.8" stroke-linejoin="round" stroke-linecap="round"/><path d="M693,200 L719,200 L719,209 L693,209Z" fill="#8A4B32" stroke="#2A2A2A" stroke-width="2.4" stroke-linejoin="round"/><path d="M693,255 L719,255 L719,264 L693,264Z" fill="#8A4B32" stroke="#2A2A2A" stroke-width="2.4" stroke-linejoin="round"/><defs><path id="p7q5" d="M0,40 L800,10 L800,150 L0,190Z"/><clipPath id="p7k5"><use href="#p7q5"/></clipPath></defs><use href="#p7q5" fill="#E9E1CF"/><g clip-path="url(#p7k5)" fill="#BDB4A0"><path d="M0,160 C133.3,146.7 666.7,120 800,120 C933.3,120 933.3,146.7 800,160 C666.7,173.3 133.3,200 0,200 C-133.3,200 -133.3,173.3 0,160Z"/></g><use href="#p7q5" fill="none" stroke="#2A2A2A" stroke-width="3" stroke-linejoin="round"/><defs><path id="p7q6" d="M40,38.5 L90,36.6 L90,185.5 L40,188Z"/><clipPath id="p7k6"><use href="#p7q6"/></clipPath></defs><use href="#p7q6" fill="#8A4B32"/><g clip-path="url(#p7k6)" fill="#5E3222"><path d="M40,158 C48.3,150.6 81.7,148.5 90,155.5 C98.3,162.5 98.3,192.6 90,200 C81.7,207.4 48.3,207 40,200 C31.7,193 31.7,165.4 40,158Z"/></g><use href="#p7q6" fill="none" stroke="#2A2A2A" stroke-width="2" stroke-linejoin="round"/><defs><path id="p7q7" d="M140,34.8 L190,32.9 L190,180.5 L140,183Z"/><clipPath id="p7k7"><use href="#p7q7"/></clipPath></defs><use href="#p7q7" fill="#8A4B32"/><g clip-path="url(#p7k7)" fill="#5E3222"><path d="M140,153 C148.3,144.8 181.7,142.7 190,150.5 C198.3,158.3 198.3,191.8 190,200 C181.7,208.2 148.3,207.8 140,200 C131.7,192.2 131.7,161.2 140,153Z"/></g><use href="#p7q7" fill="none" stroke="#2A2A2A" stroke-width="2" stroke-linejoin="round"/><defs><path id="p7q8" d="M240,31 L290,29.1 L290,175.5 L240,178Z"/><clipPath id="p7k8"><use href="#p7q8"/></clipPath></defs><use href="#p7q8" fill="#8A4B32"/><g clip-path="url(#p7k8)" fill="#5E3222"><path d="M240,148 C248.3,138.9 281.7,136.8 290,145.5 C298.3,154.2 298.3,190.9 290,200 C281.7,209.1 248.3,208.7 240,200 C231.7,191.3 231.7,157.1 240,148Z"/></g><use href="#p7q8" fill="none" stroke="#2A2A2A" stroke-width="2" stroke-linejoin="round"/><defs><path id="p7q9" d="M340,27.2 L390,25.4 L390,170.5 L340,173Z"/><clipPath id="p7k9"><use href="#p7q9"/></clipPath></defs><use href="#p7q9" fill="#8A4B32"/><g clip-path="url(#p7k9)" fill="#5E3222"><path d="M340,143 C348.3,133.1 381.7,131 390,140.5 C398.3,150 398.3,190.1 390,200 C381.7,209.9 348.3,209.5 340,200 C331.7,190.5 331.7,152.9 340,143Z"/></g><use href="#p7q9" fill="none" stroke="#2A2A2A" stroke-width="2" stroke-linejoin="round"/><defs><path id="p7q10" d="M440,23.5 L490,21.6 L490,165.5 L440,168Z"/><clipPath id="p7k10"><use href="#p7q10"/></clipPath></defs><use href="#p7q10" fill="#8A4B32"/><g clip-path="url(#p7k10)" fill="#5E3222"><path d="M440,138 C448.3,127.2 481.7,125.2 490,135.5 C498.3,145.8 498.3,189.2 490,200 C481.7,210.8 448.3,210.3 440,200 C431.7,189.7 431.7,148.8 440,138Z"/></g><use href="#p7q10" fill="none" stroke="#2A2A2A" stroke-width="2" stroke-linejoin="round"/><defs><path id="p7q11" d="M540,19.8 L590,17.9 L590,160.5 L540,163Z"/><clipPath id="p7k11"><use href="#p7q11"/></clipPath></defs><use href="#p7q11" fill="#8A4B32"/><g clip-path="url(#p7k11)" fill="#5E3222"><path d="M540,133 C548.3,121.4 581.7,119.3 590,130.5 C598.3,141.7 598.3,188.4 590,200 C581.7,211.6 548.3,211.2 540,200 C531.7,188.8 531.7,144.6 540,133Z"/></g><use href="#p7q11" fill="none" stroke="#2A2A2A" stroke-width="2" stroke-linejoin="round"/><defs><path id="p7q12" d="M640,16 L690,14.1 L690,155.5 L640,158Z"/><clipPath id="p7k12"><use href="#p7q12"/></clipPath></defs><use href="#p7q12" fill="#8A4B32"/><g clip-path="url(#p7k12)" fill="#5E3222"><path d="M640,128 C648.3,115.6 681.7,113.5 690,125.5 C698.3,137.5 698.3,187.6 690,200 C681.7,212.4 648.3,212 640,200 C631.7,188 631.7,140.4 640,128Z"/></g><use href="#p7q12" fill="none" stroke="#2A2A2A" stroke-width="2" stroke-linejoin="round"/><defs><path id="p7q13" d="M740,12.2 L790,10.4 L790,150.5 L740,153Z"/><clipPath id="p7k13"><use href="#p7q13"/></clipPath></defs><use href="#p7q13" fill="#8A4B32"/><g clip-path="url(#p7k13)" fill="#5E3222"><path d="M740,123 C748.3,109.8 781.7,107.7 790,120.5 C798.3,133.3 798.3,186.8 790,200 C781.7,213.2 748.3,212.8 740,200 C731.7,187.2 731.7,136.2 740,123Z"/></g><use href="#p7q13" fill="none" stroke="#2A2A2A" stroke-width="2" stroke-linejoin="round"/><defs><path id="p7q14" d="M0,190 L50,187.5 L100,185 L150,182.5 L200,180 L250,177.5 L300,175 L350,172.5 L400,170 L450,167.5 L500,165 L550,162.5 L600,160 L650,157.5 L700,155 L750,152.5 L800,150 L800,172 L775,185.2 L750,174.5 L725,187.8 L700,177 L675,190.2 L650,179.5 L625,192.8 L600,182 L575,195.2 L550,184.5 L525,197.8 L500,187 L475,200.2 L450,189.5 L425,202.8 L400,192 L375,205.2 L350,194.5 L325,207.8 L300,197 L275,210.2 L250,199.5 L225,212.8 L200,202 L175,215.2 L150,204.5 L125,217.8 L100,207 L75,220.2 L50,209.5 L25,222.8 L0,212Z"/><clipPath id="p7k14"><use href="#p7q14"/></clipPath></defs><use href="#p7q14" fill="#5E3222"/><use href="#p7q14" fill="#8A4B32" transform="translate(0 -6)" clip-path="url(#p7k14)"/><use href="#p7q14" fill="none" stroke="#2A2A2A" stroke-width="3" stroke-linejoin="round"/><path d="M258,166 L286,128 L330,74 L352,98 L384,86 L420,120 L452,92 L500,58 L522,96 L548,118 L566,152 L540,172 L524,206 L494,190 L460,214 L420,196 L380,216 L336,198 L300,212 L282,190Z" fill="#1B1F2E" stroke="#2A2A2A" stroke-width="3.5" stroke-linejoin="round"/><path d="M300,212 L336,198 L326,252Z" fill="#E9E1CF" stroke="#2A2A2A" stroke-width="2.5" stroke-linejoin="round"/><path d="M380,216 L420,196 L404,240Z" fill="#8A4B32" stroke="#2A2A2A" stroke-width="2.5" stroke-linejoin="round"/><path d="M460,214 L494,190 L486,236Z" fill="#E9E1CF" stroke="#2A2A2A" stroke-width="2.5" stroke-linejoin="round"/><path d="M524,206 L540,172 L552,226Z" fill="#8A4B32" stroke="#2A2A2A" stroke-width="2.5" stroke-linejoin="round"/><path d="M258,166 L282,190 L252,206Z" fill="#8A4B32" stroke="#2A2A2A" stroke-width="2.5" stroke-linejoin="round"/><defs><path id="p7q15" d="M442.4,466.1 C453,462.2 474.3,450.5 489.1,438.6 C503.9,426.8 518,408.3 531.5,395.2 C544.9,382 555.4,370.2 569.9,359.8 C584.4,349.4 601.1,340.5 618.3,332.7 C635.5,324.9 654.8,320.8 673,313.1 C691.2,305.4 711.5,295.7 727.5,286.6 C743.6,277.5 761.8,265.5 769.3,258.5 C776.8,251.5 774.3,247.6 772.5,244.7 C770.7,241.9 768.1,238.1 758.7,241.5 C749.4,244.9 732.4,257.8 716.5,265.4 C700.5,272.9 681.5,280.6 663,286.9 C644.6,293.2 624.5,295.7 605.7,303.3 C586.9,310.8 566.3,320.6 550.1,332.2 C533.9,343.8 521.7,358.6 508.5,372.8 C495.3,387 484.1,405.2 470.9,417.4 C457.7,429.5 437.1,438.4 429.6,445.9 C422.1,453.4 423.7,459.1 425.9,462.4 C428,465.8 431.9,470.1 442.4,466.1Z"/><clipPath id="p7k15"><use href="#p7q15"/></clipPath></defs><use href="#p7q15" fill="#C8102E"/><g clip-path="url(#p7k15)" fill="#8E0B21"><path d="M483.5,443.6 C492.2,436.9 514.3,415.8 528.7,403.2 C543.1,390.5 555,378.4 570,367.7 C585,357.1 601.4,347.2 618.4,339.5 C635.5,331.8 654.5,328.8 672.2,321.6 C689.9,314.4 708.8,305.7 724.5,296.3 C740.2,286.9 759.2,271.4 766.3,265.3 C773.5,259.1 768,260.8 767.3,259.7 C766.5,258.6 769.6,254.1 761.7,258.7 C753.7,263.4 735.2,279.1 719.5,287.7 C703.9,296.3 685.4,303.6 667.8,310.4 C650.1,317.2 631.2,320.9 613.6,328.5 C595.9,336.2 577.7,345.5 562,356.3 C546.3,367 533.5,379.5 519.3,392.8 C505.1,406.2 483.7,427.9 476.5,436.4 C469.4,444.8 475.2,442.2 476.4,443.5 C477.5,444.7 474.7,450.3 483.5,443.6Z"/></g><use href="#p7q15" fill="none" stroke="#1A1718" stroke-width="4" stroke-linejoin="round"/><path d="M752,236 L790,232 L778,250 L796,262 L762,268Z" fill="#C8102E" stroke="#1A1718" stroke-width="3.5" stroke-linejoin="round"/><defs><path id="p7q16" d="M409.2,642.4 C418.9,664.3 456.6,705.8 475.7,736.4 C494.9,767 511.8,809.8 523.9,826 C536,842.3 542.7,836.8 548,834.1 C553.4,831.4 562.1,829.7 556.1,810 C550.1,790.2 529.1,748.4 512.3,715.6 C495.4,682.9 470.6,632 454.8,613.6 C439,595.2 425.2,600.4 417.6,605.2 C410,610 399.5,620.6 409.2,642.4Z"/><clipPath id="p7k16"><use href="#p7q16"/></clipPath></defs><use href="#p7q16" fill="#141B2E"/><use href="#p7q16" fill="#1F2A44" transform="translate(-7 -5)" clip-path="url(#p7k16)"/><use href="#p7q16" fill="none" stroke="#1A1718" stroke-width="4.5" stroke-linejoin="round"/><defs><path id="p7q17" d="M518.6,822.3 C520.4,832.9 532.3,847.1 538.9,856.4 C545.5,865.7 551.1,873.8 558.3,878 C565.4,882.2 577.4,885.1 582,881.7 C586.6,878.4 587.2,865.7 585.7,858 C584.3,850.3 577.8,845 573.1,835.6 C568.4,826.2 565,808.9 557.4,801.7 C549.9,794.5 534.2,789.1 527.7,792.6 C521.2,796 516.7,811.7 518.6,822.3Z"/><clipPath id="p7k17"><use href="#p7q17"/></clipPath></defs><use href="#p7q17" fill="#5E3222"/><use href="#p7q17" fill="#8A4B32" transform="translate(-5 -5)" clip-path="url(#p7k17)"/><use href="#p7q17" fill="none" stroke="#1A1718" stroke-width="4.5" stroke-linejoin="round"/><defs><path id="p7q18" d="M348.9,608.9 C333.2,619.8 312.4,660 292.7,674.3 C273.1,688.6 243.3,687.6 230.9,694.7 C218.6,701.9 217,711.3 218.7,717.1 C220.4,722.8 225,730.5 241.1,729.3 C257.2,728 290.9,723.4 315.3,709.7 C339.6,696 375.1,663.9 387.1,647.1 C399.1,630.3 393.5,615.3 387.1,608.9 C380.7,602.5 364.6,598 348.9,608.9Z"/><clipPath id="p7k18"><use href="#p7q18"/></clipPath></defs><use href="#p7q18" fill="#141B2E"/><use href="#p7q18" fill="#1F2A44" transform="translate(-7 -5)" clip-path="url(#p7k18)"/><use href="#p7q18" fill="none" stroke="#1A1718" stroke-width="4.5" stroke-linejoin="round"/><defs><path id="p7q19" d="M235.5,689.9 C225.8,690.8 213.3,698.5 203.6,704.9 C194,711.3 182.5,720.6 177.6,728.5 C172.8,736.4 171.1,747.9 174.5,752.4 C178,756.9 190.1,757.7 198.4,755.5 C206.7,753.3 215.4,744 224.4,739.1 C233.4,734.2 246.2,732.7 252.5,726.1 C258.7,719.5 264.9,705.6 262.1,699.5 C259.3,693.5 245.3,689 235.5,689.9Z"/><clipPath id="p7k19"><use href="#p7q19"/></clipPath></defs><use href="#p7q19" fill="#5E3222"/><use href="#p7q19" fill="#8A4B32" transform="translate(-5 -5)" clip-path="url(#p7k19)"/><use href="#p7q19" fill="none" stroke="#1A1718" stroke-width="4.5" stroke-linejoin="round"/><path d="M200,700 C197.7,707 190,734 186,742 C182,750 177.7,747 176,748" fill="none" stroke="#1A1718" stroke-width="3" stroke-linejoin="round" stroke-linecap="round"/><defs><path id="p7q20" d="M249.1,683.9 L231.1,691.9 L248.9,732.1 L266.9,724.1Z"/><clipPath id="p7k20"><use href="#p7q20"/></clipPath></defs><use href="#p7q20" fill="#141B2E"/><use href="#p7q20" fill="#1F2A44" transform="translate(-3 -3)" clip-path="url(#p7k20)"/><use href="#p7q20" fill="none" stroke="#1A1718" stroke-width="3.5" stroke-linejoin="round"/><defs><path id="p7q21" d="M386,420.6 C383.6,432.4 383.9,462.9 387,474.6 C390.1,486.4 399,491.2 404.6,491 C410.3,490.8 418.8,485.3 421,473.4 C423.2,461.4 421.3,431 418,419.4 C414.7,407.8 406.7,403.8 401.4,404 C396.1,404.2 388.4,408.8 386,420.6Z"/><clipPath id="p7k21"><use href="#p7q21"/></clipPath></defs><use href="#p7q21" fill="#C08F6A"/><use href="#p7q21" fill="#E2B48E" transform="translate(-6 -4)" clip-path="url(#p7k21)"/><use href="#p7q21" fill="none" stroke="#1A1718" stroke-width="4.5" stroke-linejoin="round"/><defs><path id="p7q22" d="M340,480 C346.7,469.3 356.7,465.3 372,462 C387.3,458.7 417,458 432,460 C447,462 455.3,463.3 462,474 C468.7,484.7 472.7,504.7 472,524 C471.3,543.3 460.7,570.3 458,590 C455.3,609.7 465.3,631.7 456,642 C446.7,652.3 420,652 402,652 C384,652 357.3,652.3 348,642 C338.7,631.7 348.7,609.3 346,590 C343.3,570.7 333,544.3 332,526 C331,507.7 333.3,490.7 340,480Z"/><clipPath id="p7k22"><use href="#p7q22"/></clipPath></defs><use href="#p7q22" fill="#141B2E"/><use href="#p7q22" fill="#1F2A44" transform="translate(-12 -6)" clip-path="url(#p7k22)"/><use href="#p7q22" fill="none" stroke="#1A1718" stroke-width="4.5" stroke-linejoin="round"/><defs><path id="p7q23" d="M378,462 L426,460 L402,500Z"/><clipPath id="p7k23"><use href="#p7q23"/></clipPath></defs><use href="#p7q23" fill="#1F2A44"/><g clip-path="url(#p7k23)" fill="#141B2E"><path d="M370,450 L440,450 L402,510Z"/></g><use href="#p7q23" fill="none" stroke="#1A1718" stroke-width="3" stroke-linejoin="round"/><defs><path id="p7q24" d="M372,462 L400,502 L386,506 L362,474Z"/><clipPath id="p7k24"><use href="#p7q24"/></clipPath></defs><use href="#p7q24" fill="#141B2E"/><use href="#p7q24" fill="#1F2A44" transform="translate(-3 -3)" clip-path="url(#p7k24)"/><use href="#p7q24" fill="none" stroke="#1A1718" stroke-width="3" stroke-linejoin="round"/><defs><path id="p7q25" d="M432,460 L404,502 L418,506 L444,472Z"/><clipPath id="p7k25"><use href="#p7q25"/></clipPath></defs><use href="#p7q25" fill="#141B2E"/><use href="#p7q25" fill="#1F2A44" transform="translate(-3 -3)" clip-path="url(#p7k25)"/><use href="#p7q25" fill="none" stroke="#1A1718" stroke-width="3" stroke-linejoin="round"/><path d="M402,504 L402,600" fill="none" stroke="#1A1718" stroke-width="2.5" stroke-linejoin="round" stroke-linecap="round"/><path d="M418,520 L448,518 L448,548 L418,550Z" fill="none" stroke="#1A1718" stroke-width="2.5" stroke-linejoin="round" stroke-linecap="round"/><path d="M418,528 L448,526" fill="none" stroke="#1A1718" stroke-width="2" stroke-linejoin="round" stroke-linecap="round"/><path d="M360,560 L378,575" fill="none" stroke="#1A1718" stroke-width="2.2" stroke-linejoin="round" stroke-linecap="round"/><path d="M440,640 L420,646" fill="none" stroke="#1A1718" stroke-width="2.2" stroke-linejoin="round" stroke-linecap="round"/><defs><path id="p7q26" d="M346,598 L458,596 L457,616 L347,618Z"/><clipPath id="p7k26"><use href="#p7q26"/></clipPath></defs><use href="#p7q26" fill="#5E3222"/><use href="#p7q26" fill="#8A4B32" transform="translate(0 -5)" clip-path="url(#p7k26)"/><use href="#p7q26" fill="none" stroke="#1A1718" stroke-width="3.5" stroke-linejoin="round"/><path d="M392,594 L414,594 L414,620 L392,620Z" fill="#E9E1CF" stroke="#1A1718" stroke-width="3" stroke-linejoin="round"/><path d="M402,622 L402,648" fill="none" stroke="#1A1718" stroke-width="2.5" stroke-linejoin="round" stroke-linecap="round"/><defs><path id="p7q27" d="M448.7,497.3 C464,507.2 506.5,518.7 532.6,533.9 C558.6,549.1 590.4,579.7 605.1,588.6 C619.8,597.4 618.3,589.8 620.6,586.9 C622.9,584 631.1,584.2 618.9,571.4 C606.7,558.6 573.4,527.6 547.4,510.1 C521.5,492.7 481.1,472.6 463.3,466.7 C445.5,460.7 443.1,469.6 440.7,474.7 C438.2,479.8 433.4,487.5 448.7,497.3Z"/><clipPath id="p7k27"><use href="#p7q27"/></clipPath></defs><use href="#p7q27" fill="#C08F6A"/><use href="#p7q27" fill="#E2B48E" transform="translate(-5 -5)" clip-path="url(#p7k27)"/><use href="#p7q27" fill="none" stroke="#1A1718" stroke-width="4.5" stroke-linejoin="round"/><path d="M529.4,534.1 C532.6,542 553.5,551.2 565.5,559.7 C577.5,568.2 593.4,583.8 601.6,585.3 C609.7,586.8 617.9,576.2 614.4,568.7 C610.9,561.2 591.8,549.8 580.5,540.3 C569.2,530.8 555.1,513 546.6,511.9 C538,510.9 526.3,526.1 529.4,534.1Z" fill="#FF4D5E" stroke="#FF4D5E" stroke-width="16" stroke-linejoin="round" opacity="0.5" filter="url(#gl7)"/><path d="M529.4,534.1 C532.6,542 553.5,551.2 565.5,559.7 C577.5,568.2 593.4,583.8 601.6,585.3 C609.7,586.8 617.9,576.2 614.4,568.7 C610.9,561.2 591.8,549.8 580.5,540.3 C569.2,530.8 555.1,513 546.6,511.9 C538,510.9 526.3,526.1 529.4,534.1Z" fill="#E5172F" stroke="#A50F22" stroke-width="2.4" stroke-linejoin="round"/><path d="M545.7,544.2 C547.6,543.1 554.2,540.6 556.7,537.4 C559.1,534.2 559.9,527.2 560.5,525.1" fill="none" stroke="#A50F22" stroke-width="2" stroke-linejoin="round" stroke-linecap="round"/><path d="M563.7,557.1 C565.5,556.1 571.9,553.9 574.2,550.9 C576.5,547.9 577,541.2 577.5,539.2" fill="none" stroke="#A50F22" stroke-width="2" stroke-linejoin="round" stroke-linecap="round"/><path d="M581.7,570 C583.4,569 589.6,567.2 591.7,564.4 C593.8,561.7 594,555.2 594.5,553.4" fill="none" stroke="#A50F22" stroke-width="2" stroke-linejoin="round" stroke-linecap="round"/><path d="M597,581.5 C598.3,580.3 602.7,577.3 604.8,574.6 C606.9,571.8 608.8,566.7 609.5,565.2" fill="none" stroke="#1A1718" stroke-width="2.2" stroke-linejoin="round" stroke-linecap="round"/><path d="M593,578.4 C594.3,577.3 598.8,574.2 600.9,571.5 C603,568.8 604.8,563.7 605.6,562.1" fill="none" stroke="#1A1718" stroke-width="2.2" stroke-linejoin="round" stroke-linecap="round"/><defs><path id="p7q28" d="M618.2,570.1 C623,567.9 627.2,573.9 631.4,576.6 C635.6,579.4 641.3,583.5 643.4,586.7 C645.4,589.9 645.2,592.2 643.6,596.1 C642.1,599.9 637,607.1 633.8,609.7 C630.5,612.2 627.9,612.8 624.1,611.3 C620.4,609.8 614.8,604 611.3,600.5 C607.7,596.9 601.6,595 602.7,590 C603.9,584.9 613.5,572.3 618.2,570.1Z"/><clipPath id="p7k28"><use href="#p7q28"/></clipPath></defs><use href="#p7q28" fill="#C08F6A"/><use href="#p7q28" fill="#E2B48E" transform="translate(-3 -3)" clip-path="url(#p7k28)"/><use href="#p7q28" fill="none" stroke="#1A1718" stroke-width="3.5" stroke-linejoin="round"/><defs><path id="p7q29" d="M638.1,593.2 C640.7,595.1 647.4,597.3 651.4,598.8 C655.3,600.2 659.4,601.8 661.9,601.9 C664.5,602.1 666.2,600.8 666.6,599.6 C667,598.5 666.3,596.4 664.3,595 C662.3,593.6 658.2,592.8 654.4,591.1 C650.6,589.5 644.6,585.9 641.5,585.3 C638.5,584.7 636.4,586.2 635.9,587.5 C635.3,588.9 635.5,591.4 638.1,593.2Z"/><clipPath id="p7k29"><use href="#p7q29"/></clipPath></defs><use href="#p7q29" fill="#C08F6A"/><use href="#p7q29" fill="#E2B48E" transform="translate(-1.5 -1.5)" clip-path="url(#p7k29)"/><use href="#p7q29" fill="none" stroke="#1A1718" stroke-width="3" stroke-linejoin="round"/><defs><path id="p7q30" d="M635,600.9 C637.5,603.4 644.6,607.1 648.7,609.6 C652.8,612.1 657,615.1 659.7,615.9 C662.4,616.8 664.3,615.8 665,614.7 C665.7,613.6 665.7,611.4 663.8,609.4 C661.9,607.3 657.4,605 653.4,602.3 C649.4,599.6 643.3,594.6 640,593.3 C636.8,592 634.6,593.3 633.7,594.6 C632.9,595.8 632.5,598.4 635,600.9Z"/><clipPath id="p7k30"><use href="#p7q30"/></clipPath></defs><use href="#p7q30" fill="#C08F6A"/><use href="#p7q30" fill="#E2B48E" transform="translate(-1.5 -1.5)" clip-path="url(#p7k30)"/><use href="#p7q30" fill="none" stroke="#1A1718" stroke-width="3" stroke-linejoin="round"/><defs><path id="p7q31" d="M629.8,606.3 C631.7,609 637.7,613.5 641,616.6 C644.3,619.6 647.2,623.2 649.5,624.5 C651.8,625.9 653.8,625.4 654.7,624.6 C655.6,623.7 656.1,621.7 654.7,619.4 C653.4,617.1 649.9,613.9 646.7,610.7 C643.6,607.5 638.6,601.8 635.8,600 C632.9,598.2 630.7,599.1 629.7,600.2 C628.7,601.2 627.9,603.5 629.8,606.3Z"/><clipPath id="p7k31"><use href="#p7q31"/></clipPath></defs><use href="#p7q31" fill="#C08F6A"/><use href="#p7q31" fill="#E2B48E" transform="translate(-1.5 -1.5)" clip-path="url(#p7k31)"/><use href="#p7q31" fill="none" stroke="#1A1718" stroke-width="3" stroke-linejoin="round"/><defs><path id="p7q32" d="M622.3,609.2 C623.4,611.7 627.9,616.2 630,619.1 C632.2,622 633.5,625.2 635.1,626.6 C636.7,628.1 638.7,628.3 639.6,627.7 C640.5,627.1 641.3,625.3 640.7,623.2 C640.1,621.1 638.1,618 636,614.9 C634,611.8 630.5,606.4 628.4,604.5 C626.2,602.7 624,603 623,603.8 C622,604.6 621.1,606.6 622.3,609.2Z"/><clipPath id="p7k32"><use href="#p7q32"/></clipPath></defs><use href="#p7q32" fill="#C08F6A"/><use href="#p7q32" fill="#E2B48E" transform="translate(-1.5 -1.5)" clip-path="url(#p7k32)"/><use href="#p7q32" fill="none" stroke="#1A1718" stroke-width="3" stroke-linejoin="round"/><defs><path id="p7q33" d="M626.4,581.1 C629.5,581.5 635.2,579.2 639.2,579.1 C643.3,578.9 648.1,580.8 650.8,580.4 C653.6,580.1 655.4,578.3 655.6,577 C655.8,575.6 654.9,573.4 652.1,572.1 C649.4,570.9 643.8,569.9 639.3,569.7 C634.8,569.5 628.3,569.8 625.2,571 C622.1,572.1 620.5,575 620.7,576.7 C620.9,578.3 623.3,580.7 626.4,581.1Z"/><clipPath id="p7k33"><use href="#p7q33"/></clipPath></defs><use href="#p7q33" fill="#C08F6A"/><use href="#p7q33" fill="#E2B48E" transform="translate(-1.5 -1.5)" clip-path="url(#p7k33)"/><use href="#p7q33" fill="none" stroke="#1A1718" stroke-width="3" stroke-linejoin="round"/><defs><path id="p7q34" d="M440,466 L468,474 L486,494 L490,512 L480,506 L476,520 L466,510 L458,524 L450,506 L436,496Z"/><clipPath id="p7k34"><use href="#p7q34"/></clipPath></defs><use href="#p7q34" fill="#141B2E"/><use href="#p7q34" fill="#1F2A44" transform="translate(-5 -4)" clip-path="url(#p7k34)"/><use href="#p7q34" fill="none" stroke="#1A1718" stroke-width="4" stroke-linejoin="round"/><defs><path id="p7q35" d="M370.6,474.2 C362.9,456.3 325.7,414.3 317.7,397.1 C309.7,379.9 324.3,378.4 322.8,370.8 C321.3,363.2 314.4,352.2 308.8,351.2 C303.2,350.3 293.6,355.3 289.2,365.2 C284.8,375.2 274.9,388.8 282.3,410.9 C289.7,433 319.8,482.2 333.4,497.8 C347,513.4 357.6,508.5 363.8,504.6 C370,500.7 378.3,492.1 370.6,474.2Z"/><clipPath id="p7k35"><use href="#p7q35"/></clipPath></defs><use href="#p7q35" fill="#141B2E"/><use href="#p7q35" fill="#1F2A44" transform="translate(-6 -4)" clip-path="url(#p7k35)"/><use href="#p7q35" fill="none" stroke="#1A1718" stroke-width="4.5" stroke-linejoin="round"/><defs><path id="p7q36" d="M317.8,374.3 C321.5,364 325.8,332.6 325.8,321.9 C325.8,311.2 321.2,310.8 317.9,310.2 C314.6,309.6 310.1,308.2 306.2,318.1 C302.2,328 294.6,358.8 294.2,369.7 C293.8,380.7 299.8,383 303.7,383.8 C307.7,384.5 314.1,384.6 317.8,374.3Z"/><clipPath id="p7k36"><use href="#p7q36"/></clipPath></defs><use href="#p7q36" fill="#C08F6A"/><use href="#p7q36" fill="#E2B48E" transform="translate(-4 -3)" clip-path="url(#p7k36)"/><use href="#p7q36" fill="none" stroke="#1A1718" stroke-width="4.5" stroke-linejoin="round"/><defs><path id="p7q37" d="M323.6,387.9 L327.6,367.9 L288.4,360.1 L284.4,380.1Z"/><clipPath id="p7k37"><use href="#p7q37"/></clipPath></defs><use href="#p7q37" fill="#141B2E"/><use href="#p7q37" fill="#1F2A44" transform="translate(-3 -3)" clip-path="url(#p7k37)"/><use href="#p7q37" fill="none" stroke="#1A1718" stroke-width="3.5" stroke-linejoin="round"/><path d="M286,374 L328,378" fill="none" stroke="#1A1718" stroke-width="2" stroke-linejoin="round" stroke-linecap="round"/><defs><path id="p7q38" d="M277,270 C289.7,267.6 346.3,267.6 359,270 C371.7,272.4 356.8,280.3 353.3,284.3 C349.7,288.3 341.4,292 337.7,293.9 C334,295.9 336.6,295.7 331.1,296 C325.7,296.3 310.3,296.3 304.9,296 C299.4,295.7 302,295.9 298.3,293.9 C294.6,292 286.3,288.3 282.7,284.3 C279.2,280.3 264.3,272.4 277,270Z"/><clipPath id="p7k38"><use href="#p7q38"/></clipPath></defs><use href="#p7q38" fill="#BDB4A0"/><use href="#p7q38" fill="#E9E1CF" transform="translate(-6 -4)" clip-path="url(#p7k38)"/><use href="#p7q38" fill="none" stroke="#1A1718" stroke-width="3.5" stroke-linejoin="round"/><defs><path id="p7q39" d="M279.5,276.2 L356.5,276.2 L352.4,281.7 L283.6,281.7Z"/><clipPath id="p7k39"><use href="#p7q39"/></clipPath></defs><use href="#p7q39" fill="#5E3222"/><use href="#p7q39" fill="#8A4B32" transform="translate(-5 0)" clip-path="url(#p7k39)"/><use href="#p7q39" fill="none" stroke="#1A1718" stroke-width="2" stroke-linejoin="round"/><path d="M275,267 L361,267 L361,272 L275,272Z" fill="#E9E1CF" stroke="#1A1718" stroke-width="3" stroke-linejoin="round"/><defs><path id="p7q40" d="M277,244 C289.7,241.6 346.3,241.6 359,244 C371.7,246.4 356.8,254.3 353.3,258.3 C349.7,262.3 341.4,266 337.7,267.9 C334,269.9 336.6,269.7 331.1,270 C325.7,270.3 310.3,270.3 304.9,270 C299.4,269.7 302,269.9 298.3,267.9 C294.6,266 286.3,262.3 282.7,258.3 C279.2,254.3 264.3,246.4 277,244Z"/><clipPath id="p7k40"><use href="#p7q40"/></clipPath></defs><use href="#p7q40" fill="#BDB4A0"/><use href="#p7q40" fill="#E9E1CF" transform="translate(-6 -4)" clip-path="url(#p7k40)"/><use href="#p7q40" fill="none" stroke="#1A1718" stroke-width="3.5" stroke-linejoin="round"/><defs><path id="p7q41" d="M279.5,250.2 L356.5,250.2 L352.4,255.7 L283.6,255.7Z"/><clipPath id="p7k41"><use href="#p7q41"/></clipPath></defs><use href="#p7q41" fill="#5E3222"/><use href="#p7q41" fill="#8A4B32" transform="translate(-5 0)" clip-path="url(#p7k41)"/><use href="#p7q41" fill="none" stroke="#1A1718" stroke-width="2" stroke-linejoin="round"/><path d="M275,241 L361,241 L361,246 L275,246Z" fill="#E9E1CF" stroke="#1A1718" stroke-width="3" stroke-linejoin="round"/><defs><path id="p7q42" d="M277,218 C289.7,215.6 346.3,215.6 359,218 C371.7,220.4 356.8,228.3 353.3,232.3 C349.7,236.3 341.4,240 337.7,241.9 C334,243.9 336.6,243.7 331.1,244 C325.7,244.3 310.3,244.3 304.9,244 C299.4,243.7 302,243.9 298.3,241.9 C294.6,240 286.3,236.3 282.7,232.3 C279.2,228.3 264.3,220.4 277,218Z"/><clipPath id="p7k42"><use href="#p7q42"/></clipPath></defs><use href="#p7q42" fill="#BDB4A0"/><use href="#p7q42" fill="#E9E1CF" transform="translate(-6 -4)" clip-path="url(#p7k42)"/><use href="#p7q42" fill="none" stroke="#1A1718" stroke-width="3.5" stroke-linejoin="round"/><defs><path id="p7q43" d="M279.5,224.2 L356.5,224.2 L352.4,229.7 L283.6,229.7Z"/><clipPath id="p7k43"><use href="#p7q43"/></clipPath></defs><use href="#p7q43" fill="#5E3222"/><use href="#p7q43" fill="#8A4B32" transform="translate(-5 0)" clip-path="url(#p7k43)"/><use href="#p7q43" fill="none" stroke="#1A1718" stroke-width="2" stroke-linejoin="round"/><path d="M275,215 L361,215 L361,220 L275,220Z" fill="#E9E1CF" stroke="#1A1718" stroke-width="3" stroke-linejoin="round"/><defs><path id="p7q44" d="M277,192 C289.7,189.6 346.3,189.6 359,192 C371.7,194.4 356.8,202.3 353.3,206.3 C349.7,210.3 341.4,214 337.7,215.9 C334,217.9 336.6,217.7 331.1,218 C325.7,218.3 310.3,218.3 304.9,218 C299.4,217.7 302,217.9 298.3,215.9 C294.6,214 286.3,210.3 282.7,206.3 C279.2,202.3 264.3,194.4 277,192Z"/><clipPath id="p7k44"><use href="#p7q44"/></clipPath></defs><use href="#p7q44" fill="#BDB4A0"/><use href="#p7q44" fill="#E9E1CF" transform="translate(-6 -4)" clip-path="url(#p7k44)"/><use href="#p7q44" fill="none" stroke="#1A1718" stroke-width="3.5" stroke-linejoin="round"/><defs><path id="p7q45" d="M279.5,198.2 L356.5,198.2 L352.4,203.7 L283.6,203.7Z"/><clipPath id="p7k45"><use href="#p7q45"/></clipPath></defs><use href="#p7q45" fill="#5E3222"/><use href="#p7q45" fill="#8A4B32" transform="translate(-5 0)" clip-path="url(#p7k45)"/><use href="#p7q45" fill="none" stroke="#1A1718" stroke-width="2" stroke-linejoin="round"/><path d="M275,189 L361,189 L361,194 L275,194Z" fill="#E9E1CF" stroke="#1A1718" stroke-width="3" stroke-linejoin="round"/><defs><path id="p7q46" d="M277,166 C289.7,163.6 346.3,163.6 359,166 C371.7,168.4 356.8,176.3 353.3,180.3 C349.7,184.3 341.4,188 337.7,189.9 C334,191.9 336.6,191.7 331.1,192 C325.7,192.3 310.3,192.3 304.9,192 C299.4,191.7 302,191.9 298.3,189.9 C294.6,188 286.3,184.3 282.7,180.3 C279.2,176.3 264.3,168.4 277,166Z"/><clipPath id="p7k46"><use href="#p7q46"/></clipPath></defs><use href="#p7q46" fill="#BDB4A0"/><use href="#p7q46" fill="#E9E1CF" transform="translate(-6 -4)" clip-path="url(#p7k46)"/><use href="#p7q46" fill="none" stroke="#1A1718" stroke-width="3.5" stroke-linejoin="round"/><defs><path id="p7q47" d="M279.5,172.2 L356.5,172.2 L352.4,177.7 L283.6,177.7Z"/><clipPath id="p7k47"><use href="#p7q47"/></clipPath></defs><use href="#p7q47" fill="#5E3222"/><use href="#p7q47" fill="#8A4B32" transform="translate(-5 0)" clip-path="url(#p7k47)"/><use href="#p7q47" fill="none" stroke="#1A1718" stroke-width="2" stroke-linejoin="round"/><path d="M275,163 L361,163 L361,168 L275,168Z" fill="#E9E1CF" stroke="#1A1718" stroke-width="3" stroke-linejoin="round"/><path d="M274,140 L362,140 L358,136 L344,128 L292,128 L278,136Z" fill="#E9E1CF" stroke="#1A1718" stroke-width="3.5" stroke-linejoin="round"/><path d="M312,128 L324,128 L324,120 L312,120Z" fill="#E9E1CF" stroke="#1A1718" stroke-width="2.5" stroke-linejoin="round"/><path d="M290,116 C289,113 283.3,103.7 284,98 C284.7,92.3 293.7,87.3 294,82 C294.3,76.7 287.3,68.7 286,66" fill="none" stroke="#F5EEDD" stroke-width="3" stroke-linejoin="round" stroke-linecap="round" opacity="0.85"/><path d="M318,116 C317,113 311.3,103.7 312,98 C312.7,92.3 321.7,87.3 322,82 C322.3,76.7 315.3,68.7 314,66" fill="none" stroke="#F5EEDD" stroke-width="3" stroke-linejoin="round" stroke-linecap="round" opacity="0.85"/><path d="M346,116 C345,113 339.3,103.7 340,98 C340.7,92.3 349.7,87.3 350,82 C350.3,76.7 343.3,68.7 342,66" fill="none" stroke="#F5EEDD" stroke-width="3" stroke-linejoin="round" stroke-linecap="round" opacity="0.85"/><defs><path id="p7q48" d="M328.6,324.3 C333.2,322 331.1,315.3 331.5,310.5 C331.9,305.7 332.2,299 330.9,295.6 C329.7,292.1 327.9,290.9 324.1,289.8 C320.2,288.7 311.8,288.3 307.9,289.2 C304.1,290.2 302.1,291.8 301.1,295.6 C300,299.3 301.1,306.9 301.6,311.6 C302.2,316.4 300,322.2 304.5,324.3 C309,326.4 324.1,326.6 328.6,324.3Z"/><clipPath id="p7k48"><use href="#p7q48"/></clipPath></defs><use href="#p7q48" fill="#C08F6A"/><use href="#p7q48" fill="#E2B48E" transform="translate(-3 -3)" clip-path="url(#p7k48)"/><use href="#p7q48" fill="none" stroke="#1A1718" stroke-width="3.5" stroke-linejoin="round"/><defs><path id="p7q49" d="M331,297.3 C332.1,294.5 332.3,287.7 332.8,283.8 C333.4,279.8 334.6,276 334.4,273.6 C334.2,271.3 332.8,269.7 331.6,269.5 C330.5,269.3 328.6,270.1 327.5,272.3 C326.4,274.4 325.8,278.5 325.1,282.4 C324.3,286.4 322.6,293 322.8,296.1 C323,299.2 325,300.6 326.3,300.8 C327.7,301 329.9,300.1 331,297.3Z"/><clipPath id="p7k49"><use href="#p7q49"/></clipPath></defs><use href="#p7q49" fill="#C08F6A"/><use href="#p7q49" fill="#E2B48E" transform="translate(-1.5 -1.5)" clip-path="url(#p7k49)"/><use href="#p7q49" fill="none" stroke="#1A1718" stroke-width="3" stroke-linejoin="round"/><defs><path id="p7q50" d="M324,294 C324.9,290.8 324.4,283.1 324.6,278.5 C324.7,274 325.4,269.2 324.9,266.5 C324.3,263.8 322.6,262.6 321.4,262.6 C320.1,262.5 318.3,263.5 317.4,266 C316.6,268.6 316.6,273.5 316.3,278.1 C315.9,282.7 314.8,290.3 315.3,293.6 C315.8,297 318,298.1 319.5,298.2 C320.9,298.3 323.2,297.3 324,294Z"/><clipPath id="p7k50"><use href="#p7q50"/></clipPath></defs><use href="#p7q50" fill="#C08F6A"/><use href="#p7q50" fill="#E2B48E" transform="translate(-1.5 -1.5)" clip-path="url(#p7k50)"/><use href="#p7q50" fill="none" stroke="#1A1718" stroke-width="3" stroke-linejoin="round"/><defs><path id="p7q51" d="M316.5,293.6 C316.9,290.4 315.8,283.2 315.4,278.9 C315,274.6 315,270.2 314.2,267.8 C313.4,265.3 311.6,264.4 310.4,264.5 C309.3,264.6 307.6,265.8 307.2,268.3 C306.7,270.8 307.4,275.1 307.6,279.4 C307.7,283.7 307.4,291 308.2,294.1 C309,297.1 311.2,298 312.6,298 C313.9,297.9 316,296.8 316.5,293.6Z"/><clipPath id="p7k51"><use href="#p7q51"/></clipPath></defs><use href="#p7q51" fill="#C08F6A"/><use href="#p7q51" fill="#E2B48E" transform="translate(-1.5 -1.5)" clip-path="url(#p7k51)"/><use href="#p7q51" fill="none" stroke="#1A1718" stroke-width="3" stroke-linejoin="round"/><defs><path id="p7q52" d="M308.7,296.7 C308.9,294 307.4,288 306.7,284.5 C306,281 305.4,277.6 304.5,275.7 C303.5,273.9 301.8,273.1 300.8,273.3 C299.7,273.5 298.5,275 298.3,277 C298.2,279.1 299.3,282.2 299.8,285.7 C300.3,289.2 300.5,295.3 301.4,297.8 C302.4,300.4 304.4,301.1 305.6,300.9 C306.8,300.7 308.5,299.5 308.7,296.7Z"/><clipPath id="p7k52"><use href="#p7q52"/></clipPath></defs><use href="#p7q52" fill="#C08F6A"/><use href="#p7q52" fill="#E2B48E" transform="translate(-1.5 -1.5)" clip-path="url(#p7k52)"/><use href="#p7q52" fill="none" stroke="#1A1718" stroke-width="3" stroke-linejoin="round"/><defs><path id="p7q53" d="M332.1,318.6 C334.8,316.9 338.9,312.1 341.4,308.6 C343.9,305.1 346.4,300.3 347.1,297.5 C347.8,294.7 346.7,292.7 345.6,292 C344.4,291.4 342,291.7 340.1,293.6 C338.2,295.5 336.8,300.2 334.3,303.2 C331.8,306.2 326.7,309.1 325.2,311.6 C323.7,314.2 324,317.4 325.2,318.6 C326.3,319.7 329.4,320.2 332.1,318.6Z"/><clipPath id="p7k53"><use href="#p7q53"/></clipPath></defs><use href="#p7q53" fill="#C08F6A"/><use href="#p7q53" fill="#E2B48E" transform="translate(-1.5 -1.5)" clip-path="url(#p7k53)"/><use href="#p7q53" fill="none" stroke="#1A1718" stroke-width="3" stroke-linejoin="round"/><defs><path id="p7q54" d="M364,450 C371.7,448.7 389.3,466 402,466 C414.7,466 431.7,449.3 440,450 C448.3,450.7 458,463.3 452,470 C446,476.7 420,489.3 404,490 C388,490.7 362.7,480.7 356,474 C349.3,467.3 356.3,451.3 364,450Z"/><clipPath id="p7k54"><use href="#p7q54"/></clipPath></defs><use href="#p7q54" fill="#8E0B21"/><use href="#p7q54" fill="#C8102E" transform="translate(-4 -5)" clip-path="url(#p7k54)"/><use href="#p7q54" fill="none" stroke="#1A1718" stroke-width="4" stroke-linejoin="round"/><defs><path id="p7q55" d="M350,468 L378,470 L382,512 L392,556 L377,546 L368,566 L358,536Z"/><clipPath id="p7k55"><use href="#p7q55"/></clipPath></defs><use href="#p7q55" fill="#C8102E"/><g clip-path="url(#p7k55)" fill="#8E0B21"><path d="M370,470 C372.3,455 382.3,455 386,470 C389.7,485 394.3,545 392,560 C389.7,575 375.7,575 372,560 C368.3,545 367.7,485 370,470Z"/></g><use href="#p7q55" fill="none" stroke="#1A1718" stroke-width="3.5" stroke-linejoin="round"/><defs><path id="p7q56" d="M379,472 C379,475.1 377.1,479 374.6,481.2 C372.1,483.4 367.5,485 364,485 C360.5,485 355.9,483.4 353.4,481.2 C350.9,479 349,475.1 349,472 C349,468.9 350.9,465 353.4,462.8 C355.9,460.6 360.5,459 364,459 C367.5,459 372.1,460.6 374.6,462.8 C377.1,465 379,468.9 379,472Z"/><clipPath id="p7k56"><use href="#p7q56"/></clipPath></defs><use href="#p7q56" fill="#8E0B21"/><use href="#p7q56" fill="#C8102E" transform="translate(-3 -3)" clip-path="url(#p7k56)"/><use href="#p7q56" fill="none" stroke="#1A1718" stroke-width="3.5" stroke-linejoin="round"/><path d="M351.1,396.8 L326.5,384.9 L359.6,367 L321.5,339 L364.9,343.4 L347.4,297 L385.1,324.4 L397.7,278.6 L412.9,324.5 L446.2,297.8 L433.8,341.7 L471.2,336.5 L439.2,364.5 L452.6,376.2 L441.2,405.9 L371.3,414.5Z" fill="#141012" stroke="#1A1718" stroke-width="4" stroke-linejoin="round"/><defs><path id="p7q57" d="M366.6,381.4 C364.6,378.4 359.8,377.2 358.3,378.8 C356.9,380.5 357,387.6 358.1,391.3 C359.1,395 362.6,400.2 364.6,401.1 C366.7,402.1 370,400.2 370.3,396.9 C370.6,393.6 368.6,384.4 366.6,381.4Z"/><clipPath id="p7k57"><use href="#p7q57"/></clipPath></defs><use href="#p7q57" fill="#C08F6A"/><use href="#p7q57" fill="#E2B48E" transform="translate(-2.6 -2.1)" clip-path="url(#p7k57)"/><use href="#p7q57" fill="none" stroke="#1A1718" stroke-width="3.5" stroke-linejoin="round"/><defs><path id="p7q58" d="M438.2,372.6 C439.5,369.2 443.9,366.9 445.7,368.1 C447.5,369.4 449,376.3 448.9,380.1 C448.8,384 446.7,389.9 445,391.3 C443.2,392.7 439.6,391.6 438.4,388.5 C437.3,385.4 437,376 438.2,372.6Z"/><clipPath id="p7k58"><use href="#p7q58"/></clipPath></defs><use href="#p7q58" fill="#C08F6A"/><use href="#p7q58" fill="#E2B48E" transform="translate(-2.6 -2.1)" clip-path="url(#p7k58)"/><use href="#p7q58" fill="none" stroke="#1A1718" stroke-width="3.5" stroke-linejoin="round"/><defs><path id="p7q59" d="M362.9,353.5 C357.9,362.1 365.3,377.7 367.4,386.6 C369.5,395.5 371.4,401 375.4,406.9 C379.4,412.8 385.8,418.2 391.5,421.8 C397.3,425.3 404.4,429 409.9,428.4 C415.5,427.7 420.4,422.5 424.7,417.7 C429.1,412.9 433.6,406.1 435.9,399.5 C438.2,392.8 438.8,387 438.6,377.9 C438.4,368.7 441.4,351.8 434.5,344.7 C427.7,337.5 409.4,333.6 397.4,335 C385.5,336.5 367.9,344.9 362.9,353.5Z"/><clipPath id="p7k59"><use href="#p7q59"/></clipPath></defs><use href="#p7q59" fill="#C08F6A"/><use href="#p7q59" fill="#E2B48E" transform="translate(-5 -4)" clip-path="url(#p7k59)"/><use href="#p7q59" fill="none" stroke="#1A1718" stroke-width="4.5" stroke-linejoin="round"/><path d="M379.7,393.1 C381.1,391.4 385,383.6 388.2,383.2 C391.4,382.8 397.1,389.5 398.9,390.7" fill="none" stroke="#1A1718" stroke-width="4.4" stroke-linejoin="round" stroke-linecap="round"/><path d="M374.7,374.2 C376.3,373.1 382.4,369.8 386.6,370.1 C390.8,370.3 397.7,374.2 399.7,375.5 C401.6,376.9 400.4,378.7 398.3,378.4 C396.1,378 390.6,373.8 387,373.5 C383.4,373.3 378.8,376.5 376.8,376.6 C374.7,376.7 373,375.3 374.7,374.2Z" fill="#1A1718"/><path d="M411.3,389.2 C412.8,387.5 416.7,379.7 419.9,379.3 C423.1,378.9 428.8,385.6 430.5,386.8" fill="none" stroke="#1A1718" stroke-width="4.4" stroke-linejoin="round" stroke-linecap="round"/><path d="M406.9,374.7 C408.5,373.1 414.5,369.1 418.5,367.9 C422.5,366.7 429,366.9 430.8,367.3 C432.6,367.7 431.4,369.4 429.4,370.1 C427.4,370.8 422.3,370.3 418.9,371.4 C415.5,372.6 411,376.5 409,377.1 C407,377.6 405.3,376.2 406.9,374.7Z" fill="#1A1718"/><path d="M406.7,395.1 L410.4,402.6 L406.6,404.4" fill="none" stroke="#1A1718" stroke-width="2.4" stroke-linejoin="round" stroke-linecap="round"/><path d="M392.9,411.8 C393.6,410.3 403,412.5 408,411.8 C412.9,411 421,406.2 422.5,407.3 C424,408.5 419.9,416.4 416.8,418.7 C413.7,421 407.8,422.3 403.8,421.1 C399.8,420 392.2,413.4 392.9,411.8Z" fill="#1A1718" stroke="#1A1718" stroke-width="2.5" stroke-linejoin="round"/><path d="M395.2,412.4 C397.1,411.9 403.9,413.3 408.1,412.6 C412.3,412 418.5,408.5 420.4,408.5 C422.3,408.4 421.6,411.3 419.6,412.6 C417.6,413.8 412.2,415.2 408.5,415.7 C404.7,416.2 399.1,416.3 396.9,415.8 C394.7,415.2 393.3,413 395.2,412.4Z" fill="#F5EEDD"/><path d="M359,362.8 L365,383.4 L371.1,361.3 L379.8,374.4 L385.3,354.3 L395,368.1 L401.7,350.5 L412.4,365.1 L417.4,348.5 L428.5,366.7 L431.8,350.3 L442.5,372.1 L441.8,350.9 L431.5,327.3 L395.6,321.1 L361.6,335.9Z" fill="#141012" stroke="#1A1718" stroke-width="3.5" stroke-linejoin="round"/><defs><path id="p7q60" d="M383.9,320.7 C386.8,318.3 393.5,321.9 395.2,326.4 C396.9,331 395,341.2 394.3,347.8 C393.6,354.4 392.1,361.5 391.2,365.9 C390.2,370.3 390.2,374.9 388.7,374.2 C387.1,373.5 383.7,367.3 381.8,361.8 C379.9,356.2 377.1,347.9 377.5,341 C377.8,334.2 380.9,323.2 383.9,320.7Z"/><clipPath id="p7k60"><use href="#p7q60"/></clipPath></defs><use href="#p7q60" fill="#E5172F"/><g clip-path="url(#p7k60)" fill="#A50F22"><path d="M390,327.1 C391,323.1 394.5,323 395.2,326.4 C395.9,329.9 395.1,340.3 394.3,347.8 C393.4,355.3 390.9,371 390.1,371.4 C389.2,371.8 389.3,357.6 389.3,350.2 C389.2,342.8 389,331 390,327.1Z"/></g><use href="#p7q60" fill="none" stroke="#1A1718" stroke-width="3.2" stroke-linejoin="round"/><path d="M528,455 L571,473 L532,497Z" fill="#E9E1CF" stroke="#2A2A2A" stroke-width="2.5" stroke-linejoin="round"/><path d="M668,426 L685,432 L670,442Z" fill="#8A4B32" stroke="#2A2A2A" stroke-width="2.5" stroke-linejoin="round"/><path d="M220,667 L187,649 L221,633Z" fill="#E9E1CF" stroke="#2A2A2A" stroke-width="2.5" stroke-linejoin="round"/><path d="M136,730 L106,728 L126,705Z" fill="#8A4B32" stroke="#2A2A2A" stroke-width="2.5" stroke-linejoin="round"/><path d="M289,267 L261,268 L277,244Z" fill="#E9E1CF" stroke="#2A2A2A" stroke-width="2.5" stroke-linejoin="round"/><path d="M620,365 L639,360 L632,378Z" fill="#8A4B32" stroke="#2A2A2A" stroke-width="2.5" stroke-linejoin="round"/><path d="M560,274 L599,276 L575,307Z" fill="#E9E1CF" stroke="#2A2A2A" stroke-width="2.5" stroke-linejoin="round"/><path d="M722,668 L767,670 L739,705Z" fill="#8A4B32" stroke="#2A2A2A" stroke-width="2.5" stroke-linejoin="round"/><path d="M625,226 L612,243 L606,223Z" fill="#E9E1CF" stroke="#2A2A2A" stroke-width="2.5" stroke-linejoin="round"/><path d="M200,580 L186,600 L210,598Z" fill="#8A4B32" stroke="#2A2A2A" stroke-width="2.5" stroke-linejoin="round"/><path d="M150,330 L178,320 L170,346Z" fill="#E9E1CF" stroke="#2A2A2A" stroke-width="2.5" stroke-linejoin="round"/><path d="M640,500 L668,492 L652,520Z" fill="#8A4B32" stroke="#2A2A2A" stroke-width="2.5" stroke-linejoin="round"/><g transform="rotate(-6 30 140)"><text x="30" y="140" font-family="Dela Gothic One, IPAGothic, sans-serif" font-size="80" fill="#F5EEDD" stroke="#1A1718" stroke-width="10" stroke-linejoin="round" paint-order="stroke" text-anchor="start">ガシャーン！！</text></g><path d="M620,800 L649.1,825.7 L585.1,841.8 L570,868.9 L491.4,870.3 L436.9,890.3 L368.7,876.5 L292.2,882.9 L255.9,858.4 L181.6,849.3 L188.9,821.8 L140.4,800 L188.9,778.2 L181.6,750.7 L255.9,741.6 L292.2,717.1 L368.7,723.5 L436.9,709.7 L491.4,729.7 L570,731.1 L585.1,758.2 L649.1,774.3Z" fill="#F5EEDD" stroke="#1A1718" stroke-width="4" stroke-linejoin="round"/><text x="400" y="787" font-family="Zen Kaku Gothic New, IPAGothic, sans-serif" font-size="36" font-weight="700" fill="#1A1718" text-anchor="middle">どいてどいてどいて！</text><text x="400" y="836.7" font-family="Zen Kaku Gothic New, IPAGothic, sans-serif" font-size="36" font-weight="700" fill="#1A1718" text-anchor="middle">熱いの通りまーす！！</text></svg>
